{"glyphs":{"0":{"ha":646,"x_min":47,"x_max":597,"o":"m 321 -7 q 183 39 245 -7 q 84 182 121 85 q 47 422 47 278 q 84 663 47 566 q 183 805 121 759 q 321 852 245 852 q 459 805 397 852 q 559 663 522 759 q 597 422 597 566 q 559 182 597 278 q 459 39 522 85 q 321 -7 397 -7 m 321 80 q 407 115 368 80 q 470 226 446 149 q 494 422 494 302 q 470 618 494 542 q 407 730 446 695 q 321 765 368 765 q 236 730 275 765 q 173 619 197 696 q 149 422 149 542 q 173 226 149 302 q 236 115 197 149 q 321 80 275 80 z "},"1":{"ha":646,"x_min":48,"x_max":590,"o":"m 76 0 q 58 9 63 0 q 52 36 52 18 l 52 51 q 58 78 52 70 q 76 87 63 87 l 286 87 l 286 737 l 73 701 q 55 721 61 701 q 48 762 48 742 q 54 777 48 772 q 71 785 59 782 l 349 847 q 375 839 363 847 q 387 821 387 831 l 387 87 l 566 87 q 590 51 590 87 l 590 36 q 566 0 590 0 l 76 0 z "},"2":{"ha":646,"x_min":62,"x_max":570,"o":"m 85 0 q 68 17 75 0 q 62 53 62 34 q 66 74 62 70 l 377 464 q 432 542 415 513 q 454 591 450 571 q 459 639 459 610 q 419 731 459 697 q 309 765 378 765 q 223 751 258 765 q 155 717 188 738 q 128 703 135 703 q 113 714 122 703 q 96 740 103 726 q 89 764 89 755 q 126 807 89 787 q 216 840 163 827 q 307 852 268 852 q 443 827 385 852 q 532 755 500 802 q 564 646 564 709 q 545 542 564 587 q 476 430 527 496 q 287 193 426 363 l 199 85 l 546 85 q 565 77 559 85 q 570 50 570 69 l 570 36 q 565 9 570 18 q 546 0 559 0 l 85 0 z "},"3":{"ha":646,"x_min":54,"x_max":566,"o":"m 296 -7 q 174 4 229 -7 q 86 30 118 14 q 54 62 54 46 q 62 87 54 73 q 80 111 70 101 q 97 121 90 121 q 130 112 103 121 q 203 89 168 98 q 287 80 239 80 q 368 95 328 80 q 434 148 407 111 q 460 246 460 185 q 414 369 460 334 q 280 405 368 405 l 240 405 q 222 414 227 405 q 216 441 216 422 l 216 454 q 222 483 216 474 q 240 491 227 491 l 275 491 q 369 517 333 491 q 420 579 405 543 q 435 649 435 615 q 423 702 435 676 q 378 747 410 728 q 292 765 346 765 q 209 756 242 765 q 144 733 176 747 q 133 728 142 732 q 118 724 123 724 q 102 736 112 724 q 86 763 93 748 q 79 787 79 779 q 116 819 79 804 q 204 843 153 834 q 294 852 256 852 q 422 828 367 852 q 507 755 477 804 q 538 637 538 707 q 502 535 538 578 q 414 472 467 492 l 414 467 q 487 428 452 456 q 544 352 522 399 q 566 245 566 305 q 525 101 566 157 q 424 19 485 45 q 296 -7 362 -7 z "},"4":{"ha":646,"x_min":22,"x_max":623,"o":"m 454 -2 q 426 4 435 -2 q 418 24 418 11 l 418 201 l 51 201 q 32 223 41 201 q 22 262 22 245 q 24 277 22 274 l 421 829 q 438 842 427 838 q 462 847 450 847 l 481 847 q 517 820 517 847 l 517 288 l 598 288 q 623 252 623 288 l 623 237 q 598 201 623 201 l 517 201 l 517 24 q 481 -2 517 -2 l 454 -2 m 418 288 l 418 671 l 413 674 l 141 288 l 418 288 z "},"5":{"ha":646,"x_min":57,"x_max":572,"o":"m 282 -7 q 167 4 219 -7 q 86 33 115 16 q 57 66 57 50 q 64 91 57 77 q 82 116 72 105 q 99 126 92 126 q 130 115 106 126 q 200 90 165 100 q 281 80 234 80 q 374 100 331 80 q 442 160 416 120 q 468 257 468 200 q 412 380 468 338 q 251 422 357 422 l 149 422 q 122 431 129 422 q 115 458 115 439 l 135 808 q 145 835 136 827 q 174 844 155 844 l 494 844 q 513 835 507 844 q 518 808 518 827 l 518 793 q 513 766 518 774 q 494 757 507 757 l 233 757 l 217 509 l 280 509 q 419 485 353 509 q 528 405 485 461 q 572 257 572 349 q 530 100 572 159 q 424 17 488 41 q 282 -7 359 -7 z "},"6":{"ha":646,"x_min":62,"x_max":578,"o":"m 318 -6 q 127 73 192 -6 q 62 298 62 153 q 137 582 62 457 q 308 777 212 706 q 454 847 404 847 q 474 835 465 847 q 488 807 483 823 q 493 783 493 791 q 484 770 493 774 q 291 637 365 720 q 186 449 216 554 q 349 488 256 488 q 465 458 413 488 q 548 373 517 428 q 578 245 578 317 q 544 113 578 170 q 451 25 510 56 q 318 -6 391 -6 m 324 81 q 395 98 359 81 q 453 152 430 116 q 477 240 477 188 q 455 333 477 296 q 397 385 433 369 q 318 401 361 401 q 168 361 240 401 l 166 347 q 164 320 165 339 q 163 288 163 302 q 209 127 163 174 q 324 81 256 81 z "},"7":{"ha":646,"x_min":66,"x_max":591,"o":"m 169 -2 q 129 2 141 -2 q 117 20 117 7 q 118 26 117 22 q 121 34 120 31 l 470 757 l 90 757 q 72 766 78 757 q 66 793 66 774 l 66 808 q 72 835 66 827 q 90 844 78 844 l 567 844 q 583 822 574 844 q 591 783 591 800 q 589 770 591 777 l 231 17 q 215 3 227 8 q 184 -2 202 -2 l 169 -2 z "},"8":{"ha":646,"x_min":62,"x_max":583,"o":"m 322 -7 q 189 21 248 -7 q 96 104 130 48 q 62 244 62 161 q 97 380 62 332 q 195 458 132 428 q 123 531 150 486 q 96 642 96 577 q 126 756 96 709 q 208 828 156 804 q 324 852 260 852 q 441 828 389 852 q 525 756 494 804 q 555 642 555 709 q 439 459 555 513 q 515 414 484 439 q 565 348 546 389 q 583 244 583 306 q 549 104 583 161 q 456 21 515 48 q 322 -7 397 -7 m 351 492 q 427 556 399 520 q 454 642 454 593 q 418 734 454 703 q 324 765 381 765 q 232 734 268 765 q 197 642 197 704 q 217 569 197 597 q 268 525 237 541 q 351 492 298 509 m 322 80 q 402 99 366 80 q 459 154 438 117 q 480 244 480 191 q 458 325 480 294 q 404 372 436 355 q 315 408 371 389 l 277 422 q 195 350 224 392 q 165 244 165 309 q 186 154 165 191 q 242 99 207 117 q 322 80 278 80 z "},"9":{"ha":646,"x_min":66,"x_max":583,"o":"m 192 -2 q 172 10 180 -2 q 158 38 163 22 q 153 62 153 53 q 162 75 153 71 q 355 207 281 124 q 459 395 429 290 q 296 356 393 356 q 180 386 233 356 q 97 472 127 416 q 66 600 66 527 q 101 731 66 674 q 194 819 135 788 q 327 850 254 850 q 518 771 453 850 q 583 546 583 692 q 508 263 583 388 q 337 68 433 139 q 192 -2 241 -2 m 327 443 q 410 455 371 443 q 477 484 448 467 q 482 555 482 526 q 436 717 482 671 q 321 764 389 764 q 251 746 286 764 q 192 692 216 728 q 169 604 169 656 q 191 512 169 548 q 249 459 213 476 q 327 443 285 443 z "},"\r":{"ha":290,"x_min":0,"x_max":0,"o":""}," ":{"ha":290,"x_min":0,"x_max":0,"o":""},"A":{"ha":739,"x_min":15,"x_max":724,"o":"m 66 -2 q 27 3 39 -2 q 15 18 15 8 q 18 35 15 23 l 304 827 q 352 847 311 847 l 387 847 q 435 827 429 847 l 721 34 q 724 18 724 26 q 673 -2 724 -2 l 663 -2 q 614 17 621 -2 l 544 215 l 190 215 l 121 17 q 73 -2 115 -2 l 66 -2 m 511 307 l 385 665 q 376 699 380 680 q 370 736 373 718 l 368 736 q 349 665 359 690 l 223 307 l 511 307 z "},"Á":{"ha":739,"x_min":15,"x_max":724,"o":"m 15 0 m 66 -2 q 27 3 39 -2 q 15 18 15 8 q 18 35 15 23 l 304 827 q 352 847 311 847 l 387 847 q 435 827 429 847 l 721 34 q 724 18 724 26 q 673 -2 724 -2 l 663 -2 q 614 17 621 -2 l 544 215 l 190 215 l 121 17 q 73 -2 115 -2 l 66 -2 m 511 307 l 385 665 q 376 699 380 680 q 370 736 373 718 l 368 736 q 349 665 359 690 l 223 307 l 511 307 m 349 919 q 321 930 321 919 q 334 962 321 939 q 392 1065 346 985 q 419 1088 401 1081 q 467 1096 437 1096 q 511 1093 497 1096 q 524 1080 524 1089 q 519 1065 524 1074 q 493 1034 513 1057 q 440 973 472 1010 l 411 940 q 385 924 401 930 q 349 919 369 919 z "},"Ă":{"ha":739,"x_min":15,"x_max":724,"o":"m 15 0 m 66 -2 q 27 3 39 -2 q 15 18 15 8 q 18 35 15 23 l 304 827 q 352 847 311 847 l 387 847 q 435 827 429 847 l 721 34 q 724 18 724 26 q 673 -2 724 -2 l 663 -2 q 614 17 621 -2 l 544 215 l 190 215 l 121 17 q 73 -2 115 -2 l 66 -2 m 511 307 l 385 665 q 376 699 380 680 q 370 736 373 718 l 368 736 q 349 665 359 690 l 223 307 l 511 307 m 372 919 q 287 935 326 919 q 222 981 247 950 q 197 1057 197 1013 q 201 1070 197 1066 q 215 1075 205 1075 q 229 1072 225 1075 q 236 1059 233 1068 q 241 1045 239 1049 q 289 1009 254 1021 q 372 998 324 998 q 453 1009 419 998 q 500 1045 488 1021 l 507 1059 q 514 1072 510 1068 q 527 1075 517 1075 q 541 1070 537 1075 q 545 1057 545 1066 q 520 981 545 1013 q 456 935 496 950 q 372 919 416 919 z "},"Ắ":{"ha":739,"x_min":15,"x_max":724,"o":"m 359 1027 q 338 1029 345 1027 q 332 1039 332 1032 q 342 1069 332 1046 q 389 1160 353 1091 q 454 1192 407 1192 q 483 1188 475 1192 q 492 1176 492 1185 q 484 1158 492 1169 q 442 1101 476 1146 l 402 1048 q 359 1027 387 1027 m 372 919 q 287 934 327 919 q 222 977 247 949 q 197 1044 197 1005 q 215 1062 197 1062 q 226 1059 223 1062 q 232 1049 229 1057 q 241 1032 237 1037 q 294 997 257 1013 q 372 981 330 981 q 450 997 414 981 q 500 1032 486 1013 q 509 1048 504 1037 q 515 1059 512 1056 q 527 1062 518 1062 q 545 1044 545 1062 q 520 977 545 1005 q 456 934 496 949 q 372 919 416 919 m 66 -2 q 27 3 39 -2 q 15 18 15 8 q 18 35 15 23 l 304 827 q 352 847 311 847 l 387 847 q 435 827 429 847 l 721 34 q 724 18 724 26 q 673 -2 724 -2 l 663 -2 q 614 17 621 -2 l 544 215 l 190 215 l 121 17 q 73 -2 115 -2 l 66 -2 m 511 307 l 385 665 q 376 699 380 680 q 370 736 373 718 l 368 736 q 349 665 359 690 l 223 307 l 511 307 z "},"Ặ":{"ha":739,"x_min":15,"x_max":724,"o":"m 15 0 m 66 -2 q 27 3 39 -2 q 15 18 15 8 q 18 35 15 23 l 304 827 q 352 847 311 847 l 387 847 q 435 827 429 847 l 721 34 q 724 18 724 26 q 673 -2 724 -2 l 663 -2 q 614 17 621 -2 l 544 215 l 190 215 l 121 17 q 73 -2 115 -2 l 66 -2 m 511 307 l 385 665 q 376 699 380 680 q 370 736 373 718 l 368 736 q 349 665 359 690 l 223 307 l 511 307 m 372 919 q 287 935 326 919 q 222 981 247 950 q 197 1057 197 1013 q 201 1070 197 1066 q 215 1075 205 1075 q 229 1072 225 1075 q 236 1059 233 1068 q 241 1045 239 1049 q 289 1009 254 1021 q 372 998 324 998 q 453 1009 419 998 q 500 1045 488 1021 l 507 1059 q 514 1072 510 1068 q 527 1075 517 1075 q 541 1070 537 1075 q 545 1057 545 1066 q 520 981 545 1013 q 456 935 496 950 q 372 919 416 919 z "},"Ằ":{"ha":739,"x_min":15,"x_max":724,"o":"m 395 1027 q 372 1033 384 1027 q 353 1048 359 1038 l 307 1119 q 280 1161 285 1153 q 275 1176 275 1170 q 284 1188 275 1185 q 317 1192 292 1192 q 354 1184 337 1192 q 378 1160 371 1177 q 414 1072 405 1096 q 423 1039 423 1047 q 417 1029 423 1032 q 395 1027 410 1027 m 372 919 q 287 934 327 919 q 222 977 247 949 q 197 1044 197 1005 q 215 1062 197 1062 q 226 1059 223 1062 q 232 1049 229 1057 q 241 1032 237 1037 q 294 997 257 1013 q 372 981 330 981 q 450 997 414 981 q 500 1032 486 1013 q 509 1048 504 1037 q 515 1059 512 1056 q 527 1062 518 1062 q 545 1044 545 1062 q 520 977 545 1005 q 456 934 496 949 q 372 919 416 919 m 66 -2 q 27 3 39 -2 q 15 18 15 8 q 18 35 15 23 l 304 827 q 352 847 311 847 l 387 847 q 435 827 429 847 l 721 34 q 724 18 724 26 q 673 -2 724 -2 l 663 -2 q 614 17 621 -2 l 544 215 l 190 215 l 121 17 q 73 -2 115 -2 l 66 -2 m 511 307 l 385 665 q 376 699 380 680 q 370 736 373 718 l 368 736 q 349 665 359 690 l 223 307 l 511 307 z "},"Ẳ":{"ha":739,"x_min":15,"x_max":724,"o":"m 376 1028 q 345 1036 358 1028 q 332 1051 332 1043 q 338 1063 332 1058 q 361 1078 345 1069 q 399 1123 399 1099 q 386 1147 399 1139 q 355 1156 373 1156 q 326 1152 337 1156 q 308 1144 315 1148 q 299 1139 301 1139 q 281 1155 292 1139 q 270 1179 270 1170 q 284 1195 270 1187 q 321 1208 299 1203 q 364 1213 344 1213 q 411 1205 387 1213 q 451 1179 435 1197 q 468 1131 468 1160 q 456 1088 468 1106 q 425 1054 445 1069 q 398 1036 414 1044 q 376 1028 382 1028 m 372 919 q 287 934 327 919 q 222 977 247 949 q 197 1044 197 1005 q 215 1062 197 1062 q 226 1059 223 1062 q 232 1049 229 1057 q 241 1032 237 1037 q 294 997 257 1013 q 372 981 330 981 q 450 997 414 981 q 500 1032 486 1013 q 509 1048 504 1037 q 515 1059 512 1056 q 527 1062 518 1062 q 545 1044 545 1062 q 520 977 545 1005 q 456 934 496 949 q 372 919 416 919 m 66 -2 q 27 3 39 -2 q 15 18 15 8 q 18 35 15 23 l 304 827 q 352 847 311 847 l 387 847 q 435 827 429 847 l 721 34 q 724 18 724 26 q 673 -2 724 -2 l 663 -2 q 614 17 621 -2 l 544 215 l 190 215 l 121 17 q 73 -2 115 -2 l 66 -2 m 511 307 l 385 665 q 376 699 380 680 q 370 736 373 718 l 368 736 q 349 665 359 690 l 223 307 l 511 307 z "},"Ẵ":{"ha":739,"x_min":15,"x_max":724,"o":"m 182 1121 q 172 1135 172 1126 q 175 1151 172 1143 q 217 1215 192 1196 q 277 1234 241 1234 q 323 1227 299 1234 q 381 1206 347 1220 q 430 1188 410 1194 q 467 1182 450 1182 q 492 1190 481 1182 q 515 1217 503 1198 q 525 1231 520 1227 q 536 1235 530 1235 q 547 1232 541 1235 l 555 1228 q 566 1222 563 1225 q 569 1213 569 1219 q 564 1197 569 1206 q 523 1134 547 1153 q 464 1115 498 1115 q 417 1122 440 1115 q 355 1143 393 1128 q 305 1161 323 1156 q 270 1167 286 1167 q 246 1159 256 1167 q 224 1131 235 1150 q 214 1117 219 1121 q 204 1113 210 1113 q 193 1116 201 1113 l 182 1121 m 372 919 q 287 934 327 919 q 222 977 247 949 q 197 1044 197 1005 q 215 1062 197 1062 q 226 1059 223 1062 q 232 1049 229 1057 q 241 1032 237 1037 q 294 997 257 1013 q 372 981 330 981 q 450 997 414 981 q 500 1032 486 1013 q 509 1048 504 1037 q 515 1059 512 1056 q 527 1062 518 1062 q 545 1044 545 1062 q 520 977 545 1005 q 456 934 496 949 q 372 919 416 919 m 66 -2 q 27 3 39 -2 q 15 18 15 8 q 18 35 15 23 l 304 827 q 352 847 311 847 l 387 847 q 435 827 429 847 l 721 34 q 724 18 724 26 q 673 -2 724 -2 l 663 -2 q 614 17 621 -2 l 544 215 l 190 215 l 121 17 q 73 -2 115 -2 l 66 -2 m 511 307 l 385 665 q 376 699 380 680 q 370 736 373 718 l 368 736 q 349 665 359 690 l 223 307 l 511 307 z "},"Â":{"ha":739,"x_min":15,"x_max":724,"o":"m 15 0 m 66 -2 q 27 3 39 -2 q 15 18 15 8 q 18 35 15 23 l 304 827 q 352 847 311 847 l 387 847 q 435 827 429 847 l 721 34 q 724 18 724 26 q 673 -2 724 -2 l 663 -2 q 614 17 621 -2 l 544 215 l 190 215 l 121 17 q 73 -2 115 -2 l 66 -2 m 511 307 l 385 665 q 376 699 380 680 q 370 736 373 718 l 368 736 q 349 665 359 690 l 223 307 l 511 307 m 252 907 q 224 924 224 907 q 232 946 224 932 l 299 1052 q 355 1078 317 1078 l 385 1078 q 440 1052 423 1078 l 509 946 q 517 926 517 935 q 488 907 517 907 l 485 907 q 464 911 473 907 q 445 924 454 915 l 370 1013 l 296 924 q 255 907 279 907 l 252 907 z "},"Ấ":{"ha":739,"x_min":15,"x_max":724,"o":"m 528 994 q 507 996 513 994 q 500 1006 500 999 q 511 1036 500 1013 q 558 1127 522 1058 q 623 1158 576 1158 q 652 1155 644 1158 q 661 1143 661 1152 q 653 1124 661 1136 q 611 1067 645 1113 l 571 1015 q 528 994 555 994 m 257 907 q 229 924 229 907 q 237 946 229 932 l 304 1052 q 359 1078 321 1078 l 389 1078 q 433 1052 417 1078 l 496 946 q 503 926 503 935 q 474 907 503 907 l 471 907 q 448 911 459 907 q 432 924 437 916 l 374 1013 l 300 924 q 260 907 284 907 l 257 907 m 66 -2 q 27 3 39 -2 q 15 18 15 8 q 18 35 15 23 l 304 827 q 352 847 311 847 l 387 847 q 435 827 429 847 l 721 34 q 724 18 724 26 q 673 -2 724 -2 l 663 -2 q 614 17 621 -2 l 544 215 l 190 215 l 121 17 q 73 -2 115 -2 l 66 -2 m 511 307 l 385 665 q 376 699 380 680 q 370 736 373 718 l 368 736 q 349 665 359 690 l 223 307 l 511 307 z "},"Ậ":{"ha":739,"x_min":15,"x_max":724,"o":"m 15 0 m 66 -2 q 27 3 39 -2 q 15 18 15 8 q 18 35 15 23 l 304 827 q 352 847 311 847 l 387 847 q 435 827 429 847 l 721 34 q 724 18 724 26 q 673 -2 724 -2 l 663 -2 q 614 17 621 -2 l 544 215 l 190 215 l 121 17 q 73 -2 115 -2 l 66 -2 m 511 307 l 385 665 q 376 699 380 680 q 370 736 373 718 l 368 736 q 349 665 359 690 l 223 307 l 511 307 m 252 907 q 224 924 224 907 q 232 946 224 932 l 299 1052 q 355 1078 317 1078 l 385 1078 q 440 1052 423 1078 l 509 946 q 517 926 517 935 q 488 907 517 907 l 485 907 q 464 911 473 907 q 445 924 454 915 l 370 1013 l 296 924 q 255 907 279 907 l 252 907 z "},"Ầ":{"ha":739,"x_min":15,"x_max":724,"o":"m 564 994 q 540 999 552 994 q 521 1015 528 1005 l 475 1086 q 448 1128 453 1120 q 444 1143 444 1137 q 452 1155 444 1152 q 486 1158 460 1158 q 522 1151 505 1158 q 546 1127 539 1143 q 582 1038 573 1063 q 591 1006 591 1014 q 585 996 591 999 q 564 994 578 994 m 257 907 q 229 924 229 907 q 237 946 229 932 l 304 1052 q 359 1078 321 1078 l 389 1078 q 433 1052 417 1078 l 496 946 q 503 926 503 935 q 474 907 503 907 l 471 907 q 448 911 459 907 q 432 924 437 916 l 374 1013 l 300 924 q 260 907 284 907 l 257 907 m 66 -2 q 27 3 39 -2 q 15 18 15 8 q 18 35 15 23 l 304 827 q 352 847 311 847 l 387 847 q 435 827 429 847 l 721 34 q 724 18 724 26 q 673 -2 724 -2 l 663 -2 q 614 17 621 -2 l 544 215 l 190 215 l 121 17 q 73 -2 115 -2 l 66 -2 m 511 307 l 385 665 q 376 699 380 680 q 370 736 373 718 l 368 736 q 349 665 359 690 l 223 307 l 511 307 z "},"Ẩ":{"ha":739,"x_min":15,"x_max":724,"o":"m 545 995 q 514 1002 527 995 q 500 1018 500 1010 q 507 1030 500 1025 q 530 1045 513 1036 q 568 1090 568 1066 q 555 1114 568 1105 q 524 1122 542 1122 q 495 1119 506 1122 q 477 1111 484 1115 q 468 1106 470 1106 q 450 1121 460 1106 q 439 1146 439 1137 q 453 1162 439 1154 q 490 1175 468 1170 q 533 1180 513 1180 q 580 1172 556 1180 q 620 1145 604 1164 q 637 1098 637 1127 q 625 1055 637 1073 q 594 1021 614 1036 q 567 1003 583 1010 q 545 995 551 995 m 257 907 q 229 924 229 907 q 237 946 229 932 l 304 1052 q 359 1078 321 1078 l 389 1078 q 433 1052 417 1078 l 496 946 q 503 926 503 935 q 474 907 503 907 l 471 907 q 448 911 459 907 q 432 924 437 916 l 374 1013 l 300 924 q 260 907 284 907 l 257 907 m 66 -2 q 27 3 39 -2 q 15 18 15 8 q 18 35 15 23 l 304 827 q 352 847 311 847 l 387 847 q 435 827 429 847 l 721 34 q 724 18 724 26 q 673 -2 724 -2 l 663 -2 q 614 17 621 -2 l 544 215 l 190 215 l 121 17 q 73 -2 115 -2 l 66 -2 m 511 307 l 385 665 q 376 699 380 680 q 370 736 373 718 l 368 736 q 349 665 359 690 l 223 307 l 511 307 z "},"Ẫ":{"ha":739,"x_min":15,"x_max":724,"o":"m 187 1102 q 177 1116 177 1107 q 180 1132 177 1124 q 222 1196 197 1177 q 282 1215 247 1215 q 328 1208 304 1215 q 387 1187 352 1201 q 435 1169 416 1175 q 472 1163 455 1163 q 498 1171 487 1163 q 520 1198 509 1179 q 531 1212 526 1208 q 542 1216 536 1216 q 553 1213 546 1216 l 561 1209 q 571 1203 568 1206 q 574 1194 574 1200 q 570 1178 574 1187 q 528 1115 553 1134 q 469 1096 504 1096 q 422 1103 446 1096 q 360 1124 399 1109 q 310 1142 329 1137 q 275 1148 292 1148 q 251 1140 262 1148 q 230 1112 241 1131 q 220 1098 224 1102 q 210 1094 215 1094 q 199 1097 207 1094 l 187 1102 m 252 907 q 224 924 224 907 q 232 946 224 932 l 299 1023 q 326 1043 314 1037 q 355 1050 338 1050 l 385 1050 q 415 1043 401 1050 q 440 1023 428 1036 l 509 946 q 517 926 517 935 q 488 907 517 907 l 485 907 q 466 911 474 907 q 445 924 457 916 l 370 983 l 296 924 q 255 907 276 907 l 252 907 m 66 -2 q 27 3 39 -2 q 15 18 15 8 q 18 35 15 23 l 304 827 q 352 847 311 847 l 387 847 q 435 827 429 847 l 721 34 q 724 18 724 26 q 673 -2 724 -2 l 663 -2 q 614 17 621 -2 l 544 215 l 190 215 l 121 17 q 73 -2 115 -2 l 66 -2 m 511 307 l 385 665 q 376 699 380 680 q 370 736 373 718 l 368 736 q 349 665 359 690 l 223 307 l 511 307 z "},"Ä":{"ha":739,"x_min":15,"x_max":724,"o":"m 15 0 m 66 -2 q 27 3 39 -2 q 15 18 15 8 q 18 35 15 23 l 304 827 q 352 847 311 847 l 387 847 q 435 827 429 847 l 721 34 q 724 18 724 26 q 673 -2 724 -2 l 663 -2 q 614 17 621 -2 l 544 215 l 190 215 l 121 17 q 73 -2 115 -2 l 66 -2 m 511 307 l 385 665 q 376 699 380 680 q 370 736 373 718 l 368 736 q 349 665 359 690 l 223 307 l 511 307 m 282 945 q 234 971 234 945 l 234 1033 q 287 1060 234 1060 q 335 1033 335 1060 l 335 971 q 282 945 335 945 m 456 945 q 408 971 408 945 l 408 1033 q 460 1060 408 1060 q 509 1033 509 1060 l 509 971 q 456 945 509 945 z "},"Ạ":{"ha":739,"x_min":15,"x_max":724,"o":"m 15 0 m 66 -2 q 27 3 39 -2 q 15 18 15 8 q 18 35 15 23 l 304 827 q 352 847 311 847 l 387 847 q 435 827 429 847 l 721 34 q 724 18 724 26 q 673 -2 724 -2 l 663 -2 q 614 17 621 -2 l 544 215 l 190 215 l 121 17 q 73 -2 115 -2 l 66 -2 m 511 307 l 385 665 q 376 699 380 680 q 370 736 373 718 l 368 736 q 349 665 359 690 l 223 307 l 511 307 z "},"À":{"ha":739,"x_min":15,"x_max":724,"o":"m 15 0 m 66 -2 q 27 3 39 -2 q 15 18 15 8 q 18 35 15 23 l 304 827 q 352 847 311 847 l 387 847 q 435 827 429 847 l 721 34 q 724 18 724 26 q 673 -2 724 -2 l 663 -2 q 614 17 621 -2 l 544 215 l 190 215 l 121 17 q 73 -2 115 -2 l 66 -2 m 511 307 l 385 665 q 376 699 380 680 q 370 736 373 718 l 368 736 q 349 665 359 690 l 223 307 l 511 307 m 403 919 q 368 924 384 919 q 342 940 352 930 l 293 996 q 238 1059 249 1046 q 228 1080 228 1072 q 242 1093 228 1089 q 286 1096 256 1096 q 333 1089 315 1096 q 361 1065 351 1082 q 418 963 405 988 q 431 930 431 939 q 424 922 431 924 q 403 919 418 919 z "},"Ả":{"ha":739,"x_min":15,"x_max":724,"o":"m 15 0 m 66 -2 q 27 3 39 -2 q 15 18 15 8 q 18 35 15 23 l 304 827 q 352 847 311 847 l 387 847 q 435 827 429 847 l 721 34 q 724 18 724 26 q 673 -2 724 -2 l 663 -2 q 614 17 621 -2 l 544 215 l 190 215 l 121 17 q 73 -2 115 -2 l 66 -2 m 511 307 l 385 665 q 376 699 380 680 q 370 736 373 718 l 368 736 q 349 665 359 690 l 223 307 l 511 307 m 379 892 q 354 898 369 892 q 339 912 339 905 q 346 931 339 922 q 369 952 353 939 q 402 985 390 969 q 414 1023 414 1001 q 401 1047 414 1039 q 369 1055 389 1055 q 340 1052 351 1055 q 322 1044 330 1048 q 313 1040 315 1040 q 296 1056 307 1040 q 285 1080 285 1071 q 299 1097 285 1088 q 336 1111 314 1105 q 379 1117 358 1117 q 428 1109 403 1117 q 471 1082 453 1101 q 488 1032 488 1063 q 466 964 488 996 q 416 912 444 932 q 379 892 389 892 z "},"Ā":{"ha":739,"x_min":15,"x_max":724,"o":"m 15 0 m 66 -2 q 27 3 39 -2 q 15 18 15 8 q 18 35 15 23 l 304 827 q 352 847 311 847 l 387 847 q 435 827 429 847 l 721 34 q 724 18 724 26 q 673 -2 724 -2 l 663 -2 q 614 17 621 -2 l 544 215 l 190 215 l 121 17 q 73 -2 115 -2 l 66 -2 m 511 307 l 385 665 q 376 699 380 680 q 370 736 373 718 l 368 736 q 349 665 359 690 l 223 307 l 511 307 m 237 951 q 218 960 224 951 q 212 987 212 968 l 212 999 q 218 1027 212 1018 q 237 1036 224 1036 l 506 1036 q 524 1027 518 1036 q 529 999 529 1018 l 529 987 q 524 959 529 968 q 506 951 518 951 l 237 951 z "},"Ą":{"ha":739,"x_min":15,"x_max":850,"o":"m 827 -125 q 850 -155 850 -125 q 825 -207 850 -193 q 751 -221 800 -221 q 639 -181 668 -221 q 610 -98 610 -142 q 616 -44 610 -72 q 639 0 622 -17 q 614 17 619 3 l 544 215 l 190 215 l 121 17 q 73 -2 115 -2 l 66 -2 q 27 3 39 -2 q 15 18 15 8 q 18 35 15 23 l 304 827 q 352 847 311 847 l 387 847 q 435 827 429 847 l 721 34 q 724 18 724 26 q 705 1 724 6 l 705 -1 q 699 -28 705 -10 q 690 -75 690 -60 q 712 -125 690 -113 q 765 -136 734 -136 q 795 -131 774 -136 q 827 -125 816 -125 m 511 307 l 385 665 q 376 699 380 680 q 370 736 373 718 l 368 736 q 349 665 359 690 l 223 307 l 511 307 z "},"Å":{"ha":739,"x_min":15,"x_max":724,"o":"m 15 0 m 66 -2 q 27 3 39 -2 q 15 18 15 8 q 18 35 15 23 l 304 827 q 352 847 311 847 l 387 847 q 435 827 429 847 l 721 34 q 724 18 724 26 q 673 -2 724 -2 l 663 -2 q 614 17 621 -2 l 544 215 l 190 215 l 121 17 q 73 -2 115 -2 l 66 -2 m 511 307 l 385 665 q 376 699 380 680 q 370 736 373 718 l 368 736 q 349 665 359 690 l 223 307 l 511 307 m 370 893 q 319 906 342 893 q 282 943 296 920 q 269 994 269 966 q 282 1046 269 1022 q 319 1083 296 1069 q 370 1097 342 1097 q 421 1083 398 1097 q 458 1046 445 1069 q 472 994 472 1022 q 458 943 472 966 q 421 906 445 920 q 370 893 398 893 m 370 935 q 413 952 395 935 q 431 994 431 969 q 413 1037 431 1019 q 370 1055 395 1055 q 328 1037 345 1055 q 311 994 311 1020 q 328 952 311 969 q 370 935 345 935 z "},"Ǻ":{"ha":739,"x_min":15,"x_max":724,"o":"m 349 991 q 322 1003 322 991 q 367 1089 348 1055 q 394 1113 376 1106 q 441 1120 411 1120 q 486 1117 472 1120 q 500 1104 500 1114 q 493 1094 500 1101 q 473 1074 487 1086 q 450 1050 465 1065 q 411 1013 435 1036 q 385 997 401 1002 q 349 991 369 991 m 721 34 q 724 18 724 26 q 673 -2 724 -2 l 663 -2 q 614 17 621 -2 l 544 215 l 190 215 l 121 17 q 73 -2 115 -2 l 66 -2 q 27 3 39 -2 q 15 18 15 8 q 18 35 15 23 l 290 790 q 269 854 269 819 q 282 905 269 882 q 319 942 296 928 q 370 956 342 956 q 421 942 398 956 q 458 905 445 928 q 472 854 472 882 q 449 789 472 817 l 721 34 m 370 914 q 328 897 345 914 q 311 854 311 880 q 328 812 311 829 q 370 795 345 795 q 413 812 395 795 q 431 854 431 829 q 413 897 431 879 q 370 914 395 914 m 511 307 l 385 665 q 376 699 380 680 q 370 736 373 718 l 368 736 q 349 665 359 690 l 223 307 l 511 307 z "},"Ã":{"ha":739,"x_min":15,"x_max":724,"o":"m 15 0 m 66 -2 q 27 3 39 -2 q 15 18 15 8 q 18 35 15 23 l 304 827 q 352 847 311 847 l 387 847 q 435 827 429 847 l 721 34 q 724 18 724 26 q 673 -2 724 -2 l 663 -2 q 614 17 621 -2 l 544 215 l 190 215 l 121 17 q 73 -2 115 -2 l 66 -2 m 511 307 l 385 665 q 376 699 380 680 q 370 736 373 718 l 368 736 q 349 665 359 690 l 223 307 l 511 307 m 174 932 q 162 946 162 937 q 166 962 162 954 q 212 1026 185 1006 q 277 1045 239 1045 q 328 1038 302 1045 q 392 1017 353 1031 q 446 999 424 1005 q 487 993 469 993 q 515 1001 503 993 q 539 1028 527 1008 q 563 1046 551 1046 q 575 1042 567 1046 l 585 1039 q 595 1033 592 1036 q 599 1024 599 1029 q 593 1008 599 1017 q 548 945 574 964 q 484 926 521 926 q 432 933 458 926 q 363 954 406 940 q 309 972 330 966 q 271 978 288 978 q 244 969 256 978 q 220 941 233 961 q 209 928 214 932 q 198 924 204 924 q 186 927 194 924 l 174 932 z "},"Æ":{"ha":1103,"x_min":-14,"x_max":993,"o":"m 34 -2 q -3 3 7 -2 q -14 18 -14 7 q -9 38 -14 26 l 378 811 q 399 836 387 829 q 431 844 412 844 l 967 844 q 985 835 980 844 q 991 808 991 827 l 991 788 q 985 761 991 770 q 967 752 980 752 l 531 752 l 591 477 l 930 477 q 949 469 943 477 q 955 441 955 460 l 955 422 q 949 395 955 404 q 930 387 943 387 l 610 387 l 674 92 l 968 92 q 993 56 993 92 l 993 36 q 968 0 993 0 l 623 0 q 593 8 604 0 q 578 35 582 17 l 541 215 l 185 215 l 88 17 q 40 -2 78 -2 l 34 -2 m 519 305 l 443 665 l 437 736 l 435 736 l 410 665 l 231 305 l 519 305 z "},"Ǽ":{"ha":1103,"x_min":-14,"x_max":993,"o":"m 0 0 m 34 -2 q -3 3 7 -2 q -14 18 -14 7 q -9 38 -14 26 l 378 811 q 399 836 387 829 q 431 844 412 844 l 967 844 q 985 835 980 844 q 991 808 991 827 l 991 788 q 985 761 991 770 q 967 752 980 752 l 531 752 l 591 477 l 930 477 q 949 469 943 477 q 955 441 955 460 l 955 422 q 949 395 955 404 q 930 387 943 387 l 610 387 l 674 92 l 968 92 q 993 56 993 92 l 993 36 q 968 0 993 0 l 623 0 q 593 8 604 0 q 578 35 582 17 l 541 215 l 185 215 l 88 17 q 40 -2 78 -2 l 34 -2 m 519 305 l 443 665 l 437 736 l 435 736 l 410 665 l 231 305 l 519 305 m 531 919 q 503 930 503 919 q 515 962 503 939 q 574 1065 528 985 q 601 1088 583 1081 q 648 1096 619 1096 q 692 1093 679 1096 q 706 1080 706 1089 q 701 1065 706 1074 q 674 1034 695 1057 q 622 973 654 1010 l 593 940 q 567 924 583 930 q 531 919 551 919 z "},"B":{"ha":715,"x_min":117,"x_max":675,"o":"m 153 0 q 125 9 134 0 q 117 36 117 18 l 117 808 q 125 835 117 827 q 153 844 134 844 l 369 844 q 517 817 457 844 q 608 743 578 791 q 639 631 639 694 q 621 552 639 591 q 572 485 602 513 q 507 448 541 457 l 507 443 q 553 425 507 448 q 638 358 600 402 q 675 243 675 313 q 361 0 675 0 l 153 0 m 363 480 q 449 499 411 480 q 508 550 487 517 q 530 621 530 582 q 489 721 530 689 q 359 752 448 752 l 223 752 l 223 480 l 363 480 m 399 92 q 522 133 479 92 q 566 248 566 175 q 518 352 566 315 q 378 389 471 389 l 223 389 l 223 92 l 399 92 z "},"C":{"ha":747,"x_min":69,"x_max":707,"o":"m 457 -7 q 164 98 259 -7 q 69 422 69 202 q 459 852 69 852 q 570 840 516 852 q 656 810 623 828 q 690 777 690 793 q 683 749 690 766 q 666 720 675 732 q 649 707 656 707 q 630 715 646 707 q 556 747 595 734 q 462 760 517 760 q 247 679 316 760 q 178 421 178 598 q 247 166 178 248 q 457 85 315 85 q 559 99 517 85 q 642 134 602 113 q 665 144 661 144 q 682 132 672 144 q 699 103 692 119 q 707 80 707 87 q 672 42 707 63 q 581 7 638 22 q 457 -7 524 -7 z "},"Ć":{"ha":747,"x_min":69,"x_max":707,"o":"m 69 0 m 457 -7 q 164 98 259 -7 q 69 422 69 202 q 459 852 69 852 q 570 840 516 852 q 656 810 623 828 q 690 777 690 793 q 683 749 690 766 q 666 720 675 732 q 649 707 656 707 q 630 715 646 707 q 556 747 595 734 q 462 760 517 760 q 247 679 316 760 q 178 421 178 598 q 247 166 178 248 q 457 85 315 85 q 559 99 517 85 q 642 134 602 113 q 665 144 661 144 q 682 132 672 144 q 699 103 692 119 q 707 80 707 87 q 672 42 707 63 q 581 7 638 22 q 457 -7 524 -7 m 407 919 q 379 930 379 919 q 391 962 379 939 q 450 1065 404 985 q 477 1088 459 1081 q 524 1096 495 1096 q 568 1093 555 1096 q 582 1080 582 1089 q 576 1065 582 1074 q 550 1034 571 1057 q 498 973 530 1010 l 469 940 q 443 924 459 930 q 407 919 427 919 z "},"Č":{"ha":747,"x_min":69,"x_max":707,"o":"m 69 0 m 457 -7 q 164 98 259 -7 q 69 422 69 202 q 459 852 69 852 q 570 840 516 852 q 656 810 623 828 q 690 777 690 793 q 683 749 690 766 q 666 720 675 732 q 649 707 656 707 q 630 715 646 707 q 556 747 595 734 q 462 760 517 760 q 247 679 316 760 q 178 421 178 598 q 247 166 178 248 q 457 85 315 85 q 559 99 517 85 q 642 134 602 113 q 665 144 661 144 q 682 132 672 144 q 699 103 692 119 q 707 80 707 87 q 672 42 707 63 q 581 7 638 22 q 457 -7 524 -7 m 412 914 q 357 941 376 914 l 290 1047 q 283 1069 283 1059 q 290 1081 283 1077 q 311 1086 297 1086 l 313 1086 q 353 1070 337 1086 l 427 981 l 503 1070 q 522 1082 512 1078 q 543 1086 531 1086 l 545 1086 q 567 1081 559 1086 q 574 1068 574 1076 q 567 1047 574 1059 l 498 941 q 443 914 479 914 l 412 914 z "},"Ç":{"ha":747,"x_min":69,"x_max":707,"o":"m 707 80 q 673 43 707 63 q 584 8 640 22 q 463 -7 528 -6 l 448 -59 l 452 -59 q 521 -77 487 -59 q 555 -146 555 -96 q 515 -231 555 -209 q 416 -254 475 -254 q 355 -247 388 -254 q 300 -229 322 -241 q 277 -201 277 -217 q 283 -179 277 -189 q 300 -170 288 -170 q 316 -174 307 -170 q 331 -178 326 -177 q 367 -190 351 -186 q 400 -194 382 -194 q 449 -186 429 -194 q 469 -153 469 -178 q 457 -123 469 -132 q 422 -106 445 -114 q 398 -96 406 -101 q 390 -82 390 -92 q 395 -58 390 -75 q 411 -5 399 -41 q 153 111 236 6 q 69 422 69 215 q 459 852 69 852 q 570 840 516 852 q 656 810 623 828 q 690 777 690 793 q 683 749 690 766 q 666 720 675 732 q 649 707 656 707 q 630 715 646 707 q 556 747 595 734 q 462 760 517 760 q 247 679 316 760 q 178 421 178 598 q 247 166 178 248 q 457 85 315 85 q 559 99 517 85 q 642 134 602 113 q 665 144 661 144 q 682 132 672 144 q 699 103 692 119 q 707 80 707 87 z "},"Ĉ":{"ha":747,"x_min":69,"x_max":707,"o":"m 69 0 m 457 -7 q 164 98 259 -7 q 69 422 69 202 q 459 852 69 852 q 570 840 516 852 q 656 810 623 828 q 690 777 690 793 q 683 749 690 766 q 666 720 675 732 q 649 707 656 707 q 630 715 646 707 q 556 747 595 734 q 462 760 517 760 q 247 679 316 760 q 178 421 178 598 q 247 166 178 248 q 457 85 315 85 q 559 99 517 85 q 642 134 602 113 q 665 144 661 144 q 682 132 672 144 q 699 103 692 119 q 707 80 707 87 q 672 42 707 63 q 581 7 638 22 q 457 -7 524 -7 m 310 907 q 282 924 282 907 q 290 946 282 932 l 357 1052 q 412 1078 374 1078 l 442 1078 q 498 1052 481 1078 l 567 946 q 574 926 574 935 q 545 907 574 907 l 543 907 q 522 911 531 907 q 503 924 512 915 l 427 1013 l 353 924 q 313 907 337 907 l 310 907 z "},"Ċ":{"ha":747,"x_min":69,"x_max":707,"o":"m 69 0 m 457 -7 q 164 98 259 -7 q 69 422 69 202 q 459 852 69 852 q 570 840 516 852 q 656 810 623 828 q 690 777 690 793 q 683 749 690 766 q 666 720 675 732 q 649 707 656 707 q 630 715 646 707 q 556 747 595 734 q 462 760 517 760 q 247 679 316 760 q 178 421 178 598 q 247 166 178 248 q 457 85 315 85 q 559 99 517 85 q 642 134 602 113 q 665 144 661 144 q 682 132 672 144 q 699 103 692 119 q 707 80 707 87 q 672 42 707 63 q 581 7 638 22 q 457 -7 524 -7 m 427 945 q 378 971 378 945 l 378 1033 q 391 1053 378 1045 q 431 1060 404 1060 q 479 1033 479 1060 l 479 971 q 427 945 479 945 z "},"D":{"ha":838,"x_min":117,"x_max":770,"o":"m 153 0 q 125 9 134 0 q 117 36 117 18 l 117 808 q 125 835 117 827 q 153 844 134 844 l 397 844 q 668 743 566 844 q 770 422 770 643 q 668 100 770 201 q 397 0 566 0 l 153 0 m 389 92 q 585 171 511 92 q 660 422 660 251 q 625 611 660 538 q 528 719 589 685 q 389 752 467 752 l 223 752 l 223 92 l 389 92 z "},"Ǳ":{"ha":1581,"x_min":117,"x_max":1527,"o":"m 117 0 m 153 0 q 125 9 134 0 q 117 36 117 18 l 117 808 q 125 835 117 827 q 153 844 134 844 l 397 844 q 668 743 566 844 q 770 422 770 643 q 668 100 770 201 q 397 0 566 0 l 153 0 m 389 92 q 585 171 511 92 q 660 422 660 251 q 625 611 660 538 q 528 719 589 685 q 389 752 467 752 l 223 752 l 223 92 l 389 92 m 913 0 q 894 23 904 0 q 884 64 884 45 q 888 79 884 73 l 1382 752 l 948 752 q 929 762 935 752 q 924 793 924 772 l 924 803 q 929 834 924 825 q 948 844 935 844 l 1500 844 q 1511 833 1504 844 q 1522 807 1517 822 q 1527 780 1527 792 q 1523 766 1527 771 l 1029 92 l 1500 92 q 1519 82 1513 92 q 1525 51 1525 73 l 1525 41 q 1519 10 1525 20 q 1500 0 1513 0 l 913 0 z "},"Ǆ":{"ha":1581,"x_min":117,"x_max":1527,"o":"m 117 0 m 153 0 q 125 9 134 0 q 117 36 117 18 l 117 808 q 125 835 117 827 q 153 844 134 844 l 397 844 q 668 743 566 844 q 770 422 770 643 q 668 100 770 201 q 397 0 566 0 l 153 0 m 389 92 q 585 171 511 92 q 660 422 660 251 q 625 611 660 538 q 528 719 589 685 q 389 752 467 752 l 223 752 l 223 92 l 389 92 m 913 0 q 894 23 904 0 q 884 64 884 45 q 888 79 884 73 l 1382 752 l 948 752 q 929 762 935 752 q 924 793 924 772 l 924 803 q 929 834 924 825 q 948 844 935 844 l 1500 844 q 1511 833 1504 844 q 1522 807 1517 822 q 1527 780 1527 792 q 1523 766 1527 771 l 1029 92 l 1500 92 q 1519 82 1513 92 q 1525 51 1525 73 l 1525 41 q 1519 10 1525 20 q 1500 0 1513 0 l 913 0 m 1194 914 q 1139 941 1158 914 l 1072 1047 q 1065 1069 1065 1059 q 1072 1081 1065 1077 q 1093 1086 1079 1086 l 1095 1086 q 1135 1070 1119 1086 l 1209 981 l 1284 1070 q 1303 1082 1294 1078 q 1325 1086 1313 1086 l 1327 1086 q 1349 1081 1341 1086 q 1356 1068 1356 1076 q 1349 1047 1356 1059 l 1280 941 q 1225 914 1261 914 l 1194 914 z "},"Ð":{"ha":839,"x_min":0,"x_max":773,"o":"m 139 0 q 112 9 120 0 q 103 36 103 18 l 103 387 l 24 387 q 6 395 12 387 q 0 422 0 403 l 0 441 q 6 469 0 460 q 24 477 12 477 l 103 477 l 103 808 q 112 836 103 827 q 139 844 120 844 l 398 844 q 591 802 507 844 q 724 666 675 760 q 773 422 773 572 q 670 100 773 201 q 398 0 568 0 l 139 0 m 390 92 q 530 125 469 92 q 627 233 591 159 q 663 422 663 307 q 627 611 663 538 q 530 719 591 685 q 390 752 469 752 l 208 752 l 208 477 l 341 477 q 360 469 354 477 q 366 441 366 460 l 366 422 q 360 395 366 403 q 341 387 354 387 l 208 387 l 208 92 l 390 92 z "},"Ď":{"ha":838,"x_min":117,"x_max":770,"o":"m 117 0 m 153 0 q 125 9 134 0 q 117 36 117 18 l 117 808 q 125 835 117 827 q 153 844 134 844 l 397 844 q 668 743 566 844 q 770 422 770 643 q 668 100 770 201 q 397 0 566 0 l 153 0 m 389 92 q 585 171 511 92 q 660 422 660 251 q 625 611 660 538 q 528 719 589 685 q 389 752 467 752 l 223 752 l 223 92 l 389 92 m 361 914 q 305 941 325 914 l 238 1047 q 231 1069 231 1059 q 238 1081 231 1077 q 259 1086 245 1086 l 261 1086 q 302 1070 286 1086 l 376 981 l 451 1070 q 470 1082 460 1078 q 492 1086 479 1086 l 494 1086 q 515 1081 507 1086 q 523 1068 523 1076 q 515 1047 523 1059 l 447 941 q 391 914 428 914 l 361 914 z "},"Đ":{"ha":839,"x_min":0,"x_max":773,"o":"m 0 0 m 139 0 q 112 9 120 0 q 103 36 103 18 l 103 387 l 24 387 q 6 395 12 387 q 0 422 0 403 l 0 441 q 6 469 0 460 q 24 477 12 477 l 103 477 l 103 808 q 112 836 103 827 q 139 844 120 844 l 398 844 q 591 802 507 844 q 724 666 675 760 q 773 422 773 572 q 670 100 773 201 q 398 0 568 0 l 139 0 m 390 92 q 530 125 469 92 q 627 233 591 159 q 663 422 663 307 q 627 611 663 538 q 530 719 591 685 q 390 752 469 752 l 208 752 l 208 477 l 341 477 q 360 469 354 477 q 366 441 366 460 l 366 422 q 360 395 366 403 q 341 387 354 387 l 208 387 l 208 92 l 390 92 z "},"Ḍ":{"ha":838,"x_min":117,"x_max":770,"o":"m 117 0 m 153 0 q 125 9 134 0 q 117 36 117 18 l 117 808 q 125 835 117 827 q 153 844 134 844 l 397 844 q 668 743 566 844 q 770 422 770 643 q 668 100 770 201 q 397 0 566 0 l 153 0 m 389 92 q 585 171 511 92 q 660 422 660 251 q 625 611 660 538 q 528 719 589 685 q 389 752 467 752 l 223 752 l 223 92 l 389 92 z "},"ǲ":{"ha":1428,"x_min":117,"x_max":1379,"o":"m 117 0 m 153 0 q 125 9 134 0 q 117 36 117 18 l 117 808 q 125 835 117 827 q 153 844 134 844 l 397 844 q 668 743 566 844 q 770 422 770 643 q 668 100 770 201 q 397 0 566 0 l 153 0 m 389 92 q 585 171 511 92 q 660 422 660 251 q 625 611 660 538 q 528 719 589 685 q 389 752 467 752 l 223 752 l 223 92 l 389 92 m 909 0 q 892 22 902 0 q 883 62 883 44 q 886 75 883 68 l 1240 544 l 931 544 q 913 552 918 544 q 907 580 907 561 l 907 595 q 913 622 907 614 q 931 631 918 631 l 1354 631 q 1371 608 1362 631 q 1379 568 1379 586 q 1376 555 1379 562 l 1024 87 l 1356 87 q 1374 78 1369 87 q 1379 51 1379 70 l 1379 36 q 1374 9 1379 18 q 1356 0 1369 0 l 909 0 z "},"ǅ":{"ha":1428,"x_min":117,"x_max":1379,"o":"m 117 0 m 153 0 q 125 9 134 0 q 117 36 117 18 l 117 808 q 125 835 117 827 q 153 844 134 844 l 397 844 q 668 743 566 844 q 770 422 770 643 q 668 100 770 201 q 397 0 566 0 l 153 0 m 389 92 q 585 171 511 92 q 660 422 660 251 q 625 611 660 538 q 528 719 589 685 q 389 752 467 752 l 223 752 l 223 92 l 389 92 m 909 0 q 892 22 902 0 q 883 62 883 44 q 886 75 883 68 l 1240 544 l 931 544 q 913 552 918 544 q 907 580 907 561 l 907 595 q 913 622 907 614 q 931 631 918 631 l 1354 631 q 1371 608 1362 631 q 1379 568 1379 586 q 1376 555 1379 562 l 1024 87 l 1356 87 q 1374 78 1369 87 q 1379 51 1379 70 l 1379 36 q 1374 9 1379 18 q 1356 0 1369 0 l 909 0 m 1118 701 q 1062 728 1082 701 l 995 834 q 988 857 988 846 q 995 868 988 864 q 1016 873 1002 873 l 1018 873 q 1059 857 1042 873 l 1133 768 l 1208 857 q 1227 869 1217 865 q 1249 873 1236 873 l 1251 873 q 1272 868 1264 873 q 1280 855 1280 863 q 1272 834 1280 846 l 1204 728 q 1148 701 1185 701 l 1118 701 z "},"E":{"ha":659,"x_min":117,"x_max":600,"o":"m 153 0 q 125 9 134 0 q 117 36 117 18 l 117 808 q 125 835 117 827 q 153 844 134 844 l 574 844 q 592 836 587 844 q 598 808 598 827 l 598 788 q 592 761 598 770 q 574 752 587 752 l 223 752 l 223 477 l 538 477 q 556 469 551 477 q 562 441 562 460 l 562 422 q 556 395 562 404 q 538 387 551 387 l 223 387 l 223 92 l 575 92 q 594 83 588 92 q 600 56 600 75 l 600 36 q 594 9 600 18 q 575 0 588 0 l 153 0 z "},"É":{"ha":659,"x_min":117,"x_max":600,"o":"m 117 0 m 153 0 q 125 9 134 0 q 117 36 117 18 l 117 808 q 125 835 117 827 q 153 844 134 844 l 574 844 q 592 836 587 844 q 598 808 598 827 l 598 788 q 592 761 598 770 q 574 752 587 752 l 223 752 l 223 477 l 538 477 q 556 469 551 477 q 562 441 562 460 l 562 422 q 556 395 562 404 q 538 387 551 387 l 223 387 l 223 92 l 575 92 q 594 83 588 92 q 600 56 600 75 l 600 36 q 594 9 600 18 q 575 0 588 0 l 153 0 m 336 919 q 309 930 309 919 q 321 962 309 939 q 379 1065 333 985 q 407 1088 389 1081 q 454 1096 425 1096 q 498 1093 484 1096 q 511 1080 511 1089 q 506 1065 511 1074 q 480 1034 500 1057 q 427 973 459 1010 l 398 940 q 372 924 389 930 q 336 919 356 919 z "},"Ĕ":{"ha":659,"x_min":117,"x_max":600,"o":"m 117 0 m 153 0 q 125 9 134 0 q 117 36 117 18 l 117 808 q 125 835 117 827 q 153 844 134 844 l 574 844 q 592 836 587 844 q 598 808 598 827 l 598 788 q 592 761 598 770 q 574 752 587 752 l 223 752 l 223 477 l 538 477 q 556 469 551 477 q 562 441 562 460 l 562 422 q 556 395 562 404 q 538 387 551 387 l 223 387 l 223 92 l 575 92 q 594 83 588 92 q 600 56 600 75 l 600 36 q 594 9 600 18 q 575 0 588 0 l 153 0 m 358 919 q 273 935 313 919 q 209 981 233 950 q 184 1057 184 1013 q 188 1070 184 1066 q 201 1075 192 1075 q 215 1072 212 1075 q 222 1059 219 1068 q 228 1045 226 1049 q 276 1009 241 1021 q 358 998 311 998 q 440 1009 406 998 q 487 1045 474 1021 l 493 1059 q 500 1072 496 1068 q 513 1075 504 1075 q 528 1070 524 1075 q 532 1057 532 1066 q 507 981 532 1013 q 443 935 482 950 q 358 919 403 919 z "},"Ě":{"ha":659,"x_min":117,"x_max":600,"o":"m 117 0 m 153 0 q 125 9 134 0 q 117 36 117 18 l 117 808 q 125 835 117 827 q 153 844 134 844 l 574 844 q 592 836 587 844 q 598 808 598 827 l 598 788 q 592 761 598 770 q 574 752 587 752 l 223 752 l 223 477 l 538 477 q 556 469 551 477 q 562 441 562 460 l 562 422 q 556 395 562 404 q 538 387 551 387 l 223 387 l 223 92 l 575 92 q 594 83 588 92 q 600 56 600 75 l 600 36 q 594 9 600 18 q 575 0 588 0 l 153 0 m 341 914 q 286 941 305 914 l 218 1047 q 212 1069 212 1059 q 219 1081 212 1077 q 239 1086 226 1086 l 241 1086 q 282 1070 266 1086 l 356 981 l 431 1070 q 450 1082 441 1078 q 472 1086 460 1086 l 474 1086 q 495 1081 488 1086 q 503 1068 503 1076 q 496 1047 503 1059 l 427 941 q 372 914 408 914 l 341 914 z "},"Ê":{"ha":659,"x_min":117,"x_max":600,"o":"m 117 0 m 153 0 q 125 9 134 0 q 117 36 117 18 l 117 808 q 125 835 117 827 q 153 844 134 844 l 574 844 q 592 836 587 844 q 598 808 598 827 l 598 788 q 592 761 598 770 q 574 752 587 752 l 223 752 l 223 477 l 538 477 q 556 469 551 477 q 562 441 562 460 l 562 422 q 556 395 562 404 q 538 387 551 387 l 223 387 l 223 92 l 575 92 q 594 83 588 92 q 600 56 600 75 l 600 36 q 594 9 600 18 q 575 0 588 0 l 153 0 m 239 907 q 211 924 211 907 q 218 946 211 932 l 286 1052 q 341 1078 303 1078 l 371 1078 q 427 1052 410 1078 l 496 946 q 503 926 503 935 q 474 907 503 907 l 471 907 q 450 911 460 907 q 431 924 441 915 l 356 1013 l 282 924 q 241 907 266 907 l 239 907 z "},"Ế":{"ha":659,"x_min":117,"x_max":647,"o":"m 515 994 q 493 996 500 994 q 487 1006 487 999 q 498 1036 487 1013 q 545 1127 509 1058 q 610 1158 562 1158 q 638 1155 630 1158 q 647 1143 647 1152 q 639 1124 647 1136 q 597 1067 631 1113 l 557 1015 q 515 994 542 994 m 243 907 q 216 924 216 907 q 223 946 216 932 l 290 1052 q 346 1078 308 1078 l 376 1078 q 420 1052 404 1078 l 482 946 q 490 926 490 935 q 460 907 490 907 l 458 907 q 435 911 446 907 q 418 924 424 916 l 361 1013 l 287 924 q 246 907 271 907 l 243 907 m 153 0 q 125 9 134 0 q 117 36 117 18 l 117 808 q 125 835 117 827 q 153 844 134 844 l 574 844 q 592 836 587 844 q 598 808 598 827 l 598 788 q 592 761 598 770 q 574 752 587 752 l 223 752 l 223 477 l 538 477 q 556 469 551 477 q 562 441 562 460 l 562 422 q 556 395 562 404 q 538 387 551 387 l 223 387 l 223 92 l 575 92 q 594 83 588 92 q 600 56 600 75 l 600 36 q 594 9 600 18 q 575 0 588 0 l 153 0 z "},"Ệ":{"ha":659,"x_min":117,"x_max":600,"o":"m 117 0 m 153 0 q 125 9 134 0 q 117 36 117 18 l 117 808 q 125 835 117 827 q 153 844 134 844 l 574 844 q 592 836 587 844 q 598 808 598 827 l 598 788 q 592 761 598 770 q 574 752 587 752 l 223 752 l 223 477 l 538 477 q 556 469 551 477 q 562 441 562 460 l 562 422 q 556 395 562 404 q 538 387 551 387 l 223 387 l 223 92 l 575 92 q 594 83 588 92 q 600 56 600 75 l 600 36 q 594 9 600 18 q 575 0 588 0 l 153 0 m 239 907 q 211 924 211 907 q 218 946 211 932 l 286 1052 q 341 1078 303 1078 l 371 1078 q 427 1052 410 1078 l 496 946 q 503 926 503 935 q 474 907 503 907 l 471 907 q 450 911 460 907 q 431 924 441 915 l 356 1013 l 282 924 q 241 907 266 907 l 239 907 z "},"Ề":{"ha":659,"x_min":117,"x_max":600,"o":"m 551 994 q 527 999 539 994 q 508 1015 515 1005 l 462 1086 q 435 1128 440 1120 q 431 1143 431 1137 q 439 1155 431 1152 q 473 1158 448 1158 q 509 1151 492 1158 q 533 1127 526 1143 q 569 1038 560 1063 q 578 1006 578 1014 q 572 996 578 999 q 551 994 566 994 m 243 907 q 216 924 216 907 q 223 946 216 932 l 290 1052 q 346 1078 308 1078 l 376 1078 q 420 1052 404 1078 l 482 946 q 490 926 490 935 q 460 907 490 907 l 458 907 q 435 911 446 907 q 418 924 424 916 l 361 1013 l 287 924 q 246 907 271 907 l 243 907 m 153 0 q 125 9 134 0 q 117 36 117 18 l 117 808 q 125 835 117 827 q 153 844 134 844 l 574 844 q 592 836 587 844 q 598 808 598 827 l 598 788 q 592 761 598 770 q 574 752 587 752 l 223 752 l 223 477 l 538 477 q 556 469 551 477 q 562 441 562 460 l 562 422 q 556 395 562 404 q 538 387 551 387 l 223 387 l 223 92 l 575 92 q 594 83 588 92 q 600 56 600 75 l 600 36 q 594 9 600 18 q 575 0 588 0 l 153 0 z "},"Ể":{"ha":659,"x_min":117,"x_max":623,"o":"m 531 995 q 500 1002 513 995 q 487 1018 487 1010 q 493 1030 487 1025 q 517 1045 500 1036 q 554 1090 554 1066 q 541 1114 554 1105 q 510 1122 528 1122 q 481 1119 492 1122 q 464 1111 471 1115 q 454 1106 456 1106 q 436 1121 447 1106 q 425 1146 425 1137 q 440 1162 425 1154 q 477 1175 454 1170 q 519 1180 499 1180 q 566 1172 543 1180 q 607 1145 590 1164 q 623 1098 623 1127 q 612 1055 623 1073 q 581 1021 600 1036 q 553 1003 569 1010 q 531 995 537 995 m 243 907 q 216 924 216 907 q 223 946 216 932 l 290 1052 q 346 1078 308 1078 l 376 1078 q 420 1052 404 1078 l 482 946 q 490 926 490 935 q 460 907 490 907 l 458 907 q 435 911 446 907 q 418 924 424 916 l 361 1013 l 287 924 q 246 907 271 907 l 243 907 m 153 0 q 125 9 134 0 q 117 36 117 18 l 117 808 q 125 835 117 827 q 153 844 134 844 l 574 844 q 592 836 587 844 q 598 808 598 827 l 598 788 q 592 761 598 770 q 574 752 587 752 l 223 752 l 223 477 l 538 477 q 556 469 551 477 q 562 441 562 460 l 562 422 q 556 395 562 404 q 538 387 551 387 l 223 387 l 223 92 l 575 92 q 594 83 588 92 q 600 56 600 75 l 600 36 q 594 9 600 18 q 575 0 588 0 l 153 0 z "},"Ễ":{"ha":659,"x_min":117,"x_max":600,"o":"m 174 1102 q 163 1116 163 1107 q 167 1132 163 1124 q 209 1196 184 1177 q 269 1215 233 1215 q 315 1208 291 1215 q 373 1187 338 1201 q 422 1169 402 1175 q 458 1163 441 1163 q 484 1171 473 1163 q 507 1198 495 1179 q 517 1212 512 1208 q 528 1216 522 1216 q 539 1213 532 1216 l 547 1209 q 558 1203 555 1206 q 561 1194 561 1200 q 556 1178 561 1187 q 515 1115 539 1134 q 456 1096 490 1096 q 409 1103 432 1096 q 347 1124 385 1109 q 297 1142 315 1137 q 262 1148 278 1148 q 238 1140 248 1148 q 216 1112 227 1131 q 206 1098 211 1102 q 196 1094 201 1094 q 185 1097 193 1094 l 174 1102 m 239 907 q 211 924 211 907 q 218 946 211 932 l 286 1023 q 312 1043 300 1037 q 341 1050 324 1050 l 371 1050 q 401 1043 388 1050 q 427 1023 414 1036 l 496 946 q 503 926 503 935 q 474 907 503 907 l 471 907 q 452 911 460 907 q 431 924 444 916 l 356 983 l 282 924 q 241 907 262 907 l 239 907 m 153 0 q 125 9 134 0 q 117 36 117 18 l 117 808 q 125 835 117 827 q 153 844 134 844 l 574 844 q 592 836 587 844 q 598 808 598 827 l 598 788 q 592 761 598 770 q 574 752 587 752 l 223 752 l 223 477 l 538 477 q 556 469 551 477 q 562 441 562 460 l 562 422 q 556 395 562 404 q 538 387 551 387 l 223 387 l 223 92 l 575 92 q 594 83 588 92 q 600 56 600 75 l 600 36 q 594 9 600 18 q 575 0 588 0 l 153 0 z "},"Ë":{"ha":659,"x_min":117,"x_max":600,"o":"m 117 0 m 153 0 q 125 9 134 0 q 117 36 117 18 l 117 808 q 125 835 117 827 q 153 844 134 844 l 574 844 q 592 836 587 844 q 598 808 598 827 l 598 788 q 592 761 598 770 q 574 752 587 752 l 223 752 l 223 477 l 538 477 q 556 469 551 477 q 562 441 562 460 l 562 422 q 556 395 562 404 q 538 387 551 387 l 223 387 l 223 92 l 575 92 q 594 83 588 92 q 600 56 600 75 l 600 36 q 594 9 600 18 q 575 0 588 0 l 153 0 m 269 945 q 220 971 220 945 l 220 1033 q 273 1060 220 1060 q 321 1033 321 1060 l 321 971 q 269 945 321 945 m 442 945 q 394 971 394 945 l 394 1033 q 447 1060 394 1060 q 495 1033 495 1060 l 495 971 q 442 945 495 945 z "},"Ė":{"ha":659,"x_min":117,"x_max":600,"o":"m 117 0 m 153 0 q 125 9 134 0 q 117 36 117 18 l 117 808 q 125 835 117 827 q 153 844 134 844 l 574 844 q 592 836 587 844 q 598 808 598 827 l 598 788 q 592 761 598 770 q 574 752 587 752 l 223 752 l 223 477 l 538 477 q 556 469 551 477 q 562 441 562 460 l 562 422 q 556 395 562 404 q 538 387 551 387 l 223 387 l 223 92 l 575 92 q 594 83 588 92 q 600 56 600 75 l 600 36 q 594 9 600 18 q 575 0 588 0 l 153 0 m 355 945 q 307 971 307 945 l 307 1033 q 319 1053 307 1045 q 360 1060 332 1060 q 408 1033 408 1060 l 408 971 q 355 945 408 945 z "},"Ẹ":{"ha":659,"x_min":117,"x_max":600,"o":"m 117 0 m 153 0 q 125 9 134 0 q 117 36 117 18 l 117 808 q 125 835 117 827 q 153 844 134 844 l 574 844 q 592 836 587 844 q 598 808 598 827 l 598 788 q 592 761 598 770 q 574 752 587 752 l 223 752 l 223 477 l 538 477 q 556 469 551 477 q 562 441 562 460 l 562 422 q 556 395 562 404 q 538 387 551 387 l 223 387 l 223 92 l 575 92 q 594 83 588 92 q 600 56 600 75 l 600 36 q 594 9 600 18 q 575 0 588 0 l 153 0 z "},"È":{"ha":659,"x_min":117,"x_max":600,"o":"m 117 0 m 153 0 q 125 9 134 0 q 117 36 117 18 l 117 808 q 125 835 117 827 q 153 844 134 844 l 574 844 q 592 836 587 844 q 598 808 598 827 l 598 788 q 592 761 598 770 q 574 752 587 752 l 223 752 l 223 477 l 538 477 q 556 469 551 477 q 562 441 562 460 l 562 422 q 556 395 562 404 q 538 387 551 387 l 223 387 l 223 92 l 575 92 q 594 83 588 92 q 600 56 600 75 l 600 36 q 594 9 600 18 q 575 0 588 0 l 153 0 m 390 919 q 355 924 371 919 q 329 940 339 930 l 280 996 q 225 1059 236 1046 q 215 1080 215 1072 q 229 1093 215 1089 q 273 1096 243 1096 q 320 1089 302 1096 q 348 1065 338 1082 q 405 963 392 988 q 418 930 418 939 q 411 922 418 924 q 390 919 405 919 z "},"Ẻ":{"ha":659,"x_min":117,"x_max":600,"o":"m 117 0 m 153 0 q 125 9 134 0 q 117 36 117 18 l 117 808 q 125 835 117 827 q 153 844 134 844 l 574 844 q 592 836 587 844 q 598 808 598 827 l 598 788 q 592 761 598 770 q 574 752 587 752 l 223 752 l 223 477 l 538 477 q 556 469 551 477 q 562 441 562 460 l 562 422 q 556 395 562 404 q 538 387 551 387 l 223 387 l 223 92 l 575 92 q 594 83 588 92 q 600 56 600 75 l 600 36 q 594 9 600 18 q 575 0 588 0 l 153 0 m 366 892 q 341 898 356 892 q 326 912 326 905 q 333 931 326 922 q 356 952 340 939 q 389 985 377 969 q 401 1023 401 1001 q 388 1047 401 1039 q 356 1055 376 1055 q 328 1052 338 1055 q 310 1044 317 1048 q 300 1040 302 1040 q 283 1056 294 1040 q 272 1080 272 1071 q 287 1097 272 1088 q 323 1111 301 1105 q 366 1117 345 1117 q 415 1109 390 1117 q 458 1082 440 1101 q 475 1032 475 1063 q 453 964 475 996 q 403 912 431 932 q 366 892 376 892 z "},"Ē":{"ha":659,"x_min":117,"x_max":600,"o":"m 117 0 m 153 0 q 125 9 134 0 q 117 36 117 18 l 117 808 q 125 835 117 827 q 153 844 134 844 l 574 844 q 592 836 587 844 q 598 808 598 827 l 598 788 q 592 761 598 770 q 574 752 587 752 l 223 752 l 223 477 l 538 477 q 556 469 551 477 q 562 441 562 460 l 562 422 q 556 395 562 404 q 538 387 551 387 l 223 387 l 223 92 l 575 92 q 594 83 588 92 q 600 56 600 75 l 600 36 q 594 9 600 18 q 575 0 588 0 l 153 0 m 223 951 q 204 960 210 951 q 199 987 199 968 l 199 999 q 204 1027 199 1018 q 223 1036 210 1036 l 492 1036 q 510 1027 505 1036 q 515 999 515 1018 l 515 987 q 510 959 515 968 q 492 951 505 951 l 223 951 z "},"Ę":{"ha":659,"x_min":117,"x_max":722,"o":"m 699 -125 q 722 -155 722 -125 q 696 -207 722 -193 q 623 -221 671 -221 q 510 -181 539 -221 q 481 -98 481 -142 q 487 -44 481 -72 q 511 0 493 -17 l 153 0 q 125 9 134 0 q 117 36 117 18 l 117 808 q 125 835 117 827 q 153 844 134 844 l 574 844 q 592 836 587 844 q 598 808 598 827 l 598 788 q 592 761 598 770 q 574 752 587 752 l 223 752 l 223 477 l 538 477 q 556 469 551 477 q 562 441 562 460 l 562 422 q 556 395 562 404 q 538 387 551 387 l 223 387 l 223 92 l 575 92 q 594 83 588 92 q 600 56 600 75 l 600 36 q 576 0 600 0 l 576 -1 q 570 -28 576 -10 q 561 -75 561 -60 q 583 -125 561 -113 q 636 -136 605 -136 q 666 -131 646 -136 q 699 -125 687 -125 z "},"Ẽ":{"ha":659,"x_min":117,"x_max":600,"o":"m 117 0 m 153 0 q 125 9 134 0 q 117 36 117 18 l 117 808 q 125 835 117 827 q 153 844 134 844 l 574 844 q 592 836 587 844 q 598 808 598 827 l 598 788 q 592 761 598 770 q 574 752 587 752 l 223 752 l 223 477 l 538 477 q 556 469 551 477 q 562 441 562 460 l 562 422 q 556 395 562 404 q 538 387 551 387 l 223 387 l 223 92 l 575 92 q 594 83 588 92 q 600 56 600 75 l 600 36 q 594 9 600 18 q 575 0 588 0 l 153 0 m 160 932 q 149 946 149 937 q 153 962 149 954 q 198 1026 172 1006 q 264 1045 225 1045 q 314 1038 288 1045 q 378 1017 340 1031 q 433 999 410 1005 q 473 993 455 993 q 502 1001 490 993 q 526 1028 513 1008 q 549 1046 538 1046 q 562 1042 553 1046 l 571 1039 q 582 1033 578 1036 q 585 1024 585 1029 q 580 1008 585 1017 q 534 945 561 964 q 470 926 507 926 q 418 933 444 926 q 350 954 392 940 q 296 972 317 966 q 257 978 275 978 q 231 969 242 978 q 206 941 219 961 q 195 928 200 932 q 184 924 191 924 q 172 927 180 924 l 160 932 z "},"F":{"ha":606,"x_min":117,"x_max":557,"o":"m 165 -2 q 117 24 117 -2 l 117 808 q 125 835 117 827 q 153 844 134 844 l 533 844 q 551 835 546 844 q 557 808 557 827 l 557 788 q 551 761 557 770 q 533 752 546 752 l 223 752 l 223 477 l 511 477 q 530 469 524 477 q 536 441 536 460 l 536 422 q 530 395 536 404 q 511 387 524 387 l 223 387 l 223 24 q 175 -2 223 -2 l 165 -2 z "},"G":{"ha":810,"x_min":69,"x_max":711,"o":"m 441 -7 q 164 98 259 -7 q 69 415 69 203 q 459 852 69 852 q 570 840 516 852 q 656 810 623 828 q 690 777 690 793 q 683 749 690 766 q 666 720 675 732 q 649 707 656 707 q 630 715 646 707 q 556 747 595 734 q 462 760 517 760 q 243 676 309 760 q 178 426 178 591 q 239 177 178 270 q 449 85 300 85 q 537 89 494 85 q 604 100 579 94 l 604 344 l 463 344 q 445 352 450 344 q 439 380 439 361 l 439 399 q 445 427 439 418 q 463 435 450 435 l 674 435 q 702 427 693 435 q 711 399 711 418 l 711 80 q 635 13 711 33 q 441 -7 559 -7 z "},"Ğ":{"ha":810,"x_min":69,"x_max":711,"o":"m 69 0 m 441 -7 q 164 98 259 -7 q 69 415 69 203 q 459 852 69 852 q 570 840 516 852 q 656 810 623 828 q 690 777 690 793 q 683 749 690 766 q 666 720 675 732 q 649 707 656 707 q 630 715 646 707 q 556 747 595 734 q 462 760 517 760 q 243 676 309 760 q 178 426 178 591 q 239 177 178 270 q 449 85 300 85 q 537 89 494 85 q 604 100 579 94 l 604 344 l 463 344 q 445 352 450 344 q 439 380 439 361 l 439 399 q 445 427 439 418 q 463 435 450 435 l 674 435 q 702 427 693 435 q 711 399 711 418 l 711 80 q 635 13 711 33 q 441 -7 559 -7 m 406 919 q 321 935 361 919 q 257 981 281 950 q 232 1057 232 1013 q 236 1070 232 1066 q 250 1075 240 1075 q 263 1072 260 1075 q 271 1059 267 1068 q 276 1045 274 1049 q 324 1009 289 1021 q 406 998 359 998 q 488 1009 454 998 q 535 1045 522 1021 l 541 1059 q 548 1072 545 1068 q 562 1075 552 1075 q 576 1070 572 1075 q 580 1057 580 1066 q 555 981 580 1013 q 491 935 530 950 q 406 919 451 919 z "},"Ĝ":{"ha":810,"x_min":69,"x_max":711,"o":"m 69 0 m 441 -7 q 164 98 259 -7 q 69 415 69 203 q 459 852 69 852 q 570 840 516 852 q 656 810 623 828 q 690 777 690 793 q 683 749 690 766 q 666 720 675 732 q 649 707 656 707 q 630 715 646 707 q 556 747 595 734 q 462 760 517 760 q 243 676 309 760 q 178 426 178 591 q 239 177 178 270 q 449 85 300 85 q 537 89 494 85 q 604 100 579 94 l 604 344 l 463 344 q 445 352 450 344 q 439 380 439 361 l 439 399 q 445 427 439 418 q 463 435 450 435 l 674 435 q 702 427 693 435 q 711 399 711 418 l 711 80 q 635 13 711 33 q 441 -7 559 -7 m 287 907 q 259 924 259 907 q 267 946 259 932 l 334 1052 q 389 1078 351 1078 l 419 1078 q 475 1052 458 1078 l 544 946 q 551 926 551 935 q 522 907 551 907 l 519 907 q 498 911 508 907 q 479 924 489 915 l 404 1013 l 330 924 q 290 907 314 907 l 287 907 z "},"Ģ":{"ha":810,"x_min":69,"x_max":711,"o":"m 69 0 m 441 -7 q 164 98 259 -7 q 69 415 69 203 q 459 852 69 852 q 570 840 516 852 q 656 810 623 828 q 690 777 690 793 q 683 749 690 766 q 666 720 675 732 q 649 707 656 707 q 630 715 646 707 q 556 747 595 734 q 462 760 517 760 q 243 676 309 760 q 178 426 178 591 q 239 177 178 270 q 449 85 300 85 q 537 89 494 85 q 604 100 579 94 l 604 344 l 463 344 q 445 352 450 344 q 439 380 439 361 l 439 399 q 445 427 439 418 q 463 435 450 435 l 674 435 q 702 427 693 435 q 711 399 711 418 l 711 80 q 635 13 711 33 q 441 -7 559 -7 m 395 -283 q 371 -279 382 -283 q 361 -265 361 -275 q 364 -250 361 -258 q 376 -228 368 -241 q 402 -168 392 -197 q 412 -100 412 -139 q 424 -72 412 -83 q 460 -62 437 -62 l 471 -62 q 507 -71 494 -62 q 519 -96 519 -80 q 498 -192 519 -149 q 447 -259 476 -235 q 395 -283 417 -283 z "},"Ġ":{"ha":810,"x_min":69,"x_max":711,"o":"m 69 0 m 441 -7 q 164 98 259 -7 q 69 415 69 203 q 459 852 69 852 q 570 840 516 852 q 656 810 623 828 q 690 777 690 793 q 683 749 690 766 q 666 720 675 732 q 649 707 656 707 q 630 715 646 707 q 556 747 595 734 q 462 760 517 760 q 243 676 309 760 q 178 426 178 591 q 239 177 178 270 q 449 85 300 85 q 537 89 494 85 q 604 100 579 94 l 604 344 l 463 344 q 445 352 450 344 q 439 380 439 361 l 439 399 q 445 427 439 418 q 463 435 450 435 l 674 435 q 702 427 693 435 q 711 399 711 418 l 711 80 q 635 13 711 33 q 441 -7 559 -7 m 404 945 q 355 971 355 945 l 355 1033 q 368 1053 355 1045 q 408 1060 380 1060 q 456 1033 456 1060 l 456 971 q 404 945 456 945 z "},"H":{"ha":884,"x_min":117,"x_max":766,"o":"m 165 -2 q 117 24 117 -2 l 117 820 q 165 847 117 847 l 175 847 q 223 820 223 847 l 223 479 l 660 479 l 660 820 q 708 847 660 847 l 718 847 q 766 820 766 847 l 766 24 q 754 4 766 11 q 718 -2 743 -2 l 708 -2 q 671 4 683 -2 q 660 24 660 11 l 660 387 l 223 387 l 223 24 q 175 -2 223 -2 l 165 -2 z "},"Ħ":{"ha":884,"x_min":64,"x_max":816,"o":"m 791 677 q 810 668 804 677 q 816 641 816 660 l 816 629 q 810 601 816 610 q 791 593 804 593 l 766 593 l 766 24 q 754 4 766 11 q 718 -2 743 -2 l 708 -2 q 671 4 683 -2 q 660 24 660 11 l 660 387 l 223 387 l 223 24 q 175 -2 223 -2 l 165 -2 q 117 24 117 -2 l 117 593 l 89 593 q 70 601 76 593 q 64 629 64 609 l 64 641 q 70 669 64 661 q 89 677 76 677 l 117 677 l 117 820 q 165 847 117 847 l 175 847 q 223 820 223 847 l 223 677 l 660 677 l 660 820 q 708 847 660 847 l 718 847 q 766 820 766 847 l 766 677 l 791 677 m 660 593 l 223 593 l 223 479 l 660 479 l 660 593 z "},"Ĥ":{"ha":884,"x_min":117,"x_max":766,"o":"m 117 0 m 165 -2 q 117 24 117 -2 l 117 820 q 165 847 117 847 l 175 847 q 223 820 223 847 l 223 479 l 660 479 l 660 820 q 708 847 660 847 l 718 847 q 766 820 766 847 l 766 24 q 754 4 766 11 q 718 -2 743 -2 l 708 -2 q 671 4 683 -2 q 660 24 660 11 l 660 387 l 223 387 l 223 24 q 175 -2 223 -2 l 165 -2 m 324 907 q 296 924 296 907 q 304 946 296 932 l 371 1052 q 427 1078 389 1078 l 456 1078 q 512 1052 495 1078 l 581 946 q 589 926 589 935 q 559 907 589 907 l 557 907 q 536 911 545 907 q 517 924 526 915 l 441 1013 l 368 924 q 327 907 351 907 l 324 907 z "},"Ḥ":{"ha":884,"x_min":117,"x_max":766,"o":"m 117 0 m 165 -2 q 117 24 117 -2 l 117 820 q 165 847 117 847 l 175 847 q 223 820 223 847 l 223 479 l 660 479 l 660 820 q 708 847 660 847 l 718 847 q 766 820 766 847 l 766 24 q 754 4 766 11 q 718 -2 743 -2 l 708 -2 q 671 4 683 -2 q 660 24 660 11 l 660 387 l 223 387 l 223 24 q 175 -2 223 -2 l 165 -2 z "},"I":{"ha":340,"x_min":117,"x_max":223,"o":"m 165 -2 q 117 24 117 -2 l 117 820 q 165 847 117 847 l 175 847 q 223 820 223 847 l 223 24 q 175 -2 223 -2 l 165 -2 z "},"Ĳ":{"ha":825,"x_min":117,"x_max":726,"o":"m 117 0 m 165 -2 q 117 24 117 -2 l 117 820 q 165 847 117 847 l 175 847 q 223 820 223 847 l 223 24 q 175 -2 223 -2 l 165 -2 m 470 -7 q 385 1 422 -7 q 347 31 347 9 q 351 53 347 36 q 360 84 354 70 q 374 98 366 98 q 389 96 376 98 q 420 89 407 92 q 450 87 433 87 q 579 122 540 87 q 619 235 619 157 l 619 820 q 667 847 619 847 l 677 847 q 726 820 726 847 l 726 248 q 664 60 726 127 q 470 -7 603 -7 z "},"Í":{"ha":340,"x_min":117,"x_max":324,"o":"m 117 0 m 165 -2 q 117 24 117 -2 l 117 820 q 165 847 117 847 l 175 847 q 223 820 223 847 l 223 24 q 175 -2 223 -2 l 165 -2 m 149 919 q 121 930 121 919 q 134 962 121 939 q 192 1065 146 985 q 219 1088 201 1081 q 267 1096 237 1096 q 311 1093 297 1096 q 324 1080 324 1089 q 319 1065 324 1074 q 293 1034 313 1057 q 240 973 272 1010 l 211 940 q 185 924 201 930 q 149 919 169 919 z "},"Ĭ":{"ha":340,"x_min":-3,"x_max":345,"o":"m 0 0 m 165 -2 q 117 24 117 -2 l 117 820 q 165 847 117 847 l 175 847 q 223 820 223 847 l 223 24 q 175 -2 223 -2 l 165 -2 m 171 919 q 86 935 125 919 q 21 981 46 950 q -3 1057 -3 1013 q 1 1070 -3 1066 q 14 1075 5 1075 q 28 1072 24 1075 q 35 1059 32 1068 q 41 1045 39 1049 q 89 1009 54 1021 q 171 998 123 998 q 253 1009 218 998 q 300 1045 287 1021 l 306 1059 q 313 1072 309 1068 q 326 1075 317 1075 q 340 1070 336 1075 q 345 1057 345 1066 q 320 981 345 1013 q 255 935 295 950 q 171 919 216 919 z "},"Î":{"ha":340,"x_min":24,"x_max":316,"o":"m 24 0 m 165 -2 q 117 24 117 -2 l 117 820 q 165 847 117 847 l 175 847 q 223 820 223 847 l 223 24 q 175 -2 223 -2 l 165 -2 m 52 907 q 24 924 24 907 q 31 946 24 932 l 98 1052 q 154 1078 116 1078 l 184 1078 q 239 1052 222 1078 l 309 946 q 316 926 316 935 q 287 907 316 907 l 284 907 q 263 911 273 907 q 244 924 254 915 l 169 1013 l 95 924 q 54 907 79 907 l 52 907 z "},"Ï":{"ha":340,"x_min":33,"x_max":308,"o":"m 33 0 m 165 -2 q 117 24 117 -2 l 117 820 q 165 847 117 847 l 175 847 q 223 820 223 847 l 223 24 q 175 -2 223 -2 l 165 -2 m 81 945 q 33 971 33 945 l 33 1033 q 86 1060 33 1060 q 134 1033 134 1060 l 134 971 q 81 945 134 945 m 255 945 q 207 971 207 945 l 207 1033 q 260 1060 207 1060 q 308 1033 308 1060 l 308 971 q 255 945 308 945 z "},"İ":{"ha":340,"x_min":117,"x_max":223,"o":"m 117 0 m 165 -2 q 117 24 117 -2 l 117 820 q 165 847 117 847 l 175 847 q 223 820 223 847 l 223 24 q 175 -2 223 -2 l 165 -2 m 168 945 q 119 971 119 945 l 119 1033 q 132 1053 119 1045 q 173 1060 145 1060 q 221 1033 221 1060 l 221 971 q 168 945 221 945 z "},"Ị":{"ha":340,"x_min":117,"x_max":223,"o":"m 117 0 m 165 -2 q 117 24 117 -2 l 117 820 q 165 847 117 847 l 175 847 q 223 820 223 847 l 223 24 q 175 -2 223 -2 l 165 -2 z "},"Ì":{"ha":340,"x_min":28,"x_max":231,"o":"m 28 0 m 165 -2 q 117 24 117 -2 l 117 820 q 165 847 117 847 l 175 847 q 223 820 223 847 l 223 24 q 175 -2 223 -2 l 165 -2 m 203 919 q 168 924 184 919 q 142 940 152 930 l 93 996 q 38 1059 49 1046 q 28 1080 28 1072 q 42 1093 28 1089 q 86 1096 56 1096 q 133 1089 115 1096 q 161 1065 151 1082 q 218 963 205 988 q 231 930 231 939 q 224 922 231 924 q 203 919 218 919 z "},"Ỉ":{"ha":340,"x_min":85,"x_max":288,"o":"m 85 0 m 165 -2 q 117 24 117 -2 l 117 820 q 165 847 117 847 l 175 847 q 223 820 223 847 l 223 24 q 175 -2 223 -2 l 165 -2 m 179 892 q 154 898 169 892 q 139 912 139 905 q 146 931 139 922 q 169 952 153 939 q 202 985 190 969 q 214 1023 214 1001 q 201 1047 214 1039 q 169 1055 189 1055 q 140 1052 151 1055 q 122 1044 130 1048 q 113 1040 115 1040 q 96 1056 106 1040 q 85 1080 85 1071 q 99 1097 85 1088 q 136 1111 114 1105 q 179 1117 158 1117 q 228 1109 203 1117 q 271 1082 253 1101 q 288 1032 288 1063 q 266 964 288 996 q 216 912 243 932 q 179 892 189 892 z "},"Ī":{"ha":340,"x_min":12,"x_max":328,"o":"m 12 0 m 165 -2 q 117 24 117 -2 l 117 820 q 165 847 117 847 l 175 847 q 223 820 223 847 l 223 24 q 175 -2 223 -2 l 165 -2 m 36 951 q 17 960 23 951 q 12 987 12 968 l 12 999 q 17 1027 12 1018 q 36 1036 23 1036 l 305 1036 q 323 1027 317 1036 q 328 999 328 1018 l 328 987 q 323 959 328 968 q 305 951 317 951 l 36 951 z "},"Į":{"ha":340,"x_min":106,"x_max":347,"o":"m 323 -125 q 347 -155 347 -125 q 321 -207 347 -193 q 248 -221 296 -221 q 135 -181 164 -221 q 106 -98 106 -142 q 112 -43 106 -71 q 136 1 119 -16 q 117 24 117 7 l 117 820 q 165 847 117 847 l 175 847 q 223 820 223 847 l 223 24 q 201 1 223 6 l 201 -1 q 195 -28 201 -10 q 186 -75 186 -60 q 208 -125 186 -113 q 261 -136 230 -136 q 291 -131 271 -136 q 323 -125 312 -125 z "},"Ĩ":{"ha":340,"x_min":117,"x_max":223,"o":"m 175 847 q 223 820 223 847 l 223 24 q 175 -2 223 -2 l 165 -2 q 117 24 117 -2 l 117 820 q 165 847 117 847 l 175 847 z "},"J":{"ha":485,"x_min":7,"x_max":385,"o":"m 130 -7 q 44 1 82 -7 q 7 31 7 9 q 10 53 7 36 q 19 84 14 70 q 34 98 25 98 q 49 96 35 98 q 80 89 66 92 q 110 87 93 87 q 239 122 199 87 q 279 235 279 157 l 279 820 q 327 847 279 847 l 336 847 q 385 820 385 847 l 385 248 q 324 60 385 127 q 130 -7 262 -7 z "},"Ĵ":{"ha":485,"x_min":7,"x_max":473,"o":"m 7 0 m 130 -7 q 44 1 82 -7 q 7 31 7 9 q 10 53 7 36 q 19 84 14 70 q 34 98 25 98 q 49 96 35 98 q 80 89 66 92 q 110 87 93 87 q 239 122 199 87 q 279 235 279 157 l 279 820 q 327 847 279 847 l 336 847 q 385 820 385 847 l 385 248 q 324 60 385 127 q 130 -7 262 -7 m 208 907 q 180 924 180 907 q 188 946 180 932 l 255 1052 q 311 1078 273 1078 l 340 1078 q 396 1052 379 1078 l 465 946 q 473 926 473 935 q 444 907 473 907 l 441 907 q 420 911 429 907 q 401 924 410 915 l 326 1013 l 252 924 q 211 907 235 907 l 208 907 z "},"K":{"ha":694,"x_min":117,"x_max":707,"o":"m 165 -2 q 117 24 117 -2 l 117 820 q 165 847 117 847 l 175 847 q 223 820 223 847 l 223 451 l 228 451 l 524 829 q 550 843 532 838 q 590 847 568 847 l 602 847 q 633 842 622 847 q 644 831 644 838 q 632 806 644 820 l 331 431 l 696 34 q 707 15 707 22 q 695 1 707 5 q 654 -2 683 -2 l 639 -2 q 598 1 613 -2 q 573 14 583 3 l 228 401 l 223 401 l 223 24 q 175 -2 223 -2 l 165 -2 z "},"Ķ":{"ha":694,"x_min":117,"x_max":707,"o":"m 117 0 m 165 -2 q 117 24 117 -2 l 117 820 q 165 847 117 847 l 175 847 q 223 820 223 847 l 223 451 l 228 451 l 524 829 q 550 843 532 838 q 590 847 568 847 l 602 847 q 633 842 622 847 q 644 831 644 838 q 632 806 644 820 l 331 431 l 696 34 q 707 15 707 22 q 695 1 707 5 q 654 -2 683 -2 l 639 -2 q 598 1 613 -2 q 573 14 583 3 l 228 401 l 223 401 l 223 24 q 175 -2 223 -2 l 165 -2 m 276 -283 q 252 -279 262 -283 q 241 -265 241 -275 q 245 -250 241 -258 q 256 -228 248 -241 q 282 -168 273 -197 q 292 -100 292 -139 q 305 -72 292 -83 q 341 -62 317 -62 l 352 -62 q 387 -71 374 -62 q 400 -96 400 -80 q 378 -192 400 -149 q 327 -259 357 -235 q 276 -283 298 -283 z "},"L":{"ha":583,"x_min":117,"x_max":578,"o":"m 153 0 q 125 9 134 0 q 117 36 117 18 l 117 820 q 165 847 117 847 l 175 847 q 223 820 223 847 l 223 92 l 555 92 q 573 83 568 92 q 578 56 578 75 l 578 36 q 573 9 578 18 q 555 0 568 0 l 153 0 z "},"Ǉ":{"ha":865,"x_min":117,"x_max":764,"o":"m 153 0 q 125 9 134 0 q 117 36 117 18 l 117 820 q 165 847 117 847 l 175 847 q 223 820 223 847 l 223 92 l 470 92 q 489 83 483 92 q 494 56 494 75 l 494 36 q 489 9 494 18 q 470 0 483 0 l 153 0 m 508 -189 q 424 -180 461 -189 q 387 -149 387 -172 q 390 -127 387 -144 q 398 -97 393 -111 q 413 -83 404 -83 q 429 -86 414 -83 q 456 -91 440 -89 q 488 -94 472 -94 q 617 -59 578 -94 q 657 54 657 -24 l 657 820 q 706 847 657 847 l 715 847 q 764 820 764 847 l 764 66 q 702 -121 764 -54 q 508 -189 641 -189 z "},"Ĺ":{"ha":583,"x_min":117,"x_max":578,"o":"m 117 0 m 153 0 q 125 9 134 0 q 117 36 117 18 l 117 820 q 165 847 117 847 l 175 847 q 223 820 223 847 l 223 92 l 555 92 q 573 83 568 92 q 578 56 578 75 l 578 36 q 573 9 578 18 q 555 0 568 0 l 153 0 m 154 922 q 126 934 126 922 q 138 965 126 942 q 197 1068 151 988 q 224 1092 206 1084 q 271 1099 242 1099 q 315 1096 302 1099 q 329 1083 329 1093 q 323 1069 329 1077 q 297 1037 318 1061 q 245 977 277 1013 l 216 943 q 190 928 206 933 q 154 922 174 922 z "},"Ľ":{"ha":583,"x_min":117,"x_max":578,"o":"m 117 0 m 153 0 q 125 9 134 0 q 117 36 117 18 l 117 820 q 165 847 117 847 l 175 847 q 223 820 223 847 l 223 92 l 555 92 q 573 83 568 92 q 578 56 578 75 l 578 36 q 573 9 578 18 q 555 0 568 0 l 153 0 m 390 634 q 366 638 376 634 q 355 652 355 642 q 359 687 355 662 q 368 745 365 721 q 370 806 370 770 q 382 833 370 823 q 418 844 395 844 l 429 844 q 465 835 452 844 q 477 810 477 826 q 462 720 477 760 q 426 657 447 680 q 390 634 406 634 z "},"Ļ":{"ha":583,"x_min":117,"x_max":578,"o":"m 117 0 m 153 0 q 125 9 134 0 q 117 36 117 18 l 117 820 q 165 847 117 847 l 175 847 q 223 820 223 847 l 223 92 l 555 92 q 573 83 568 92 q 578 56 578 75 l 578 36 q 573 9 578 18 q 555 0 568 0 l 153 0 m 269 -283 q 245 -279 256 -283 q 235 -265 235 -275 q 238 -250 235 -258 q 250 -228 241 -241 q 276 -168 266 -197 q 286 -100 286 -139 q 298 -72 286 -83 q 334 -62 311 -62 l 345 -62 q 380 -71 368 -62 q 393 -96 393 -80 q 372 -192 393 -149 q 320 -259 350 -235 q 269 -283 291 -283 z "},"Ŀ":{"ha":583,"x_min":117,"x_max":578,"o":"m 117 0 m 153 0 q 125 9 134 0 q 117 36 117 18 l 117 820 q 165 847 117 847 l 175 847 q 223 820 223 847 l 223 92 l 555 92 q 573 83 568 92 q 578 56 578 75 l 578 36 q 573 9 578 18 q 555 0 568 0 l 153 0 m 363 372 q 319 390 337 372 q 302 434 302 408 q 319 478 302 460 q 363 496 337 496 q 408 478 389 496 q 426 434 426 460 q 408 390 426 408 q 363 372 389 372 z "},"ǈ":{"ha":916,"x_min":117,"x_max":811,"o":"m 117 0 m 153 0 q 125 9 134 0 q 117 36 117 18 l 117 820 q 165 847 117 847 l 175 847 q 223 820 223 847 l 223 92 l 555 92 q 573 83 568 92 q 578 56 578 75 l 578 36 q 573 9 578 18 q 555 0 568 0 l 153 0 m 749 783 q 700 809 700 783 l 700 880 q 749 907 700 907 l 763 907 q 811 880 811 907 l 811 809 q 763 783 811 783 l 749 783 m 651 -256 q 562 -220 562 -256 q 565 -199 562 -213 q 574 -174 568 -185 q 588 -163 581 -163 q 605 -166 592 -163 q 640 -169 618 -169 q 687 -150 670 -169 q 705 -80 705 -130 l 705 606 q 753 633 705 633 l 758 633 q 806 606 806 633 l 806 -89 q 759 -219 806 -182 q 651 -256 711 -256 z "},"Ł":{"ha":587,"x_min":-2,"x_max":583,"o":"m 139 0 q 112 9 120 0 q 103 36 103 18 l 103 420 l 21 372 q 9 367 16 367 q -2 383 -2 367 l -2 391 q 21 427 -2 414 l 103 475 l 103 820 q 151 847 103 847 l 161 847 q 208 820 208 847 l 208 539 l 339 616 q 351 621 347 621 q 359 616 356 621 q 362 604 362 612 l 362 597 q 339 561 362 574 l 208 484 l 208 92 l 560 92 q 578 83 572 92 q 583 56 583 75 l 583 36 q 578 9 583 18 q 560 0 572 0 l 139 0 z "},"M":{"ha":1016,"x_min":109,"x_max":908,"o":"m 157 -2 q 120 4 132 -2 q 109 24 109 11 l 109 820 q 157 847 109 847 l 200 847 q 251 825 240 847 l 479 429 l 510 353 l 541 422 l 770 825 q 820 847 781 847 l 860 847 q 908 820 908 847 l 908 24 q 860 -2 908 -2 l 852 -2 q 814 4 826 -2 q 803 24 803 11 l 803 673 l 801 668 l 561 251 q 550 239 556 243 q 534 235 544 235 l 486 235 q 459 251 468 235 l 214 680 l 214 24 q 165 -2 214 -2 l 157 -2 z "},"N":{"ha":867,"x_min":109,"x_max":758,"o":"m 157 -2 q 120 4 132 -2 q 109 24 109 11 l 109 820 q 157 847 109 847 l 182 847 q 213 842 201 847 q 233 824 224 836 l 618 243 l 654 175 l 654 820 q 701 847 654 847 l 711 847 q 758 820 758 847 l 758 24 q 747 4 758 11 q 711 -2 735 -2 l 686 -2 q 659 2 669 -2 q 644 15 649 6 l 246 614 l 214 677 l 214 24 q 165 -2 214 -2 l 157 -2 z "},"Ǌ":{"ha":1352,"x_min":109,"x_max":1252,"o":"m 109 0 m 157 -2 q 120 4 132 -2 q 109 24 109 11 l 109 820 q 157 847 109 847 l 182 847 q 213 842 201 847 q 233 824 224 836 l 618 243 l 654 175 l 654 820 q 701 847 654 847 l 711 847 q 758 820 758 847 l 758 24 q 747 4 758 11 q 711 -2 735 -2 l 686 -2 q 659 2 669 -2 q 644 15 649 6 l 246 614 l 214 677 l 214 24 q 165 -2 214 -2 l 157 -2 m 996 -7 q 911 1 949 -7 q 873 31 873 9 q 877 53 873 36 q 886 84 880 70 q 901 98 892 98 q 916 96 902 98 q 946 89 933 92 q 977 87 960 87 q 1106 122 1066 87 q 1145 235 1145 157 l 1145 820 q 1194 847 1145 847 l 1203 847 q 1252 820 1252 847 l 1252 248 q 1191 60 1252 127 q 996 -7 1129 -7 z "},"Ń":{"ha":867,"x_min":109,"x_max":758,"o":"m 109 0 m 157 -2 q 120 4 132 -2 q 109 24 109 11 l 109 820 q 157 847 109 847 l 182 847 q 213 842 201 847 q 233 824 224 836 l 618 243 l 654 175 l 654 820 q 701 847 654 847 l 711 847 q 758 820 758 847 l 758 24 q 747 4 758 11 q 711 -2 735 -2 l 686 -2 q 659 2 669 -2 q 644 15 649 6 l 246 614 l 214 677 l 214 24 q 165 -2 214 -2 l 157 -2 m 413 919 q 385 930 385 919 q 397 962 385 939 q 456 1065 410 985 q 483 1088 465 1081 q 530 1096 501 1096 q 574 1093 561 1096 q 588 1080 588 1089 q 583 1065 588 1074 q 556 1034 577 1057 q 504 973 536 1010 l 475 940 q 449 924 465 930 q 413 919 433 919 z "},"Ň":{"ha":867,"x_min":109,"x_max":758,"o":"m 109 0 m 157 -2 q 120 4 132 -2 q 109 24 109 11 l 109 820 q 157 847 109 847 l 182 847 q 213 842 201 847 q 233 824 224 836 l 618 243 l 654 175 l 654 820 q 701 847 654 847 l 711 847 q 758 820 758 847 l 758 24 q 747 4 758 11 q 711 -2 735 -2 l 686 -2 q 659 2 669 -2 q 644 15 649 6 l 246 614 l 214 677 l 214 24 q 165 -2 214 -2 l 157 -2 m 418 914 q 363 941 382 914 l 296 1047 q 289 1069 289 1059 q 296 1081 289 1077 q 317 1086 303 1086 l 319 1086 q 359 1070 343 1086 l 433 981 l 509 1070 q 528 1082 518 1078 q 549 1086 537 1086 l 551 1086 q 573 1081 565 1086 q 581 1068 581 1076 q 573 1047 581 1059 l 505 941 q 449 914 486 914 l 418 914 z "},"Ņ":{"ha":867,"x_min":109,"x_max":758,"o":"m 109 0 m 157 -2 q 120 4 132 -2 q 109 24 109 11 l 109 820 q 157 847 109 847 l 182 847 q 213 842 201 847 q 233 824 224 836 l 618 243 l 654 175 l 654 820 q 701 847 654 847 l 711 847 q 758 820 758 847 l 758 24 q 747 4 758 11 q 711 -2 735 -2 l 686 -2 q 659 2 669 -2 q 644 15 649 6 l 246 614 l 214 677 l 214 24 q 165 -2 214 -2 l 157 -2 m 363 -283 q 339 -279 349 -283 q 328 -265 328 -275 q 332 -250 328 -258 q 343 -228 335 -241 q 369 -168 359 -197 q 379 -100 379 -139 q 392 -72 379 -83 q 428 -62 404 -62 l 439 -62 q 474 -71 461 -62 q 487 -96 487 -80 q 465 -192 487 -149 q 414 -259 444 -235 q 363 -283 385 -283 z "},"Ṅ":{"ha":867,"x_min":109,"x_max":758,"o":"m 109 0 m 157 -2 q 120 4 132 -2 q 109 24 109 11 l 109 820 q 157 847 109 847 l 182 847 q 213 842 201 847 q 233 824 224 836 l 618 243 l 654 175 l 654 820 q 701 847 654 847 l 711 847 q 758 820 758 847 l 758 24 q 747 4 758 11 q 711 -2 735 -2 l 686 -2 q 659 2 669 -2 q 644 15 649 6 l 246 614 l 214 677 l 214 24 q 165 -2 214 -2 l 157 -2 m 433 945 q 384 971 384 945 l 384 1033 q 397 1053 384 1045 q 437 1060 410 1060 q 486 1033 486 1060 l 486 971 q 433 945 486 945 z "},"Ŋ":{"ha":867,"x_min":109,"x_max":758,"o":"m 711 847 q 758 820 758 847 l 758 -89 q 711 -219 758 -182 q 603 -256 663 -256 q 515 -220 515 -256 q 518 -199 515 -213 q 527 -174 521 -185 q 540 -163 532 -163 q 557 -166 544 -163 q 592 -169 570 -169 q 639 -150 622 -169 q 656 -80 656 -130 l 656 -4 l 246 614 l 214 677 l 214 24 q 165 -2 214 -2 l 157 -2 q 120 4 132 -2 q 109 24 109 11 l 109 820 q 157 847 109 847 l 182 847 q 213 842 201 847 q 233 824 224 836 l 618 243 l 654 175 l 654 820 q 701 847 654 847 l 711 847 z "},"ǋ":{"ha":1200,"x_min":109,"x_max":1095,"o":"m 109 0 m 157 -2 q 120 4 132 -2 q 109 24 109 11 l 109 820 q 157 847 109 847 l 182 847 q 213 842 201 847 q 233 824 224 836 l 618 243 l 654 175 l 654 820 q 701 847 654 847 l 711 847 q 758 820 758 847 l 758 24 q 747 4 758 11 q 711 -2 735 -2 l 686 -2 q 659 2 669 -2 q 644 15 649 6 l 246 614 l 214 677 l 214 24 q 165 -2 214 -2 l 157 -2 m 1032 783 q 983 809 983 783 l 983 880 q 1032 907 983 907 l 1046 907 q 1095 880 1095 907 l 1095 809 q 1046 783 1095 783 l 1032 783 m 935 -256 q 846 -220 846 -256 q 849 -199 846 -213 q 858 -174 852 -185 q 871 -163 864 -163 q 888 -166 876 -163 q 924 -169 901 -169 q 971 -150 954 -169 q 988 -80 988 -130 l 988 606 q 1037 633 988 633 l 1042 633 q 1090 606 1090 633 l 1090 -89 q 1042 -219 1090 -182 q 935 -256 995 -256 z "},"Ñ":{"ha":867,"x_min":109,"x_max":758,"o":"m 109 0 m 157 -2 q 120 4 132 -2 q 109 24 109 11 l 109 820 q 157 847 109 847 l 182 847 q 213 842 201 847 q 233 824 224 836 l 618 243 l 654 175 l 654 820 q 701 847 654 847 l 711 847 q 758 820 758 847 l 758 24 q 747 4 758 11 q 711 -2 735 -2 l 686 -2 q 659 2 669 -2 q 644 15 649 6 l 246 614 l 214 677 l 214 24 q 165 -2 214 -2 l 157 -2 m 237 932 q 226 946 226 937 q 230 962 226 954 q 276 1026 249 1006 q 341 1045 302 1045 q 391 1038 366 1045 q 456 1017 417 1031 q 510 999 488 1005 q 551 993 532 993 q 579 1001 567 993 q 603 1028 591 1008 q 627 1046 615 1046 q 639 1042 631 1046 l 648 1039 q 659 1033 656 1036 q 663 1024 663 1029 q 657 1008 663 1017 q 611 945 638 964 q 547 926 585 926 q 495 933 522 926 q 427 954 469 940 q 373 972 394 966 q 334 978 352 978 q 308 969 319 978 q 283 941 296 961 q 273 928 277 932 q 262 924 268 924 q 250 927 258 924 l 237 932 z "},"O":{"ha":882,"x_min":69,"x_max":812,"o":"m 440 -7 q 164 103 259 -7 q 69 425 69 213 q 164 744 69 635 q 440 852 258 852 q 718 744 623 852 q 812 425 812 635 q 718 103 812 213 q 440 -7 623 -7 m 440 85 q 635 172 568 85 q 703 425 703 259 q 636 675 703 590 q 440 760 568 760 q 245 675 313 760 q 178 425 178 590 q 245 172 178 258 q 440 85 313 85 z "},"Ó":{"ha":882,"x_min":69,"x_max":812,"o":"m 69 0 m 440 -7 q 164 103 259 -7 q 69 425 69 213 q 164 744 69 635 q 440 852 258 852 q 718 744 623 852 q 812 425 812 635 q 718 103 812 213 q 440 -7 623 -7 m 440 85 q 635 172 568 85 q 703 425 703 259 q 636 675 703 590 q 440 760 568 760 q 245 675 313 760 q 178 425 178 590 q 245 172 178 258 q 440 85 313 85 m 420 919 q 392 930 392 919 q 404 962 392 939 q 463 1065 416 985 q 490 1088 472 1081 q 537 1096 508 1096 q 581 1093 568 1096 q 595 1080 595 1089 q 589 1065 595 1074 q 563 1034 584 1057 q 511 973 543 1010 l 481 940 q 456 924 472 930 q 420 919 439 919 z "},"Ŏ":{"ha":882,"x_min":69,"x_max":812,"o":"m 69 0 m 440 -7 q 164 103 259 -7 q 69 425 69 213 q 164 744 69 635 q 440 852 258 852 q 718 744 623 852 q 812 425 812 635 q 718 103 812 213 q 440 -7 623 -7 m 440 85 q 635 172 568 85 q 703 425 703 259 q 636 675 703 590 q 440 760 568 760 q 245 675 313 760 q 178 425 178 590 q 245 172 178 258 q 440 85 313 85 m 442 919 q 357 935 397 919 q 293 981 317 950 q 268 1057 268 1013 q 272 1070 268 1066 q 286 1075 276 1075 q 299 1072 296 1075 q 307 1059 303 1068 q 312 1045 310 1049 q 360 1009 325 1021 q 442 998 395 998 q 524 1009 490 998 q 571 1045 558 1021 l 577 1059 q 584 1072 581 1068 q 597 1075 588 1075 q 612 1070 608 1075 q 616 1057 616 1066 q 591 981 616 1013 q 527 935 566 950 q 442 919 487 919 z "},"Ô":{"ha":882,"x_min":69,"x_max":812,"o":"m 69 0 m 440 -7 q 164 103 259 -7 q 69 425 69 213 q 164 744 69 635 q 440 852 258 852 q 718 744 623 852 q 812 425 812 635 q 718 103 812 213 q 440 -7 623 -7 m 440 85 q 635 172 568 85 q 703 425 703 259 q 636 675 703 590 q 440 760 568 760 q 245 675 313 760 q 178 425 178 590 q 245 172 178 258 q 440 85 313 85 m 323 907 q 295 924 295 907 q 302 946 295 932 l 370 1052 q 425 1078 387 1078 l 455 1078 q 511 1052 494 1078 l 580 946 q 587 926 587 935 q 558 907 587 907 l 555 907 q 534 911 544 907 q 515 924 525 915 l 440 1013 l 366 924 q 326 907 350 907 l 323 907 z "},"Ố":{"ha":882,"x_min":69,"x_max":812,"o":"m 599 994 q 577 996 584 994 q 571 1006 571 999 q 582 1036 571 1013 q 629 1127 593 1058 q 694 1158 646 1158 q 723 1155 714 1158 q 731 1143 731 1152 q 723 1124 731 1136 q 682 1067 715 1113 l 642 1015 q 599 994 626 994 m 328 907 q 300 924 300 907 q 307 946 300 932 l 374 1052 q 430 1078 392 1078 l 460 1078 q 504 1052 488 1078 l 566 946 q 574 926 574 935 q 545 907 574 907 l 542 907 q 519 911 530 907 q 503 924 508 916 l 445 1013 l 371 924 q 330 907 355 907 l 328 907 m 440 -7 q 164 103 259 -7 q 69 425 69 213 q 164 744 69 635 q 440 852 258 852 q 718 744 623 852 q 812 425 812 635 q 718 103 812 213 q 440 -7 623 -7 m 440 85 q 635 172 568 85 q 703 425 703 259 q 636 675 703 590 q 440 760 568 760 q 245 675 313 760 q 178 425 178 590 q 245 172 178 258 q 440 85 313 85 z "},"Ộ":{"ha":882,"x_min":69,"x_max":812,"o":"m 69 0 m 440 -7 q 164 103 259 -7 q 69 425 69 213 q 164 744 69 635 q 440 852 258 852 q 718 744 623 852 q 812 425 812 635 q 718 103 812 213 q 440 -7 623 -7 m 440 85 q 635 172 568 85 q 703 425 703 259 q 636 675 703 590 q 440 760 568 760 q 245 675 313 760 q 178 425 178 590 q 245 172 178 258 q 440 85 313 85 m 323 907 q 295 924 295 907 q 302 946 295 932 l 370 1052 q 425 1078 387 1078 l 455 1078 q 511 1052 494 1078 l 580 946 q 587 926 587 935 q 558 907 587 907 l 555 907 q 534 911 544 907 q 515 924 525 915 l 440 1013 l 366 924 q 326 907 350 907 l 323 907 z "},"Ồ":{"ha":882,"x_min":69,"x_max":812,"o":"m 634 994 q 610 999 623 994 q 591 1015 598 1005 l 545 1086 q 519 1128 524 1120 q 514 1143 514 1137 q 523 1155 514 1152 q 556 1158 531 1158 q 593 1151 576 1158 q 616 1127 610 1143 q 653 1038 644 1063 q 662 1006 662 1014 q 655 996 662 999 q 634 994 649 994 m 328 907 q 300 924 300 907 q 307 946 300 932 l 374 1052 q 430 1078 392 1078 l 460 1078 q 504 1052 488 1078 l 566 946 q 574 926 574 935 q 545 907 574 907 l 542 907 q 519 911 530 907 q 503 924 508 916 l 445 1013 l 371 924 q 330 907 355 907 l 328 907 m 440 -7 q 164 103 259 -7 q 69 425 69 213 q 164 744 69 635 q 440 852 258 852 q 718 744 623 852 q 812 425 812 635 q 718 103 812 213 q 440 -7 623 -7 m 440 85 q 635 172 568 85 q 703 425 703 259 q 636 675 703 590 q 440 760 568 760 q 245 675 313 760 q 178 425 178 590 q 245 172 178 258 q 440 85 313 85 z "},"Ổ":{"ha":882,"x_min":69,"x_max":812,"o":"m 615 995 q 584 1002 597 995 q 571 1018 571 1010 q 577 1030 571 1025 q 601 1045 584 1036 q 638 1090 638 1066 q 625 1114 638 1105 q 594 1122 612 1122 q 566 1119 576 1122 q 548 1111 555 1115 q 538 1106 541 1106 q 520 1121 531 1106 q 509 1146 509 1137 q 524 1162 509 1154 q 561 1175 538 1170 q 604 1180 583 1180 q 650 1172 627 1180 q 691 1145 674 1164 q 707 1098 707 1127 q 696 1055 707 1073 q 665 1021 684 1036 q 637 1003 653 1010 q 615 995 621 995 m 328 907 q 300 924 300 907 q 307 946 300 932 l 374 1052 q 430 1078 392 1078 l 460 1078 q 504 1052 488 1078 l 566 946 q 574 926 574 935 q 545 907 574 907 l 542 907 q 519 911 530 907 q 503 924 508 916 l 445 1013 l 371 924 q 330 907 355 907 l 328 907 m 440 -7 q 164 103 259 -7 q 69 425 69 213 q 164 744 69 635 q 440 852 258 852 q 718 744 623 852 q 812 425 812 635 q 718 103 812 213 q 440 -7 623 -7 m 440 85 q 635 172 568 85 q 703 425 703 259 q 636 675 703 590 q 440 760 568 760 q 245 675 313 760 q 178 425 178 590 q 245 172 178 258 q 440 85 313 85 z "},"Ỗ":{"ha":882,"x_min":69,"x_max":812,"o":"m 258 1102 q 248 1116 248 1107 q 251 1132 248 1124 q 293 1196 268 1177 q 353 1215 317 1215 q 399 1208 375 1215 q 457 1187 422 1201 q 506 1169 486 1175 q 543 1163 526 1163 q 568 1171 557 1163 q 591 1198 579 1179 q 601 1212 596 1208 q 612 1216 606 1216 q 623 1213 616 1216 l 631 1209 q 642 1203 639 1206 q 645 1194 645 1200 q 640 1178 645 1187 q 599 1115 623 1134 q 540 1096 574 1096 q 493 1103 516 1096 q 431 1124 469 1109 q 381 1142 399 1137 q 346 1148 362 1148 q 322 1140 332 1148 q 300 1112 311 1131 q 290 1098 295 1102 q 280 1094 286 1094 q 269 1097 277 1094 l 258 1102 m 323 907 q 295 924 295 907 q 302 946 295 932 l 370 1023 q 396 1043 385 1037 q 425 1050 408 1050 l 455 1050 q 485 1043 472 1050 q 511 1023 498 1036 l 580 946 q 587 926 587 935 q 558 907 587 907 l 555 907 q 536 911 545 907 q 515 924 528 916 l 440 983 l 366 924 q 326 907 347 907 l 323 907 m 440 -7 q 164 103 259 -7 q 69 425 69 213 q 164 744 69 635 q 440 852 258 852 q 718 744 623 852 q 812 425 812 635 q 718 103 812 213 q 440 -7 623 -7 m 440 85 q 635 172 568 85 q 703 425 703 259 q 636 675 703 590 q 440 760 568 760 q 245 675 313 760 q 178 425 178 590 q 245 172 178 258 q 440 85 313 85 z "},"Ö":{"ha":882,"x_min":69,"x_max":812,"o":"m 69 0 m 440 -7 q 164 103 259 -7 q 69 425 69 213 q 164 744 69 635 q 440 852 258 852 q 718 744 623 852 q 812 425 812 635 q 718 103 812 213 q 440 -7 623 -7 m 440 85 q 635 172 568 85 q 703 425 703 259 q 636 675 703 590 q 440 760 568 760 q 245 675 313 760 q 178 425 178 590 q 245 172 178 258 q 440 85 313 85 m 353 945 q 304 971 304 945 l 304 1033 q 357 1060 304 1060 q 406 1033 406 1060 l 406 971 q 353 945 406 945 m 526 945 q 478 971 478 945 l 478 1033 q 531 1060 478 1060 q 579 1033 579 1060 l 579 971 q 526 945 579 945 z "},"Ọ":{"ha":882,"x_min":69,"x_max":812,"o":"m 69 0 m 440 -7 q 164 103 259 -7 q 69 425 69 213 q 164 744 69 635 q 440 852 258 852 q 718 744 623 852 q 812 425 812 635 q 718 103 812 213 q 440 -7 623 -7 m 440 85 q 635 172 568 85 q 703 425 703 259 q 636 675 703 590 q 440 760 568 760 q 245 675 313 760 q 178 425 178 590 q 245 172 178 258 q 440 85 313 85 z "},"Ò":{"ha":882,"x_min":69,"x_max":812,"o":"m 69 0 m 440 -7 q 164 103 259 -7 q 69 425 69 213 q 164 744 69 635 q 440 852 258 852 q 718 744 623 852 q 812 425 812 635 q 718 103 812 213 q 440 -7 623 -7 m 440 85 q 635 172 568 85 q 703 425 703 259 q 636 675 703 590 q 440 760 568 760 q 245 675 313 760 q 178 425 178 590 q 245 172 178 258 q 440 85 313 85 m 473 919 q 438 924 454 919 q 412 940 422 930 l 363 996 q 309 1059 319 1046 q 298 1080 298 1072 q 312 1093 298 1089 q 357 1096 326 1096 q 404 1089 386 1096 q 431 1065 421 1082 q 488 963 475 988 q 501 930 501 939 q 495 922 501 924 q 473 919 488 919 z "},"Ỏ":{"ha":882,"x_min":69,"x_max":812,"o":"m 69 0 m 440 -7 q 164 103 259 -7 q 69 425 69 213 q 164 744 69 635 q 440 852 258 852 q 718 744 623 852 q 812 425 812 635 q 718 103 812 213 q 440 -7 623 -7 m 440 85 q 635 172 568 85 q 703 425 703 259 q 636 675 703 590 q 440 760 568 760 q 245 675 313 760 q 178 425 178 590 q 245 172 178 258 q 440 85 313 85 m 450 892 q 425 898 439 892 q 410 912 410 905 q 417 931 410 922 q 439 952 424 939 q 472 985 460 969 q 484 1023 484 1001 q 472 1047 484 1039 q 439 1055 459 1055 q 411 1052 422 1055 q 393 1044 400 1048 q 384 1040 386 1040 q 366 1056 377 1040 q 355 1080 355 1071 q 370 1097 355 1088 q 407 1111 385 1105 q 450 1117 429 1117 q 498 1109 473 1117 q 541 1082 524 1101 q 559 1032 559 1063 q 536 964 559 996 q 487 912 514 932 q 450 892 459 892 z "},"Ơ":{"ha":882,"x_min":69,"x_max":812,"o":"m 670 787 q 777 645 741 736 q 812 425 812 553 q 718 103 812 213 q 440 -7 623 -7 q 164 103 259 -7 q 69 425 69 213 q 164 744 69 635 q 440 852 258 852 q 605 823 532 852 l 624 823 q 675 834 660 823 q 690 863 690 846 q 686 892 692 880 q 669 920 680 905 q 659 937 660 933 q 669 957 659 950 l 698 977 q 713 981 705 981 q 738 967 726 981 q 756 931 749 952 q 764 892 764 909 q 740 823 764 850 q 670 787 717 795 m 440 85 q 635 172 568 85 q 703 425 703 259 q 636 675 703 590 q 440 760 568 760 q 245 675 313 760 q 178 425 178 590 q 245 172 178 258 q 440 85 313 85 z "},"Ớ":{"ha":882,"x_min":69,"x_max":812,"o":"m 420 919 q 392 930 392 919 q 404 962 392 939 q 463 1065 416 985 q 490 1088 472 1081 q 537 1096 508 1096 q 581 1093 568 1096 q 595 1080 595 1089 q 589 1065 595 1074 q 563 1034 584 1057 q 511 973 543 1010 l 481 940 q 456 924 472 930 q 420 919 439 919 m 670 787 q 777 645 741 736 q 812 425 812 553 q 718 103 812 213 q 440 -7 623 -7 q 164 103 259 -7 q 69 425 69 213 q 164 744 69 635 q 440 852 258 852 q 605 823 532 852 l 624 823 q 675 834 660 823 q 690 863 690 846 q 686 892 692 880 q 669 920 680 905 q 659 937 660 933 q 669 957 659 950 l 698 977 q 713 981 705 981 q 738 967 726 981 q 756 931 749 952 q 764 892 764 909 q 740 823 764 850 q 670 787 717 795 m 440 85 q 635 172 568 85 q 703 425 703 259 q 636 675 703 590 q 440 760 568 760 q 245 675 313 760 q 178 425 178 590 q 245 172 178 258 q 440 85 313 85 z "},"Ợ":{"ha":882,"x_min":69,"x_max":812,"o":"m 670 787 q 777 645 741 736 q 812 425 812 553 q 718 103 812 213 q 440 -7 623 -7 q 164 103 259 -7 q 69 425 69 213 q 164 744 69 635 q 440 852 258 852 q 605 823 532 852 l 624 823 q 675 834 660 823 q 690 863 690 846 q 686 892 692 880 q 669 920 680 905 q 659 937 660 933 q 669 957 659 950 l 698 977 q 713 981 705 981 q 738 967 726 981 q 756 931 749 952 q 764 892 764 909 q 740 823 764 850 q 670 787 717 795 m 440 85 q 635 172 568 85 q 703 425 703 259 q 636 675 703 590 q 440 760 568 760 q 245 675 313 760 q 178 425 178 590 q 245 172 178 258 q 440 85 313 85 m 448 -96 q 496 -123 496 -96 l 496 -184 q 444 -211 496 -211 q 395 -184 395 -211 l 395 -123 q 448 -96 395 -96 z "},"Ờ":{"ha":882,"x_min":69,"x_max":812,"o":"m 473 919 q 438 924 454 919 q 412 940 422 930 l 363 996 q 309 1059 319 1046 q 298 1080 298 1072 q 312 1093 298 1089 q 357 1096 326 1096 q 404 1089 386 1096 q 431 1065 421 1082 q 488 963 475 988 q 501 930 501 939 q 495 922 501 924 q 473 919 488 919 m 670 787 q 777 645 741 736 q 812 425 812 553 q 718 103 812 213 q 440 -7 623 -7 q 164 103 259 -7 q 69 425 69 213 q 164 744 69 635 q 440 852 258 852 q 605 823 532 852 l 624 823 q 675 834 660 823 q 690 863 690 846 q 686 892 692 880 q 669 920 680 905 q 659 937 660 933 q 669 957 659 950 l 698 977 q 713 981 705 981 q 738 967 726 981 q 756 931 749 952 q 764 892 764 909 q 740 823 764 850 q 670 787 717 795 m 440 85 q 635 172 568 85 q 703 425 703 259 q 636 675 703 590 q 440 760 568 760 q 245 675 313 760 q 178 425 178 590 q 245 172 178 258 q 440 85 313 85 z "},"Ở":{"ha":882,"x_min":69,"x_max":812,"o":"m 384 1040 q 366 1056 377 1040 q 355 1080 355 1071 q 370 1097 355 1088 q 407 1111 385 1105 q 450 1117 429 1117 q 498 1109 473 1117 q 541 1082 524 1101 q 559 1032 559 1063 q 536 964 559 996 q 487 912 514 932 q 450 892 459 892 q 425 898 439 892 q 410 912 410 905 q 417 931 410 922 q 439 952 424 939 q 472 985 460 969 q 484 1023 484 1001 q 472 1047 484 1039 q 439 1055 459 1055 q 411 1052 422 1055 q 393 1044 401 1048 q 384 1040 386 1040 m 670 787 q 777 645 741 736 q 812 425 812 553 q 718 103 812 213 q 440 -7 623 -7 q 164 103 259 -7 q 69 425 69 213 q 164 744 69 635 q 440 852 258 852 q 605 823 532 852 l 624 823 q 675 834 660 823 q 690 863 690 846 q 686 892 692 880 q 669 920 680 905 q 659 937 660 933 q 669 957 659 950 l 698 977 q 713 981 705 981 q 738 967 726 981 q 756 931 749 952 q 764 892 764 909 q 740 823 764 850 q 670 787 717 795 m 440 85 q 635 172 568 85 q 703 425 703 259 q 636 675 703 590 q 440 760 568 760 q 245 675 313 760 q 178 425 178 590 q 245 172 178 258 q 440 85 313 85 z "},"Ỡ":{"ha":882,"x_min":69,"x_max":812,"o":"m 252 932 q 241 946 241 937 q 245 962 241 954 q 287 1026 262 1006 q 347 1045 311 1045 q 393 1038 369 1045 q 451 1017 416 1031 q 500 999 480 1005 q 536 993 519 993 q 562 1001 551 993 q 585 1028 573 1008 q 595 1042 590 1038 q 606 1046 600 1046 q 617 1042 610 1046 l 625 1039 q 636 1033 633 1036 q 639 1024 639 1029 q 634 1008 639 1017 q 593 945 617 964 q 534 926 568 926 q 487 932 510 926 q 425 954 463 939 q 375 972 393 966 q 340 978 356 978 q 316 969 326 978 q 294 941 305 961 q 284 928 289 932 q 274 924 279 924 q 263 927 271 924 l 252 932 m 670 787 q 777 645 741 736 q 812 425 812 553 q 718 103 812 213 q 440 -7 623 -7 q 164 103 259 -7 q 69 425 69 213 q 164 744 69 635 q 440 852 258 852 q 605 823 532 852 l 624 823 q 675 834 660 823 q 690 863 690 846 q 686 892 692 880 q 669 920 680 905 q 659 937 660 933 q 669 957 659 950 l 698 977 q 713 981 705 981 q 738 967 726 981 q 756 931 749 952 q 764 892 764 909 q 740 823 764 850 q 670 787 717 795 m 440 85 q 635 172 568 85 q 703 425 703 259 q 636 675 703 590 q 440 760 568 760 q 245 675 313 760 q 178 425 178 590 q 245 172 178 258 q 440 85 313 85 z "},"Ő":{"ha":882,"x_min":69,"x_max":812,"o":"m 69 0 m 440 -7 q 164 103 259 -7 q 69 425 69 213 q 164 744 69 635 q 440 852 258 852 q 718 744 623 852 q 812 425 812 635 q 718 103 812 213 q 440 -7 623 -7 m 440 85 q 635 172 568 85 q 703 425 703 259 q 636 675 703 590 q 440 760 568 760 q 245 675 313 760 q 178 425 178 590 q 245 172 178 258 q 440 85 313 85 m 334 919 q 306 930 306 919 q 319 963 306 939 q 376 1065 332 988 q 404 1089 386 1082 q 451 1096 421 1096 q 495 1093 481 1096 q 509 1080 509 1089 q 504 1066 509 1074 q 481 1038 499 1059 q 436 986 464 1017 l 395 940 q 334 919 375 919 m 511 919 q 490 922 496 919 q 484 930 484 924 q 497 965 484 939 q 553 1065 511 991 q 581 1089 563 1082 q 628 1096 598 1096 q 672 1093 658 1096 q 686 1080 686 1089 q 681 1066 686 1074 q 659 1038 676 1059 q 613 986 641 1017 l 572 940 q 511 919 552 919 z "},"Ō":{"ha":882,"x_min":69,"x_max":812,"o":"m 69 0 m 440 -7 q 164 103 259 -7 q 69 425 69 213 q 164 744 69 635 q 440 852 258 852 q 718 744 623 852 q 812 425 812 635 q 718 103 812 213 q 440 -7 623 -7 m 440 85 q 635 172 568 85 q 703 425 703 259 q 636 675 703 590 q 440 760 568 760 q 245 675 313 760 q 178 425 178 590 q 245 172 178 258 q 440 85 313 85 m 307 951 q 289 960 294 951 q 283 987 283 968 l 283 999 q 289 1027 283 1018 q 307 1036 294 1036 l 576 1036 q 594 1027 589 1036 q 600 999 600 1018 l 600 987 q 594 959 600 968 q 576 951 589 951 l 307 951 z "},"Ǫ":{"ha":882,"x_min":69,"x_max":812,"o":"m 812 425 q 742 135 812 242 q 534 2 671 28 l 534 -1 q 528 -28 534 -10 q 519 -75 519 -60 q 542 -125 519 -113 q 595 -136 564 -136 q 625 -131 604 -136 q 657 -125 646 -125 q 680 -155 680 -125 q 655 -207 680 -193 q 581 -221 630 -221 q 469 -181 498 -221 q 439 -98 439 -142 q 463 -6 439 -36 q 440 -7 456 -7 q 164 103 259 -7 q 69 425 69 213 q 164 744 69 635 q 440 852 258 852 q 718 744 623 852 q 812 425 812 635 m 440 85 q 635 172 568 85 q 703 425 703 259 q 636 675 703 590 q 440 760 568 760 q 245 675 313 760 q 178 425 178 590 q 245 172 178 258 q 440 85 313 85 z "},"Ø":{"ha":882,"x_min":41,"x_max":812,"o":"m 440 -7 q 165 102 259 -7 l 85 12 q 68 1 76 1 q 51 10 60 1 q 41 26 41 19 q 48 43 41 36 l 136 140 q 69 425 69 248 q 164 744 69 635 q 440 852 258 852 q 696 764 601 852 l 764 837 q 780 847 773 847 q 797 839 788 847 q 806 823 806 830 q 800 806 806 813 l 729 728 q 812 425 812 619 q 718 103 812 213 q 440 -7 623 -7 m 626 685 q 440 760 559 760 q 245 675 313 760 q 178 425 178 590 q 214 226 178 307 l 626 685 m 440 85 q 635 172 568 85 q 703 425 703 259 q 655 646 703 563 l 237 182 q 440 85 302 85 z "},"Ǿ":{"ha":882,"x_min":41,"x_max":812,"o":"m 41 0 m 440 -7 q 165 102 259 -7 l 85 12 q 68 1 76 1 q 51 10 60 1 q 41 26 41 19 q 48 43 41 36 l 136 140 q 69 425 69 248 q 164 744 69 635 q 440 852 258 852 q 696 764 601 852 l 764 837 q 780 847 773 847 q 797 839 788 847 q 806 823 806 830 q 800 806 806 813 l 729 728 q 812 425 812 619 q 718 103 812 213 q 440 -7 623 -7 m 626 685 q 440 760 559 760 q 245 675 313 760 q 178 425 178 590 q 214 226 178 307 l 626 685 m 440 85 q 635 172 568 85 q 703 425 703 259 q 655 646 703 563 l 237 182 q 440 85 302 85 m 420 919 q 392 930 392 919 q 404 962 392 939 q 463 1065 416 985 q 490 1088 472 1081 q 537 1096 508 1096 q 581 1093 568 1096 q 595 1080 595 1089 q 589 1065 595 1074 q 563 1034 584 1057 q 511 973 543 1010 l 481 940 q 456 924 472 930 q 420 919 439 919 z "},"Õ":{"ha":882,"x_min":69,"x_max":812,"o":"m 69 0 m 440 -7 q 164 103 259 -7 q 69 425 69 213 q 164 744 69 635 q 440 852 258 852 q 718 744 623 852 q 812 425 812 635 q 718 103 812 213 q 440 -7 623 -7 m 440 85 q 635 172 568 85 q 703 425 703 259 q 636 675 703 590 q 440 760 568 760 q 245 675 313 760 q 178 425 178 590 q 245 172 178 258 q 440 85 313 85 m 244 932 q 233 946 233 937 q 237 962 233 954 q 282 1026 256 1006 q 348 1045 309 1045 q 398 1038 372 1045 q 463 1017 424 1031 q 517 999 494 1005 q 557 993 539 993 q 586 1001 574 993 q 610 1028 597 1008 q 633 1046 622 1046 q 646 1042 637 1046 l 655 1039 q 666 1033 663 1036 q 669 1024 669 1029 q 664 1008 669 1017 q 618 945 645 964 q 554 926 591 926 q 502 933 528 926 q 434 954 476 940 q 380 972 401 966 q 341 978 359 978 q 315 969 326 978 q 290 941 303 961 q 279 928 284 932 q 269 924 275 924 q 256 927 264 924 l 244 932 z "},"Œ":{"ha":1231,"x_min":69,"x_max":1191,"o":"m 1167 92 q 1185 83 1180 92 q 1191 56 1191 75 l 1191 36 q 1185 9 1191 18 q 1167 0 1180 0 l 742 0 q 714 9 723 0 q 706 36 706 18 l 706 94 q 440 -7 614 -7 q 164 103 259 -7 q 69 425 69 213 q 164 744 69 635 q 440 852 258 852 q 706 751 613 852 l 706 808 q 714 836 706 827 q 742 844 723 844 l 1166 844 q 1184 835 1179 844 q 1190 808 1190 827 l 1190 788 q 1184 761 1190 770 q 1166 752 1179 752 l 811 752 l 811 477 l 1130 477 q 1148 469 1143 477 q 1154 441 1154 460 l 1154 422 q 1148 395 1154 404 q 1130 387 1143 387 l 811 387 l 811 92 l 1167 92 m 440 85 q 635 172 568 85 q 703 425 703 259 q 636 675 703 590 q 440 760 568 760 q 245 675 313 760 q 178 425 178 590 q 245 172 178 258 q 440 85 313 85 z "},"P":{"ha":688,"x_min":103,"x_max":652,"o":"m 151 -2 q 114 4 125 -2 q 103 24 103 11 l 103 808 q 112 836 103 827 q 139 844 120 844 l 383 844 q 571 793 489 844 q 652 608 652 743 q 606 452 652 507 q 500 378 559 397 q 395 359 442 359 l 208 359 l 208 24 q 197 4 208 11 q 161 -2 185 -2 l 151 -2 m 397 451 q 460 464 427 451 q 518 512 494 477 q 543 608 543 547 q 495 720 543 688 q 380 752 447 752 l 208 752 l 208 451 l 397 451 z "},"Þ":{"ha":684,"x_min":103,"x_max":652,"o":"m 151 -2 q 114 4 125 -2 q 103 24 103 11 l 103 820 q 151 847 103 847 l 161 847 q 208 820 208 847 l 208 696 l 383 696 q 571 646 490 696 q 652 460 652 596 q 606 306 652 361 q 501 232 559 250 q 395 213 443 213 l 208 213 l 208 24 q 197 4 208 11 q 161 -2 185 -2 l 151 -2 m 397 304 q 460 317 427 304 q 518 365 494 330 q 543 460 543 400 q 495 573 543 541 q 380 605 447 605 l 208 605 l 208 304 l 397 304 z "},"Q":{"ha":882,"x_min":69,"x_max":825,"o":"m 774 -178 q 585 -107 766 -178 q 366 -21 405 -37 q 296 7 314 1 q 126 155 182 53 q 69 418 69 257 q 164 741 69 631 q 440 852 259 852 q 717 741 622 852 q 812 418 812 630 q 750 143 812 248 q 570 6 688 38 l 570 1 l 808 -74 q 825 -92 825 -79 q 817 -122 825 -100 q 798 -161 810 -144 q 774 -178 787 -178 m 440 81 q 635 168 566 81 q 703 418 703 255 q 672 604 703 528 q 583 721 642 681 q 440 760 524 760 q 299 721 357 760 q 209 604 240 681 q 178 418 178 528 q 247 168 178 254 q 440 81 315 81 z "},"R":{"ha":736,"x_min":117,"x_max":714,"o":"m 165 -2 q 117 24 117 -2 l 117 808 q 125 835 117 827 q 153 844 134 844 l 356 844 q 573 793 500 844 q 646 631 646 742 q 610 504 646 555 q 508 427 574 453 l 508 422 q 566 375 543 410 q 616 272 589 340 l 711 34 q 714 17 714 22 q 663 -2 714 -2 l 651 -2 q 620 3 633 -2 q 603 17 606 8 l 511 254 q 470 326 494 300 q 414 361 446 351 q 332 372 381 372 l 223 372 l 223 24 q 175 -2 223 -2 l 165 -2 m 382 463 q 460 484 425 463 q 516 538 496 504 q 537 611 537 572 q 494 717 537 682 q 374 752 450 752 l 223 752 l 223 463 l 382 463 z "},"Ŕ":{"ha":736,"x_min":117,"x_max":714,"o":"m 117 0 m 165 -2 q 117 24 117 -2 l 117 808 q 125 835 117 827 q 153 844 134 844 l 356 844 q 573 793 500 844 q 646 631 646 742 q 610 504 646 555 q 508 427 574 453 l 508 422 q 566 375 543 410 q 616 272 589 340 l 711 34 q 714 17 714 22 q 663 -2 714 -2 l 651 -2 q 620 3 633 -2 q 603 17 606 8 l 511 254 q 470 326 494 300 q 414 361 446 351 q 332 372 381 372 l 223 372 l 223 24 q 175 -2 223 -2 l 165 -2 m 382 463 q 460 484 425 463 q 516 538 496 504 q 537 611 537 572 q 494 717 537 682 q 374 752 450 752 l 223 752 l 223 463 l 382 463 m 347 919 q 319 930 319 919 q 331 962 319 939 q 389 1065 343 985 q 417 1088 399 1081 q 464 1096 435 1096 q 508 1093 494 1096 q 522 1080 522 1089 q 516 1065 522 1074 q 490 1034 511 1057 q 437 973 469 1010 l 408 940 q 382 924 399 930 q 347 919 366 919 z "},"Ř":{"ha":736,"x_min":117,"x_max":714,"o":"m 117 0 m 165 -2 q 117 24 117 -2 l 117 808 q 125 835 117 827 q 153 844 134 844 l 356 844 q 573 793 500 844 q 646 631 646 742 q 610 504 646 555 q 508 427 574 453 l 508 422 q 566 375 543 410 q 616 272 589 340 l 711 34 q 714 17 714 22 q 663 -2 714 -2 l 651 -2 q 620 3 633 -2 q 603 17 606 8 l 511 254 q 470 326 494 300 q 414 361 446 351 q 332 372 381 372 l 223 372 l 223 24 q 175 -2 223 -2 l 165 -2 m 382 463 q 460 484 425 463 q 516 538 496 504 q 537 611 537 572 q 494 717 537 682 q 374 752 450 752 l 223 752 l 223 463 l 382 463 m 351 914 q 296 941 315 914 l 229 1047 q 222 1069 222 1059 q 229 1081 222 1077 q 250 1086 236 1086 l 252 1086 q 292 1070 276 1086 l 366 981 l 441 1070 q 460 1082 451 1078 q 482 1086 470 1086 l 484 1086 q 506 1081 498 1086 q 513 1068 513 1076 q 506 1047 513 1059 l 437 941 q 382 914 418 914 l 351 914 z "},"Ŗ":{"ha":736,"x_min":117,"x_max":714,"o":"m 117 0 m 165 -2 q 117 24 117 -2 l 117 808 q 125 835 117 827 q 153 844 134 844 l 356 844 q 573 793 500 844 q 646 631 646 742 q 610 504 646 555 q 508 427 574 453 l 508 422 q 566 375 543 410 q 616 272 589 340 l 711 34 q 714 17 714 22 q 663 -2 714 -2 l 651 -2 q 620 3 633 -2 q 603 17 606 8 l 511 254 q 470 326 494 300 q 414 361 446 351 q 332 372 381 372 l 223 372 l 223 24 q 175 -2 223 -2 l 165 -2 m 382 463 q 460 484 425 463 q 516 538 496 504 q 537 611 537 572 q 494 717 537 682 q 374 752 450 752 l 223 752 l 223 463 l 382 463 m 296 -283 q 272 -279 283 -283 q 262 -265 262 -275 q 265 -250 262 -258 q 277 -228 269 -241 q 303 -168 293 -197 q 313 -100 313 -139 q 325 -72 313 -83 q 361 -62 338 -62 l 372 -62 q 408 -71 395 -62 q 420 -96 420 -80 q 399 -192 420 -149 q 348 -259 377 -235 q 296 -283 318 -283 z "},"Ṛ":{"ha":736,"x_min":117,"x_max":714,"o":"m 117 0 m 165 -2 q 117 24 117 -2 l 117 808 q 125 835 117 827 q 153 844 134 844 l 356 844 q 573 793 500 844 q 646 631 646 742 q 610 504 646 555 q 508 427 574 453 l 508 422 q 566 375 543 410 q 616 272 589 340 l 711 34 q 714 17 714 22 q 663 -2 714 -2 l 651 -2 q 620 3 633 -2 q 603 17 606 8 l 511 254 q 470 326 494 300 q 414 361 446 351 q 332 372 381 372 l 223 372 l 223 24 q 175 -2 223 -2 l 165 -2 m 382 463 q 460 484 425 463 q 516 538 496 504 q 537 611 537 572 q 494 717 537 682 q 374 752 450 752 l 223 752 l 223 463 l 382 463 z "},"S":{"ha":603,"x_min":45,"x_max":562,"o":"m 294 -7 q 171 8 228 -7 q 79 43 113 22 q 45 81 45 64 q 53 106 45 90 q 71 134 60 121 q 87 146 81 146 q 111 135 92 146 q 194 99 153 113 q 294 85 235 85 q 376 102 340 85 q 432 152 412 120 q 452 227 452 184 q 428 301 452 271 q 370 348 404 330 q 271 391 336 365 q 159 441 200 418 q 89 509 118 465 q 60 628 60 554 q 94 744 60 692 q 188 823 127 795 q 328 852 249 852 q 410 842 364 852 q 489 815 456 832 q 522 778 522 798 q 515 754 522 769 q 498 726 508 739 q 484 714 489 714 q 459 724 477 714 q 399 750 429 741 q 326 760 369 760 q 213 724 256 760 q 170 624 170 688 q 189 560 170 585 q 237 520 208 535 q 319 486 267 505 q 334 480 322 485 q 452 426 406 452 q 530 351 498 400 q 562 227 562 302 q 529 102 562 155 q 436 21 496 50 q 294 -7 375 -7 z "},"Ś":{"ha":603,"x_min":45,"x_max":562,"o":"m 45 0 m 294 -7 q 171 8 228 -7 q 79 43 113 22 q 45 81 45 64 q 53 106 45 90 q 71 134 60 121 q 87 146 81 146 q 111 135 92 146 q 194 99 153 113 q 294 85 235 85 q 376 102 340 85 q 432 152 412 120 q 452 227 452 184 q 428 301 452 271 q 370 348 404 330 q 271 391 336 365 q 159 441 200 418 q 89 509 118 465 q 60 628 60 554 q 94 744 60 692 q 188 823 127 795 q 328 852 249 852 q 410 842 364 852 q 489 815 456 832 q 522 778 522 798 q 515 754 522 769 q 498 726 508 739 q 484 714 489 714 q 459 724 477 714 q 399 750 429 741 q 326 760 369 760 q 213 724 256 760 q 170 624 170 688 q 189 560 170 585 q 237 520 208 535 q 319 486 267 505 q 334 480 322 485 q 452 426 406 452 q 530 351 498 400 q 562 227 562 302 q 529 102 562 155 q 436 21 496 50 q 294 -7 375 -7 m 281 919 q 253 930 253 919 q 265 962 253 939 q 323 1065 277 985 q 351 1088 333 1081 q 398 1096 369 1096 q 442 1093 429 1096 q 456 1080 456 1089 q 450 1065 456 1074 q 424 1034 445 1057 q 372 973 404 1010 l 342 940 q 317 924 333 930 q 281 919 300 919 z "},"Š":{"ha":603,"x_min":45,"x_max":562,"o":"m 45 0 m 294 -7 q 171 8 228 -7 q 79 43 113 22 q 45 81 45 64 q 53 106 45 90 q 71 134 60 121 q 87 146 81 146 q 111 135 92 146 q 194 99 153 113 q 294 85 235 85 q 376 102 340 85 q 432 152 412 120 q 452 227 452 184 q 428 301 452 271 q 370 348 404 330 q 271 391 336 365 q 159 441 200 418 q 89 509 118 465 q 60 628 60 554 q 94 744 60 692 q 188 823 127 795 q 328 852 249 852 q 410 842 364 852 q 489 815 456 832 q 522 778 522 798 q 515 754 522 769 q 498 726 508 739 q 484 714 489 714 q 459 724 477 714 q 399 750 429 741 q 326 760 369 760 q 213 724 256 760 q 170 624 170 688 q 189 560 170 585 q 237 520 208 535 q 319 486 267 505 q 334 480 322 485 q 452 426 406 452 q 530 351 498 400 q 562 227 562 302 q 529 102 562 155 q 436 21 496 50 q 294 -7 375 -7 m 286 914 q 230 941 250 914 l 163 1047 q 156 1069 156 1059 q 163 1081 156 1077 q 184 1086 170 1086 l 186 1086 q 227 1070 210 1086 l 300 981 l 376 1070 q 395 1082 385 1078 q 416 1086 404 1086 l 418 1086 q 440 1081 432 1086 q 448 1068 448 1076 q 440 1047 448 1059 l 372 941 q 316 914 353 914 l 286 914 z "},"Ş":{"ha":603,"x_min":45,"x_max":562,"o":"m 562 227 q 534 110 562 160 q 453 30 505 60 q 329 -5 400 0 l 313 -59 l 318 -59 q 387 -77 353 -59 q 420 -146 420 -96 q 381 -231 420 -209 q 282 -254 341 -254 q 221 -247 254 -254 q 165 -229 188 -241 q 143 -201 143 -217 q 149 -179 143 -189 q 166 -170 154 -170 q 182 -174 172 -170 q 197 -178 192 -177 q 232 -190 216 -186 q 266 -194 248 -194 q 315 -186 295 -194 q 335 -153 335 -178 q 323 -123 335 -132 q 288 -106 311 -114 q 263 -96 271 -101 q 256 -82 256 -92 q 260 -58 256 -75 q 277 -7 265 -41 q 161 10 214 -5 q 76 45 107 25 q 45 81 45 64 q 53 106 45 90 q 71 134 60 121 q 87 146 81 146 q 111 135 92 146 q 194 99 153 113 q 294 85 235 85 q 376 102 340 85 q 432 152 412 120 q 452 227 452 184 q 428 301 452 271 q 370 348 404 330 q 271 391 336 365 q 159 441 200 418 q 89 509 118 465 q 60 628 60 554 q 94 744 60 692 q 188 823 127 795 q 328 852 249 852 q 410 842 364 852 q 489 815 456 832 q 522 778 522 798 q 515 754 522 769 q 498 726 508 739 q 484 714 489 714 q 459 724 477 714 q 399 750 429 741 q 326 760 369 760 q 213 724 256 760 q 170 624 170 688 q 189 560 170 585 q 237 520 208 535 q 319 486 267 505 q 334 480 322 485 q 452 426 406 452 q 530 351 498 400 q 562 227 562 302 z "},"Ŝ":{"ha":603,"x_min":45,"x_max":562,"o":"m 45 0 m 294 -7 q 171 8 228 -7 q 79 43 113 22 q 45 81 45 64 q 53 106 45 90 q 71 134 60 121 q 87 146 81 146 q 111 135 92 146 q 194 99 153 113 q 294 85 235 85 q 376 102 340 85 q 432 152 412 120 q 452 227 452 184 q 428 301 452 271 q 370 348 404 330 q 271 391 336 365 q 159 441 200 418 q 89 509 118 465 q 60 628 60 554 q 94 744 60 692 q 188 823 127 795 q 328 852 249 852 q 410 842 364 852 q 489 815 456 832 q 522 778 522 798 q 515 754 522 769 q 498 726 508 739 q 484 714 489 714 q 459 724 477 714 q 399 750 429 741 q 326 760 369 760 q 213 724 256 760 q 170 624 170 688 q 189 560 170 585 q 237 520 208 535 q 319 486 267 505 q 334 480 322 485 q 452 426 406 452 q 530 351 498 400 q 562 227 562 302 q 529 102 562 155 q 436 21 496 50 q 294 -7 375 -7 m 183 907 q 155 924 155 907 q 163 946 155 932 l 230 1052 q 286 1078 248 1078 l 315 1078 q 371 1052 354 1078 l 440 946 q 448 926 448 935 q 418 907 448 907 l 416 907 q 395 911 404 907 q 376 924 385 915 l 300 1013 l 227 924 q 186 907 210 907 l 183 907 z "},"Ș":{"ha":603,"x_min":45,"x_max":562,"o":"m 45 0 m 294 -7 q 171 8 228 -7 q 79 43 113 22 q 45 81 45 64 q 53 106 45 90 q 71 134 60 121 q 87 146 81 146 q 111 135 92 146 q 194 99 153 113 q 294 85 235 85 q 376 102 340 85 q 432 152 412 120 q 452 227 452 184 q 428 301 452 271 q 370 348 404 330 q 271 391 336 365 q 159 441 200 418 q 89 509 118 465 q 60 628 60 554 q 94 744 60 692 q 188 823 127 795 q 328 852 249 852 q 410 842 364 852 q 489 815 456 832 q 522 778 522 798 q 515 754 522 769 q 498 726 508 739 q 484 714 489 714 q 459 724 477 714 q 399 750 429 741 q 326 760 369 760 q 213 724 256 760 q 170 624 170 688 q 189 560 170 585 q 237 520 208 535 q 319 486 267 505 q 334 480 322 485 q 452 426 406 452 q 530 351 498 400 q 562 227 562 302 q 529 102 562 155 q 436 21 496 50 q 294 -7 375 -7 m 231 -283 q 207 -279 217 -283 q 196 -265 196 -275 q 199 -250 196 -258 q 211 -228 203 -241 q 237 -168 227 -197 q 247 -100 247 -139 q 259 -72 247 -83 q 296 -62 272 -62 l 307 -62 q 342 -71 329 -62 q 355 -96 355 -80 q 333 -192 355 -149 q 282 -259 311 -235 q 231 -283 252 -283 z "},"Ṣ":{"ha":603,"x_min":45,"x_max":562,"o":"m 45 0 m 294 -7 q 171 8 228 -7 q 79 43 113 22 q 45 81 45 64 q 53 106 45 90 q 71 134 60 121 q 87 146 81 146 q 111 135 92 146 q 194 99 153 113 q 294 85 235 85 q 376 102 340 85 q 432 152 412 120 q 452 227 452 184 q 428 301 452 271 q 370 348 404 330 q 271 391 336 365 q 159 441 200 418 q 89 509 118 465 q 60 628 60 554 q 94 744 60 692 q 188 823 127 795 q 328 852 249 852 q 410 842 364 852 q 489 815 456 832 q 522 778 522 798 q 515 754 522 769 q 498 726 508 739 q 484 714 489 714 q 459 724 477 714 q 399 750 429 741 q 326 760 369 760 q 213 724 256 760 q 170 624 170 688 q 189 560 170 585 q 237 520 208 535 q 319 486 267 505 q 334 480 322 485 q 452 426 406 452 q 530 351 498 400 q 562 227 562 302 q 529 102 562 155 q 436 21 496 50 q 294 -7 375 -7 z "},"ẞ":{"ha":844,"x_min":111,"x_max":796,"o":"m 515 -7 q 389 12 435 -7 q 309 62 342 31 q 316 87 309 73 q 334 111 324 101 q 351 121 345 121 q 377 117 366 121 q 407 104 388 113 q 452 86 430 93 q 505 80 473 80 q 591 95 549 80 q 662 148 633 111 q 691 246 691 185 q 641 369 691 334 q 498 405 591 405 l 456 405 q 437 428 448 405 q 427 469 427 451 q 431 484 427 479 l 614 734 q 444 760 534 760 q 272 702 328 760 q 217 517 217 644 l 217 24 q 205 4 217 11 q 169 -2 194 -2 l 159 -2 q 111 24 111 -2 l 111 518 q 195 768 111 684 q 441 852 279 852 q 594 837 520 849 q 720 809 667 825 q 737 785 727 807 q 747 745 747 763 q 743 730 747 736 l 562 484 q 733 408 671 466 q 796 245 796 349 q 754 101 796 157 q 647 19 711 45 q 515 -7 583 -7 z "},"Ə":{"ha":810,"x_min":54,"x_max":705,"o":"m 363 -12 q 131 89 208 -12 q 54 389 54 190 q 69 418 54 399 q 94 437 83 437 l 596 437 q 562 624 589 551 q 485 730 534 696 q 362 765 436 765 q 240 747 291 765 q 142 703 190 729 q 129 695 140 701 q 113 690 118 690 q 96 702 106 690 q 79 728 86 713 q 71 750 71 743 q 111 794 71 770 q 216 835 150 818 q 361 852 283 852 q 621 742 536 852 q 705 400 705 631 q 619 92 705 196 q 363 -12 533 -12 m 367 76 q 531 144 473 76 q 596 351 589 213 l 162 351 q 213 144 162 212 q 367 76 263 76 z "},"T":{"ha":662,"x_min":24,"x_max":637,"o":"m 328 -2 q 292 4 303 -2 q 280 24 280 11 l 280 752 l 48 752 q 30 761 35 752 q 24 788 24 770 l 24 808 q 30 835 24 827 q 48 844 35 844 l 614 844 q 632 835 627 844 q 637 808 637 827 l 637 788 q 632 761 637 770 q 614 752 627 752 l 387 752 l 387 24 q 338 -2 387 -2 l 328 -2 z "},"Ŧ":{"ha":662,"x_min":24,"x_max":637,"o":"m 614 844 q 632 835 627 844 q 637 808 637 827 l 637 788 q 632 761 637 770 q 614 752 627 752 l 387 752 l 387 469 l 554 469 q 573 460 567 469 q 578 433 578 452 l 578 420 q 573 393 578 401 q 554 385 567 385 l 387 385 l 387 24 q 338 -2 387 -2 l 328 -2 q 292 4 303 -2 q 280 24 280 11 l 280 385 l 117 385 q 99 393 104 385 q 93 420 93 401 l 93 433 q 99 460 93 452 q 117 469 104 469 l 280 469 l 280 752 l 48 752 q 30 761 35 752 q 24 788 24 770 l 24 808 q 30 835 24 827 q 48 844 35 844 l 614 844 z "},"Ť":{"ha":662,"x_min":24,"x_max":637,"o":"m 24 0 m 328 -2 q 292 4 303 -2 q 280 24 280 11 l 280 752 l 48 752 q 30 761 35 752 q 24 788 24 770 l 24 808 q 30 835 24 827 q 48 844 35 844 l 614 844 q 632 835 627 844 q 637 808 637 827 l 637 788 q 632 761 637 770 q 614 752 627 752 l 387 752 l 387 24 q 338 -2 387 -2 l 328 -2 m 315 914 q 260 941 279 914 l 193 1047 q 186 1069 186 1059 q 193 1081 186 1077 q 214 1086 200 1086 l 216 1086 q 256 1070 240 1086 l 330 981 l 406 1070 q 425 1082 415 1078 q 446 1086 434 1086 l 448 1086 q 470 1081 462 1086 q 477 1068 477 1076 q 470 1047 477 1059 l 401 941 q 346 914 382 914 l 315 914 z "},"Ţ":{"ha":662,"x_min":24,"x_max":637,"o":"m 614 844 q 632 835 627 844 q 637 808 637 827 l 637 788 q 632 761 637 770 q 614 752 627 752 l 387 752 l 387 24 q 360 0 387 5 l 343 -59 l 348 -59 q 416 -77 382 -59 q 450 -146 450 -96 q 411 -231 450 -209 q 312 -254 371 -254 q 251 -247 283 -254 q 195 -229 218 -241 q 173 -201 173 -217 q 178 -179 173 -189 q 196 -170 184 -170 q 212 -174 202 -170 q 227 -178 222 -177 q 262 -190 246 -186 q 296 -194 278 -194 q 345 -186 325 -194 q 365 -153 365 -178 q 353 -123 365 -132 q 317 -106 340 -114 q 293 -96 301 -101 q 286 -82 286 -92 q 290 -60 286 -75 q 309 -1 294 -46 q 280 24 280 3 l 280 752 l 48 752 q 30 761 35 752 q 24 788 24 770 l 24 808 q 30 835 24 827 q 48 844 35 844 l 614 844 z "},"Ț":{"ha":662,"x_min":24,"x_max":637,"o":"m 24 0 m 328 -2 q 292 4 303 -2 q 280 24 280 11 l 280 752 l 48 752 q 30 761 35 752 q 24 788 24 770 l 24 808 q 30 835 24 827 q 48 844 35 844 l 614 844 q 632 835 627 844 q 637 808 637 827 l 637 788 q 632 761 637 770 q 614 752 627 752 l 387 752 l 387 24 q 338 -2 387 -2 l 328 -2 m 260 -283 q 236 -279 247 -283 q 226 -265 226 -275 q 229 -250 226 -258 q 241 -228 233 -241 q 267 -168 257 -197 q 277 -100 277 -139 q 289 -72 277 -83 q 326 -62 302 -62 l 336 -62 q 372 -71 359 -62 q 385 -96 385 -80 q 363 -192 385 -149 q 312 -259 341 -235 q 260 -283 282 -283 z "},"Ṭ":{"ha":662,"x_min":24,"x_max":637,"o":"m 24 0 m 328 -2 q 292 4 303 -2 q 280 24 280 11 l 280 752 l 48 752 q 30 761 35 752 q 24 788 24 770 l 24 808 q 30 835 24 827 q 48 844 35 844 l 614 844 q 632 835 627 844 q 637 808 637 827 l 637 788 q 632 761 637 770 q 614 752 627 752 l 387 752 l 387 24 q 338 -2 387 -2 l 328 -2 z "},"U":{"ha":859,"x_min":100,"x_max":758,"o":"m 429 -7 q 250 26 324 -7 q 138 121 176 59 q 100 271 100 184 l 100 820 q 149 847 100 847 l 158 847 q 206 820 206 847 l 206 267 q 235 172 206 214 q 315 108 264 131 q 429 85 366 85 q 544 108 493 85 q 624 173 595 132 q 652 267 652 214 l 652 820 q 701 847 652 847 l 711 847 q 758 820 758 847 l 758 271 q 720 121 758 184 q 608 26 682 59 q 429 -7 534 -7 z "},"Ú":{"ha":859,"x_min":100,"x_max":758,"o":"m 100 0 m 429 -7 q 250 26 324 -7 q 138 121 176 59 q 100 271 100 184 l 100 820 q 149 847 100 847 l 158 847 q 206 820 206 847 l 206 267 q 235 172 206 214 q 315 108 264 131 q 429 85 366 85 q 544 108 493 85 q 624 173 595 132 q 652 267 652 214 l 652 820 q 701 847 652 847 l 711 847 q 758 820 758 847 l 758 271 q 720 121 758 184 q 608 26 682 59 q 429 -7 534 -7 m 408 919 q 380 930 380 919 q 393 962 380 939 q 451 1065 405 985 q 478 1088 460 1081 q 526 1096 496 1096 q 570 1093 556 1096 q 583 1080 583 1089 q 578 1065 583 1074 q 552 1034 572 1057 q 499 973 531 1010 l 470 940 q 444 924 460 930 q 408 919 428 919 z "},"Ŭ":{"ha":859,"x_min":100,"x_max":758,"o":"m 100 0 m 429 -7 q 250 26 324 -7 q 138 121 176 59 q 100 271 100 184 l 100 820 q 149 847 100 847 l 158 847 q 206 820 206 847 l 206 267 q 235 172 206 214 q 315 108 264 131 q 429 85 366 85 q 544 108 493 85 q 624 173 595 132 q 652 267 652 214 l 652 820 q 701 847 652 847 l 711 847 q 758 820 758 847 l 758 271 q 720 121 758 184 q 608 26 682 59 q 429 -7 534 -7 m 431 919 q 346 935 385 919 q 281 981 306 950 q 256 1057 256 1013 q 260 1070 256 1066 q 274 1075 264 1075 q 288 1072 284 1075 q 295 1059 292 1068 q 300 1045 298 1049 q 348 1009 313 1021 q 431 998 383 998 q 512 1009 478 998 q 559 1045 547 1021 l 566 1059 q 573 1072 569 1068 q 586 1075 576 1075 q 600 1070 596 1075 q 604 1057 604 1066 q 579 981 604 1013 q 515 935 555 950 q 431 919 475 919 z "},"Û":{"ha":859,"x_min":100,"x_max":758,"o":"m 100 0 m 429 -7 q 250 26 324 -7 q 138 121 176 59 q 100 271 100 184 l 100 820 q 149 847 100 847 l 158 847 q 206 820 206 847 l 206 267 q 235 172 206 214 q 315 108 264 131 q 429 85 366 85 q 544 108 493 85 q 624 173 595 132 q 652 267 652 214 l 652 820 q 701 847 652 847 l 711 847 q 758 820 758 847 l 758 271 q 720 121 758 184 q 608 26 682 59 q 429 -7 534 -7 m 311 907 q 283 924 283 907 q 291 946 283 932 l 358 1052 q 414 1078 376 1078 l 444 1078 q 499 1052 482 1078 l 568 946 q 576 926 576 935 q 547 907 576 907 l 544 907 q 523 911 532 907 q 504 924 513 915 l 429 1013 l 355 924 q 314 907 338 907 l 311 907 z "},"Ü":{"ha":859,"x_min":100,"x_max":758,"o":"m 100 0 m 429 -7 q 250 26 324 -7 q 138 121 176 59 q 100 271 100 184 l 100 820 q 149 847 100 847 l 158 847 q 206 820 206 847 l 206 267 q 235 172 206 214 q 315 108 264 131 q 429 85 366 85 q 544 108 493 85 q 624 173 595 132 q 652 267 652 214 l 652 820 q 701 847 652 847 l 711 847 q 758 820 758 847 l 758 271 q 720 121 758 184 q 608 26 682 59 q 429 -7 534 -7 m 341 945 q 293 971 293 945 l 293 1033 q 346 1060 293 1060 q 394 1033 394 1060 l 394 971 q 341 945 394 945 m 515 945 q 467 971 467 945 l 467 1033 q 519 1060 467 1060 q 568 1033 568 1060 l 568 971 q 515 945 568 945 z "},"Ụ":{"ha":859,"x_min":100,"x_max":758,"o":"m 100 0 m 429 -7 q 250 26 324 -7 q 138 121 176 59 q 100 271 100 184 l 100 820 q 149 847 100 847 l 158 847 q 206 820 206 847 l 206 267 q 235 172 206 214 q 315 108 264 131 q 429 85 366 85 q 544 108 493 85 q 624 173 595 132 q 652 267 652 214 l 652 820 q 701 847 652 847 l 711 847 q 758 820 758 847 l 758 271 q 720 121 758 184 q 608 26 682 59 q 429 -7 534 -7 z "},"Ù":{"ha":859,"x_min":100,"x_max":758,"o":"m 100 0 m 429 -7 q 250 26 324 -7 q 138 121 176 59 q 100 271 100 184 l 100 820 q 149 847 100 847 l 158 847 q 206 820 206 847 l 206 267 q 235 172 206 214 q 315 108 264 131 q 429 85 366 85 q 544 108 493 85 q 624 173 595 132 q 652 267 652 214 l 652 820 q 701 847 652 847 l 711 847 q 758 820 758 847 l 758 271 q 720 121 758 184 q 608 26 682 59 q 429 -7 534 -7 m 462 919 q 427 924 443 919 q 401 940 411 930 l 352 996 q 297 1059 308 1046 q 287 1080 287 1072 q 301 1093 287 1089 q 345 1096 315 1096 q 392 1089 374 1096 q 420 1065 410 1082 q 477 963 464 988 q 490 930 490 939 q 483 922 490 924 q 462 919 477 919 z "},"Ủ":{"ha":859,"x_min":100,"x_max":758,"o":"m 100 0 m 429 -7 q 250 26 324 -7 q 138 121 176 59 q 100 271 100 184 l 100 820 q 149 847 100 847 l 158 847 q 206 820 206 847 l 206 267 q 235 172 206 214 q 315 108 264 131 q 429 85 366 85 q 544 108 493 85 q 624 173 595 132 q 652 267 652 214 l 652 820 q 701 847 652 847 l 711 847 q 758 820 758 847 l 758 271 q 720 121 758 184 q 608 26 682 59 q 429 -7 534 -7 m 438 892 q 413 898 428 892 q 398 912 398 905 q 405 931 398 922 q 428 952 412 939 q 461 985 449 969 q 473 1023 473 1001 q 460 1047 473 1039 q 428 1055 448 1055 q 399 1052 410 1055 q 381 1044 389 1048 q 372 1040 374 1040 q 355 1056 366 1040 q 344 1080 344 1071 q 358 1097 344 1088 q 395 1111 373 1105 q 438 1117 417 1117 q 487 1109 462 1117 q 530 1082 512 1101 q 547 1032 547 1063 q 525 964 547 996 q 475 912 503 932 q 438 892 448 892 z "},"Ư":{"ha":859,"x_min":100,"x_max":883,"o":"m 883 916 q 852 839 883 868 q 758 808 821 810 l 758 271 q 720 121 758 184 q 608 26 682 59 q 429 -7 534 -7 q 250 26 324 -7 q 138 121 176 59 q 100 271 100 184 l 100 820 q 149 847 100 847 l 158 847 q 206 820 206 847 l 206 267 q 235 172 206 214 q 315 108 264 131 q 429 85 366 85 q 544 108 493 85 q 624 173 595 132 q 652 267 652 214 l 652 820 q 701 847 652 847 l 743 847 q 794 859 779 847 q 810 888 810 871 q 806 917 812 904 q 788 945 800 930 q 778 962 779 958 q 788 981 778 975 l 817 1001 q 832 1006 824 1006 q 857 991 845 1006 q 876 955 869 977 q 883 916 883 934 z "},"Ứ":{"ha":859,"x_min":100,"x_max":883,"o":"m 408 919 q 380 930 380 919 q 393 962 380 939 q 451 1065 405 985 q 478 1088 460 1081 q 526 1096 496 1096 q 570 1093 556 1096 q 583 1080 583 1089 q 578 1065 583 1074 q 552 1034 572 1057 q 499 973 531 1010 l 470 940 q 444 924 460 930 q 408 919 428 919 m 883 916 q 852 839 883 868 q 758 808 821 810 l 758 271 q 720 121 758 184 q 608 26 682 59 q 429 -7 534 -7 q 250 26 324 -7 q 138 121 176 59 q 100 271 100 184 l 100 820 q 149 847 100 847 l 158 847 q 206 820 206 847 l 206 267 q 235 172 206 214 q 315 108 264 131 q 429 85 366 85 q 544 108 493 85 q 624 173 595 132 q 652 267 652 214 l 652 820 q 701 847 652 847 l 743 847 q 794 859 779 847 q 810 888 810 871 q 806 917 812 904 q 788 945 800 930 q 778 962 779 958 q 788 981 778 975 l 817 1001 q 832 1006 824 1006 q 857 991 845 1006 q 876 955 869 977 q 883 916 883 934 z "},"Ự":{"ha":859,"x_min":100,"x_max":883,"o":"m 883 916 q 852 839 883 868 q 758 808 821 810 l 758 271 q 720 121 758 184 q 608 26 682 59 q 429 -7 534 -7 q 250 26 324 -7 q 138 121 176 59 q 100 271 100 184 l 100 820 q 149 847 100 847 l 158 847 q 206 820 206 847 l 206 267 q 235 172 206 214 q 315 108 264 131 q 429 85 366 85 q 544 108 493 85 q 624 173 595 132 q 652 267 652 214 l 652 820 q 701 847 652 847 l 743 847 q 794 859 779 847 q 810 888 810 871 q 806 917 812 904 q 788 945 800 930 q 778 962 779 958 q 788 981 778 975 l 817 1001 q 832 1006 824 1006 q 857 991 845 1006 q 876 955 869 977 q 883 916 883 934 m 436 -96 q 484 -123 484 -96 l 484 -184 q 431 -211 484 -211 q 382 -184 382 -211 l 382 -123 q 436 -96 382 -96 z "},"Ừ":{"ha":859,"x_min":100,"x_max":883,"o":"m 462 919 q 427 924 443 919 q 401 940 411 930 l 352 996 q 297 1059 308 1046 q 287 1080 287 1072 q 301 1093 287 1089 q 345 1096 315 1096 q 392 1089 374 1096 q 420 1065 410 1082 q 477 963 464 988 q 490 930 490 939 q 483 922 490 924 q 462 919 477 919 m 883 916 q 852 839 883 868 q 758 808 821 810 l 758 271 q 720 121 758 184 q 608 26 682 59 q 429 -7 534 -7 q 250 26 324 -7 q 138 121 176 59 q 100 271 100 184 l 100 820 q 149 847 100 847 l 158 847 q 206 820 206 847 l 206 267 q 235 172 206 214 q 315 108 264 131 q 429 85 366 85 q 544 108 493 85 q 624 173 595 132 q 652 267 652 214 l 652 820 q 701 847 652 847 l 743 847 q 794 859 779 847 q 810 888 810 871 q 806 917 812 904 q 788 945 800 930 q 778 962 779 958 q 788 981 778 975 l 817 1001 q 832 1006 824 1006 q 857 991 845 1006 q 876 955 869 977 q 883 916 883 934 z "},"Ử":{"ha":859,"x_min":100,"x_max":883,"o":"m 372 1040 q 355 1056 366 1040 q 344 1080 344 1071 q 358 1097 344 1088 q 395 1111 373 1105 q 438 1117 417 1117 q 487 1109 462 1117 q 530 1082 512 1101 q 547 1032 547 1063 q 525 964 547 996 q 475 912 503 932 q 438 892 448 892 q 413 898 428 892 q 398 912 398 905 q 405 931 398 922 q 428 952 412 939 q 461 985 449 969 q 473 1023 473 1001 q 460 1047 473 1039 q 428 1055 448 1055 q 400 1052 410 1055 q 382 1044 389 1048 q 372 1040 374 1040 m 883 916 q 852 839 883 868 q 758 808 821 810 l 758 271 q 720 121 758 184 q 608 26 682 59 q 429 -7 534 -7 q 250 26 324 -7 q 138 121 176 59 q 100 271 100 184 l 100 820 q 149 847 100 847 l 158 847 q 206 820 206 847 l 206 267 q 235 172 206 214 q 315 108 264 131 q 429 85 366 85 q 544 108 493 85 q 624 173 595 132 q 652 267 652 214 l 652 820 q 701 847 652 847 l 743 847 q 794 859 779 847 q 810 888 810 871 q 806 917 812 904 q 788 945 800 930 q 778 962 779 958 q 788 981 778 975 l 817 1001 q 832 1006 824 1006 q 857 991 845 1006 q 876 955 869 977 q 883 916 883 934 z "},"Ữ":{"ha":859,"x_min":100,"x_max":883,"o":"m 233 932 q 221 946 221 937 q 225 962 221 954 q 271 1026 244 1006 q 336 1045 298 1045 q 387 1038 361 1045 q 451 1017 412 1031 q 505 999 483 1005 q 546 993 528 993 q 574 1001 562 993 q 598 1028 586 1008 q 622 1046 610 1046 q 634 1042 626 1046 l 644 1039 q 654 1033 651 1036 q 658 1024 658 1029 q 652 1008 658 1017 q 607 945 633 964 q 543 926 580 926 q 491 933 517 926 q 422 954 465 940 q 368 972 389 966 q 330 978 347 978 q 303 969 315 978 q 279 941 292 961 q 268 928 273 932 q 257 924 263 924 q 245 927 253 924 l 233 932 m 883 916 q 852 839 883 868 q 758 808 821 810 l 758 271 q 720 121 758 184 q 608 26 682 59 q 429 -7 534 -7 q 250 26 324 -7 q 138 121 176 59 q 100 271 100 184 l 100 820 q 149 847 100 847 l 158 847 q 206 820 206 847 l 206 267 q 235 172 206 214 q 315 108 264 131 q 429 85 366 85 q 544 108 493 85 q 624 173 595 132 q 652 267 652 214 l 652 820 q 701 847 652 847 l 743 847 q 794 859 779 847 q 810 888 810 871 q 806 917 812 904 q 788 945 800 930 q 778 962 779 958 q 788 981 778 975 l 817 1001 q 832 1006 824 1006 q 857 991 845 1006 q 876 955 869 977 q 883 916 883 934 z "},"Ű":{"ha":859,"x_min":100,"x_max":758,"o":"m 100 0 m 429 -7 q 250 26 324 -7 q 138 121 176 59 q 100 271 100 184 l 100 820 q 149 847 100 847 l 158 847 q 206 820 206 847 l 206 267 q 235 172 206 214 q 315 108 264 131 q 429 85 366 85 q 544 108 493 85 q 624 173 595 132 q 652 267 652 214 l 652 820 q 701 847 652 847 l 711 847 q 758 820 758 847 l 758 271 q 720 121 758 184 q 608 26 682 59 q 429 -7 534 -7 m 322 919 q 294 930 294 919 q 307 963 294 939 q 364 1065 320 988 q 392 1089 374 1082 q 439 1096 410 1096 q 483 1093 469 1096 q 497 1080 497 1089 q 492 1066 497 1074 q 470 1038 488 1059 q 425 986 452 1017 l 384 940 q 322 919 363 919 m 500 919 q 478 922 485 919 q 472 930 472 924 q 486 965 472 939 q 541 1065 499 991 q 569 1089 551 1082 q 616 1096 587 1096 q 660 1093 646 1096 q 674 1080 674 1089 q 669 1066 674 1074 q 647 1038 665 1059 q 602 986 629 1017 l 561 940 q 500 919 541 919 z "},"Ū":{"ha":859,"x_min":100,"x_max":758,"o":"m 100 0 m 429 -7 q 250 26 324 -7 q 138 121 176 59 q 100 271 100 184 l 100 820 q 149 847 100 847 l 158 847 q 206 820 206 847 l 206 267 q 235 172 206 214 q 315 108 264 131 q 429 85 366 85 q 544 108 493 85 q 624 173 595 132 q 652 267 652 214 l 652 820 q 701 847 652 847 l 711 847 q 758 820 758 847 l 758 271 q 720 121 758 184 q 608 26 682 59 q 429 -7 534 -7 m 296 951 q 277 960 283 951 q 271 987 271 968 l 271 999 q 277 1027 271 1018 q 296 1036 283 1036 l 565 1036 q 583 1027 577 1036 q 588 999 588 1018 l 588 987 q 583 959 588 968 q 565 951 577 951 l 296 951 z "},"Ų":{"ha":859,"x_min":100,"x_max":758,"o":"m 711 847 q 758 820 758 847 l 758 271 q 697 90 758 160 q 520 1 635 20 l 520 -1 q 514 -28 520 -10 q 505 -75 505 -60 q 527 -125 505 -113 q 581 -136 549 -136 q 610 -131 590 -136 q 643 -125 631 -125 q 666 -155 666 -125 q 641 -207 666 -193 q 567 -221 616 -221 q 454 -181 484 -221 q 425 -98 425 -142 q 449 -7 425 -37 l 429 -7 q 250 26 324 -7 q 138 121 176 59 q 100 271 100 184 l 100 820 q 149 847 100 847 l 158 847 q 206 820 206 847 l 206 267 q 235 172 206 214 q 315 108 264 131 q 429 85 366 85 q 544 108 493 85 q 624 173 595 132 q 652 267 652 214 l 652 820 q 701 847 652 847 l 711 847 z "},"Ů":{"ha":859,"x_min":100,"x_max":758,"o":"m 100 0 m 429 -7 q 250 26 324 -7 q 138 121 176 59 q 100 271 100 184 l 100 820 q 149 847 100 847 l 158 847 q 206 820 206 847 l 206 267 q 235 172 206 214 q 315 108 264 131 q 429 85 366 85 q 544 108 493 85 q 624 173 595 132 q 652 267 652 214 l 652 820 q 701 847 652 847 l 711 847 q 758 820 758 847 l 758 271 q 720 121 758 184 q 608 26 682 59 q 429 -7 534 -7 m 429 893 q 378 906 401 893 q 341 943 355 920 q 328 994 328 966 q 341 1046 328 1022 q 378 1083 355 1069 q 429 1097 401 1097 q 480 1083 457 1097 q 517 1046 504 1069 q 531 994 531 1022 q 517 943 531 966 q 480 906 504 920 q 429 893 457 893 m 429 935 q 472 952 454 935 q 490 994 490 969 q 472 1037 490 1019 q 429 1055 454 1055 q 387 1037 404 1055 q 370 994 370 1020 q 387 952 370 969 q 429 935 404 935 z "},"Ũ":{"ha":859,"x_min":100,"x_max":758,"o":"m 100 0 m 429 -7 q 250 26 324 -7 q 138 121 176 59 q 100 271 100 184 l 100 820 q 149 847 100 847 l 158 847 q 206 820 206 847 l 206 267 q 235 172 206 214 q 315 108 264 131 q 429 85 366 85 q 544 108 493 85 q 624 173 595 132 q 652 267 652 214 l 652 820 q 701 847 652 847 l 711 847 q 758 820 758 847 l 758 271 q 720 121 758 184 q 608 26 682 59 q 429 -7 534 -7 m 233 932 q 221 946 221 937 q 225 962 221 954 q 271 1026 244 1006 q 336 1045 298 1045 q 387 1038 361 1045 q 451 1017 412 1031 q 505 999 483 1005 q 546 993 528 993 q 574 1001 562 993 q 598 1028 586 1008 q 622 1046 610 1046 q 634 1042 626 1046 l 644 1039 q 654 1033 651 1036 q 658 1024 658 1029 q 652 1008 658 1017 q 607 945 633 964 q 543 926 580 926 q 491 933 517 926 q 422 954 465 940 q 368 972 389 966 q 330 978 347 978 q 303 969 315 978 q 279 941 292 961 q 268 928 273 932 q 257 924 263 924 q 245 927 253 924 l 233 932 z "},"V":{"ha":744,"x_min":25,"x_max":719,"o":"m 353 -2 q 305 17 311 -2 l 29 810 q 25 826 25 819 q 38 841 25 836 q 77 847 52 847 l 88 847 q 136 827 130 847 l 359 184 l 372 121 l 375 121 l 389 185 l 611 827 q 660 847 618 847 l 667 847 q 719 826 719 847 q 715 809 719 819 l 439 17 q 391 -2 433 -2 l 353 -2 z "},"W":{"ha":1063,"x_min":18,"x_max":1045,"o":"m 277 -2 q 228 17 232 -2 l 22 809 q 20 818 21 812 q 18 826 18 823 q 31 841 18 836 q 71 847 44 847 l 82 847 q 115 842 102 847 q 130 827 127 838 l 283 234 q 301 144 288 216 q 305 121 304 123 q 334 237 320 184 l 480 826 q 527 847 485 847 l 546 847 q 593 826 589 847 l 743 233 q 756 170 749 206 q 764 121 762 133 q 793 236 778 180 l 939 827 q 986 847 943 847 l 994 847 q 1045 826 1045 847 q 1042 809 1045 821 l 833 17 q 785 -2 828 -2 l 736 -2 q 688 17 692 -2 l 555 508 l 531 665 l 505 508 l 374 17 q 326 -2 370 -2 l 277 -2 z "},"Ẃ":{"ha":1063,"x_min":18,"x_max":1045,"o":"m 18 0 m 277 -2 q 228 17 232 -2 l 22 809 q 20 818 21 812 q 18 826 18 823 q 31 841 18 836 q 71 847 44 847 l 82 847 q 115 842 102 847 q 130 827 127 838 l 283 234 q 301 144 288 216 q 305 121 304 123 q 334 237 320 184 l 480 826 q 527 847 485 847 l 546 847 q 593 826 589 847 l 743 233 q 756 170 749 206 q 764 121 762 133 q 793 236 778 180 l 939 827 q 986 847 943 847 l 994 847 q 1045 826 1045 847 q 1042 809 1045 821 l 833 17 q 785 -2 828 -2 l 736 -2 q 688 17 692 -2 l 555 508 l 531 665 l 505 508 l 374 17 q 326 -2 370 -2 l 277 -2 m 511 919 q 484 930 484 919 q 496 962 484 939 q 554 1065 508 985 q 582 1088 564 1081 q 629 1096 600 1096 q 673 1093 659 1096 q 686 1080 686 1089 q 681 1065 686 1074 q 655 1034 675 1057 q 602 973 634 1010 l 573 940 q 547 924 564 930 q 511 919 531 919 z "},"Ŵ":{"ha":1063,"x_min":18,"x_max":1045,"o":"m 18 0 m 277 -2 q 228 17 232 -2 l 22 809 q 20 818 21 812 q 18 826 18 823 q 31 841 18 836 q 71 847 44 847 l 82 847 q 115 842 102 847 q 130 827 127 838 l 283 234 q 301 144 288 216 q 305 121 304 123 q 334 237 320 184 l 480 826 q 527 847 485 847 l 546 847 q 593 826 589 847 l 743 233 q 756 170 749 206 q 764 121 762 133 q 793 236 778 180 l 939 827 q 986 847 943 847 l 994 847 q 1045 826 1045 847 q 1042 809 1045 821 l 833 17 q 785 -2 828 -2 l 736 -2 q 688 17 692 -2 l 555 508 l 531 665 l 505 508 l 374 17 q 326 -2 370 -2 l 277 -2 m 414 907 q 386 924 386 907 q 393 946 386 932 l 460 1052 q 516 1078 478 1078 l 546 1078 q 602 1052 585 1078 l 671 946 q 678 926 678 935 q 649 907 678 907 l 646 907 q 625 911 635 907 q 606 924 616 915 l 531 1013 l 457 924 q 416 907 441 907 l 414 907 z "},"Ẅ":{"ha":1063,"x_min":18,"x_max":1045,"o":"m 18 0 m 277 -2 q 228 17 232 -2 l 22 809 q 20 818 21 812 q 18 826 18 823 q 31 841 18 836 q 71 847 44 847 l 82 847 q 115 842 102 847 q 130 827 127 838 l 283 234 q 301 144 288 216 q 305 121 304 123 q 334 237 320 184 l 480 826 q 527 847 485 847 l 546 847 q 593 826 589 847 l 743 233 q 756 170 749 206 q 764 121 762 133 q 793 236 778 180 l 939 827 q 986 847 943 847 l 994 847 q 1045 826 1045 847 q 1042 809 1045 821 l 833 17 q 785 -2 828 -2 l 736 -2 q 688 17 692 -2 l 555 508 l 531 665 l 505 508 l 374 17 q 326 -2 370 -2 l 277 -2 m 444 945 q 395 971 395 945 l 395 1033 q 448 1060 395 1060 q 496 1033 496 1060 l 496 971 q 444 945 496 945 m 617 945 q 569 971 569 945 l 569 1033 q 622 1060 569 1060 q 670 1033 670 1060 l 670 971 q 617 945 670 945 z "},"Ẁ":{"ha":1063,"x_min":18,"x_max":1045,"o":"m 18 0 m 277 -2 q 228 17 232 -2 l 22 809 q 20 818 21 812 q 18 826 18 823 q 31 841 18 836 q 71 847 44 847 l 82 847 q 115 842 102 847 q 130 827 127 838 l 283 234 q 301 144 288 216 q 305 121 304 123 q 334 237 320 184 l 480 826 q 527 847 485 847 l 546 847 q 593 826 589 847 l 743 233 q 756 170 749 206 q 764 121 762 133 q 793 236 778 180 l 939 827 q 986 847 943 847 l 994 847 q 1045 826 1045 847 q 1042 809 1045 821 l 833 17 q 785 -2 828 -2 l 736 -2 q 688 17 692 -2 l 555 508 l 531 665 l 505 508 l 374 17 q 326 -2 370 -2 l 277 -2 m 565 919 q 530 924 546 919 q 504 940 514 930 l 455 996 q 400 1059 411 1046 q 390 1080 390 1072 q 404 1093 390 1089 q 448 1096 418 1096 q 495 1089 477 1096 q 523 1065 513 1082 q 580 963 567 988 q 593 930 593 939 q 586 922 593 924 q 565 919 580 919 z "},"X":{"ha":737,"x_min":24,"x_max":714,"o":"m 80 -2 q 37 3 50 -2 q 24 18 24 7 q 34 40 24 26 l 304 440 l 62 804 q 53 826 53 819 q 109 847 53 847 l 126 847 q 177 829 164 847 l 370 538 l 569 829 q 589 843 575 838 q 621 847 604 847 l 628 847 q 671 842 658 847 q 684 826 684 837 q 681 816 684 822 q 674 804 677 810 l 433 446 l 705 40 q 714 18 714 26 q 701 3 714 8 q 659 -2 688 -2 l 639 -2 q 606 2 618 -2 q 587 16 594 5 l 366 347 l 141 15 q 89 -2 131 -2 l 80 -2 z "},"Y":{"ha":674,"x_min":22,"x_max":652,"o":"m 332 -2 q 283 24 283 -2 l 283 433 l 31 804 q 22 826 22 817 q 77 847 22 847 l 90 847 q 123 843 111 847 q 142 829 136 839 l 340 532 l 543 829 q 597 847 553 847 l 605 847 q 641 841 630 846 q 652 826 652 836 q 642 804 652 820 l 390 429 l 390 24 q 341 -2 390 -2 l 332 -2 z "},"Ý":{"ha":674,"x_min":22,"x_max":652,"o":"m 22 0 m 332 -2 q 283 24 283 -2 l 283 433 l 31 804 q 22 826 22 817 q 77 847 22 847 l 90 847 q 123 843 111 847 q 142 829 136 839 l 340 532 l 543 829 q 597 847 553 847 l 605 847 q 641 841 630 846 q 652 826 652 836 q 642 804 652 820 l 390 429 l 390 24 q 341 -2 390 -2 l 332 -2 m 317 919 q 289 930 289 919 q 301 962 289 939 q 359 1065 313 985 q 387 1088 369 1081 q 434 1096 405 1096 q 478 1093 465 1096 q 492 1080 492 1089 q 486 1065 492 1074 q 460 1034 481 1057 q 408 973 439 1010 l 378 940 q 353 924 369 930 q 317 919 336 919 z "},"Ŷ":{"ha":674,"x_min":22,"x_max":652,"o":"m 22 0 m 332 -2 q 283 24 283 -2 l 283 433 l 31 804 q 22 826 22 817 q 77 847 22 847 l 90 847 q 123 843 111 847 q 142 829 136 839 l 340 532 l 543 829 q 597 847 553 847 l 605 847 q 641 841 630 846 q 652 826 652 836 q 642 804 652 820 l 390 429 l 390 24 q 341 -2 390 -2 l 332 -2 m 219 907 q 191 924 191 907 q 199 946 191 932 l 266 1052 q 321 1078 283 1078 l 351 1078 q 407 1052 390 1078 l 476 946 q 484 926 484 935 q 454 907 484 907 l 452 907 q 431 911 440 907 q 412 924 421 915 l 336 1013 l 262 924 q 222 907 246 907 l 219 907 z "},"Ÿ":{"ha":674,"x_min":22,"x_max":652,"o":"m 22 0 m 332 -2 q 283 24 283 -2 l 283 433 l 31 804 q 22 826 22 817 q 77 847 22 847 l 90 847 q 123 843 111 847 q 142 829 136 839 l 340 532 l 543 829 q 597 847 553 847 l 605 847 q 641 841 630 846 q 652 826 652 836 q 642 804 652 820 l 390 429 l 390 24 q 341 -2 390 -2 l 332 -2 m 249 945 q 201 971 201 945 l 201 1033 q 254 1060 201 1060 q 302 1033 302 1060 l 302 971 q 249 945 302 945 m 422 945 q 374 971 374 945 l 374 1033 q 427 1060 374 1060 q 475 1033 475 1060 l 475 971 q 422 945 475 945 z "},"Ỵ":{"ha":674,"x_min":22,"x_max":652,"o":"m 22 0 m 332 -2 q 283 24 283 -2 l 283 433 l 31 804 q 22 826 22 817 q 77 847 22 847 l 90 847 q 123 843 111 847 q 142 829 136 839 l 340 532 l 543 829 q 597 847 553 847 l 605 847 q 641 841 630 846 q 652 826 652 836 q 642 804 652 820 l 390 429 l 390 24 q 341 -2 390 -2 l 332 -2 z "},"Ỳ":{"ha":674,"x_min":22,"x_max":652,"o":"m 22 0 m 332 -2 q 283 24 283 -2 l 283 433 l 31 804 q 22 826 22 817 q 77 847 22 847 l 90 847 q 123 843 111 847 q 142 829 136 839 l 340 532 l 543 829 q 597 847 553 847 l 605 847 q 641 841 630 846 q 652 826 652 836 q 642 804 652 820 l 390 429 l 390 24 q 341 -2 390 -2 l 332 -2 m 370 919 q 335 924 351 919 q 309 940 319 930 l 260 996 q 206 1059 216 1046 q 195 1080 195 1072 q 209 1093 195 1089 q 254 1096 223 1096 q 300 1089 283 1096 q 328 1065 318 1082 q 385 963 372 988 q 398 930 398 939 q 392 922 398 924 q 370 919 385 919 z "},"Ỷ":{"ha":674,"x_min":22,"x_max":652,"o":"m 22 0 m 332 -2 q 283 24 283 -2 l 283 433 l 31 804 q 22 826 22 817 q 77 847 22 847 l 90 847 q 123 843 111 847 q 142 829 136 839 l 340 532 l 543 829 q 597 847 553 847 l 605 847 q 641 841 630 846 q 652 826 652 836 q 642 804 652 820 l 390 429 l 390 24 q 341 -2 390 -2 l 332 -2 m 347 892 q 321 898 336 892 q 307 912 307 905 q 314 931 307 922 q 336 952 321 939 q 369 985 357 969 q 381 1023 381 1001 q 369 1047 381 1039 q 336 1055 356 1055 q 308 1052 319 1055 q 290 1044 297 1048 q 281 1040 283 1040 q 263 1056 274 1040 q 252 1080 252 1071 q 267 1097 252 1088 q 303 1111 281 1105 q 347 1117 326 1117 q 395 1109 370 1117 q 438 1082 420 1101 q 456 1032 456 1063 q 433 964 456 996 q 384 912 411 932 q 347 892 356 892 z "},"Ỹ":{"ha":674,"x_min":22,"x_max":652,"o":"m 22 0 m 332 -2 q 283 24 283 -2 l 283 433 l 31 804 q 22 826 22 817 q 77 847 22 847 l 90 847 q 123 843 111 847 q 142 829 136 839 l 340 532 l 543 829 q 597 847 553 847 l 605 847 q 641 841 630 846 q 652 826 652 836 q 642 804 652 820 l 390 429 l 390 24 q 341 -2 390 -2 l 332 -2 m 140 932 q 129 946 129 937 q 133 962 129 954 q 179 1026 152 1006 q 244 1045 205 1045 q 294 1038 269 1045 q 359 1017 320 1031 q 413 999 391 1005 q 454 993 435 993 q 482 1001 470 993 q 506 1028 494 1008 q 530 1046 518 1046 q 542 1042 534 1046 l 551 1039 q 562 1033 559 1036 q 566 1024 566 1029 q 560 1008 566 1017 q 514 945 541 964 q 450 926 488 926 q 398 933 425 926 q 330 954 372 940 q 276 972 297 966 q 237 978 255 978 q 211 969 222 978 q 186 941 199 961 q 176 928 180 932 q 165 924 171 924 q 153 927 161 924 l 140 932 z "},"Z":{"ha":743,"x_min":46,"x_max":688,"o":"m 75 0 q 56 23 66 0 q 46 64 46 45 q 50 79 46 73 l 544 752 l 110 752 q 91 762 97 752 q 85 793 85 772 l 85 803 q 91 834 85 825 q 110 844 97 844 l 662 844 q 672 833 666 844 q 684 807 679 822 q 688 780 688 792 q 685 766 688 771 l 191 92 l 662 92 q 681 82 675 92 q 686 51 686 73 l 686 41 q 681 10 686 20 q 662 0 675 0 l 75 0 z "},"Ź":{"ha":743,"x_min":46,"x_max":688,"o":"m 46 0 m 75 0 q 56 23 66 0 q 46 64 46 45 q 50 79 46 73 l 544 752 l 110 752 q 91 762 97 752 q 85 793 85 772 l 85 803 q 91 834 85 825 q 110 844 97 844 l 662 844 q 672 833 666 844 q 684 807 679 822 q 688 780 688 792 q 685 766 688 771 l 191 92 l 662 92 q 681 82 675 92 q 686 51 686 73 l 686 41 q 681 10 686 20 q 662 0 675 0 l 75 0 m 351 919 q 323 930 323 919 q 335 962 323 939 q 393 1065 347 985 q 421 1088 403 1081 q 468 1096 439 1096 q 512 1093 498 1096 q 526 1080 526 1089 q 520 1065 526 1074 q 494 1034 515 1057 q 441 973 473 1010 l 412 940 q 387 924 403 930 q 351 919 370 919 z "},"Ž":{"ha":743,"x_min":46,"x_max":688,"o":"m 46 0 m 75 0 q 56 23 66 0 q 46 64 46 45 q 50 79 46 73 l 544 752 l 110 752 q 91 762 97 752 q 85 793 85 772 l 85 803 q 91 834 85 825 q 110 844 97 844 l 662 844 q 672 833 666 844 q 684 807 679 822 q 688 780 688 792 q 685 766 688 771 l 191 92 l 662 92 q 681 82 675 92 q 686 51 686 73 l 686 41 q 681 10 686 20 q 662 0 675 0 l 75 0 m 356 914 q 300 941 320 914 l 233 1047 q 227 1069 227 1059 q 234 1081 227 1077 q 254 1086 241 1086 l 256 1086 q 297 1070 281 1086 l 371 981 l 446 1070 q 465 1082 456 1078 q 487 1086 475 1086 l 489 1086 q 510 1081 503 1086 q 518 1068 518 1076 q 511 1047 518 1059 l 442 941 q 387 914 423 914 l 356 914 z "},"Ż":{"ha":743,"x_min":46,"x_max":688,"o":"m 46 0 m 75 0 q 56 23 66 0 q 46 64 46 45 q 50 79 46 73 l 544 752 l 110 752 q 91 762 97 752 q 85 793 85 772 l 85 803 q 91 834 85 825 q 110 844 97 844 l 662 844 q 672 833 666 844 q 684 807 679 822 q 688 780 688 792 q 685 766 688 771 l 191 92 l 662 92 q 681 82 675 92 q 686 51 686 73 l 686 41 q 681 10 686 20 q 662 0 675 0 l 75 0 m 370 945 q 321 971 321 945 l 321 1033 q 334 1053 321 1045 q 375 1060 347 1060 q 423 1033 423 1060 l 423 971 q 370 945 423 945 z "},"Ẓ":{"ha":743,"x_min":46,"x_max":688,"o":"m 46 0 m 75 0 q 56 23 66 0 q 46 64 46 45 q 50 79 46 73 l 544 752 l 110 752 q 91 762 97 752 q 85 793 85 772 l 85 803 q 91 834 85 825 q 110 844 97 844 l 662 844 q 672 833 666 844 q 684 807 679 822 q 688 780 688 792 q 685 766 688 771 l 191 92 l 662 92 q 681 82 675 92 q 686 51 686 73 l 686 41 q 681 10 686 20 q 662 0 675 0 l 75 0 z "},"a":{"ha":657,"x_min":59,"x_max":575,"o":"m 265 -7 q 116 39 173 -7 q 59 174 59 84 q 117 316 59 268 q 257 377 174 363 q 459 393 340 391 l 459 450 q 428 523 459 496 q 327 551 397 551 q 233 538 273 551 q 157 508 193 526 q 139 500 142 500 q 121 512 131 500 q 104 539 111 524 q 97 561 97 554 q 129 595 97 576 q 214 625 161 613 q 323 637 266 637 q 498 588 436 637 q 561 449 561 538 l 561 178 q 568 65 561 100 q 575 26 575 30 q 552 5 575 12 q 510 -1 530 -1 q 486 17 494 -1 q 471 70 478 35 l 468 83 q 380 18 431 42 q 265 -7 330 -7 m 271 81 q 372 102 330 81 q 459 164 414 124 l 459 307 q 312 299 370 306 q 211 265 254 292 q 168 180 168 237 q 194 106 168 132 q 271 81 220 81 z "},"á":{"ha":657,"x_min":59,"x_max":575,"o":"m 59 0 m 265 -7 q 116 39 173 -7 q 59 174 59 84 q 117 316 59 268 q 257 377 174 363 q 459 393 340 391 l 459 450 q 428 523 459 496 q 327 551 397 551 q 233 538 273 551 q 157 508 193 526 q 139 500 142 500 q 121 512 131 500 q 104 539 111 524 q 97 561 97 554 q 129 595 97 576 q 214 625 161 613 q 323 637 266 637 q 498 588 436 637 q 561 449 561 538 l 561 178 q 568 65 561 100 q 575 26 575 30 q 552 5 575 12 q 510 -1 530 -1 q 486 17 494 -1 q 471 70 478 35 l 468 83 q 380 18 431 42 q 265 -7 330 -7 m 271 81 q 372 102 330 81 q 459 164 414 124 l 459 307 q 312 299 370 306 q 211 265 254 292 q 168 180 168 237 q 194 106 168 132 q 271 81 220 81 m 309 706 q 281 718 281 706 q 293 749 281 726 q 351 852 305 772 q 379 876 361 868 q 426 883 397 883 q 470 880 456 883 q 484 867 484 876 q 478 852 484 861 q 452 821 473 844 q 399 760 431 797 l 370 727 q 345 711 361 717 q 309 706 328 706 z "},"ă":{"ha":657,"x_min":59,"x_max":575,"o":"m 59 0 m 265 -7 q 116 39 173 -7 q 59 174 59 84 q 117 316 59 268 q 257 377 174 363 q 459 393 340 391 l 459 450 q 428 523 459 496 q 327 551 397 551 q 233 538 273 551 q 157 508 193 526 q 139 500 142 500 q 121 512 131 500 q 104 539 111 524 q 97 561 97 554 q 129 595 97 576 q 214 625 161 613 q 323 637 266 637 q 498 588 436 637 q 561 449 561 538 l 561 178 q 568 65 561 100 q 575 26 575 30 q 552 5 575 12 q 510 -1 530 -1 q 486 17 494 -1 q 471 70 478 35 l 468 83 q 380 18 431 42 q 265 -7 330 -7 m 271 81 q 372 102 330 81 q 459 164 414 124 l 459 307 q 312 299 370 306 q 211 265 254 292 q 168 180 168 237 q 194 106 168 132 q 271 81 220 81 m 330 706 q 245 722 285 706 q 181 768 205 737 q 156 844 156 800 q 160 858 156 853 q 174 862 164 862 q 188 859 184 862 q 195 846 191 855 q 200 832 198 836 q 248 796 213 808 q 330 785 283 785 q 412 796 378 785 q 459 832 446 808 l 465 846 q 472 859 469 855 q 486 862 476 862 q 500 858 496 862 q 504 844 504 853 q 479 768 504 800 q 415 722 454 737 q 330 706 375 706 z "},"ắ":{"ha":657,"x_min":59,"x_max":575,"o":"m 59 0 m 265 -7 q 116 39 173 -7 q 59 174 59 84 q 117 316 59 268 q 257 377 174 363 q 459 393 340 391 l 459 450 q 428 523 459 496 q 327 551 397 551 q 233 538 273 551 q 157 508 193 526 q 139 500 142 500 q 121 512 131 500 q 104 539 111 524 q 97 561 97 554 q 129 595 97 576 q 214 625 161 613 q 323 637 266 637 q 498 588 436 637 q 561 449 561 538 l 561 178 q 568 65 561 100 q 575 26 575 30 q 552 5 575 12 q 510 -1 530 -1 q 486 17 494 -1 q 471 70 478 35 l 468 83 q 380 18 431 42 q 265 -7 330 -7 m 271 81 q 372 102 330 81 q 459 164 414 124 l 459 307 q 312 299 370 306 q 211 265 254 292 q 168 180 168 237 q 194 106 168 132 q 271 81 220 81 m 330 706 q 245 722 285 706 q 181 768 205 737 q 156 844 156 800 q 160 858 156 853 q 174 862 164 862 q 188 859 184 862 q 195 846 191 855 q 200 832 198 836 q 248 796 213 808 q 330 785 283 785 q 412 796 378 785 q 459 832 446 808 l 465 846 q 472 859 469 855 q 486 862 476 862 q 500 858 496 862 q 504 844 504 853 q 479 768 504 800 q 415 722 454 737 q 330 706 375 706 m 309 884 q 281 896 281 884 q 294 927 281 904 q 352 1030 306 950 q 379 1054 361 1046 q 427 1061 397 1061 q 471 1058 457 1061 q 484 1045 484 1055 q 479 1031 484 1039 q 453 999 473 1023 q 400 939 432 975 l 371 905 q 345 890 361 895 q 309 884 329 884 z "},"ặ":{"ha":657,"x_min":59,"x_max":575,"o":"m 59 0 m 265 -7 q 116 39 173 -7 q 59 174 59 84 q 117 316 59 268 q 257 377 174 363 q 459 393 340 391 l 459 450 q 428 523 459 496 q 327 551 397 551 q 233 538 273 551 q 157 508 193 526 q 139 500 142 500 q 121 512 131 500 q 104 539 111 524 q 97 561 97 554 q 129 595 97 576 q 214 625 161 613 q 323 637 266 637 q 498 588 436 637 q 561 449 561 538 l 561 178 q 568 65 561 100 q 575 26 575 30 q 552 5 575 12 q 510 -1 530 -1 q 486 17 494 -1 q 471 70 478 35 l 468 83 q 380 18 431 42 q 265 -7 330 -7 m 271 81 q 372 102 330 81 q 459 164 414 124 l 459 307 q 312 299 370 306 q 211 265 254 292 q 168 180 168 237 q 194 106 168 132 q 271 81 220 81 m 330 706 q 245 722 285 706 q 181 768 205 737 q 156 844 156 800 q 160 858 156 853 q 174 862 164 862 q 188 859 184 862 q 195 846 191 855 q 200 832 198 836 q 248 796 213 808 q 330 785 283 785 q 412 796 378 785 q 459 832 446 808 l 465 846 q 472 859 469 855 q 486 862 476 862 q 500 858 496 862 q 504 844 504 853 q 479 768 504 800 q 415 722 454 737 q 330 706 375 706 z "},"ằ":{"ha":657,"x_min":59,"x_max":575,"o":"m 59 0 m 265 -7 q 116 39 173 -7 q 59 174 59 84 q 117 316 59 268 q 257 377 174 363 q 459 393 340 391 l 459 450 q 428 523 459 496 q 327 551 397 551 q 233 538 273 551 q 157 508 193 526 q 139 500 142 500 q 121 512 131 500 q 104 539 111 524 q 97 561 97 554 q 129 595 97 576 q 214 625 161 613 q 323 637 266 637 q 498 588 436 637 q 561 449 561 538 l 561 178 q 568 65 561 100 q 575 26 575 30 q 552 5 575 12 q 510 -1 530 -1 q 486 17 494 -1 q 471 70 478 35 l 468 83 q 380 18 431 42 q 265 -7 330 -7 m 271 81 q 372 102 330 81 q 459 164 414 124 l 459 307 q 312 299 370 306 q 211 265 254 292 q 168 180 168 237 q 194 106 168 132 q 271 81 220 81 m 330 706 q 245 722 285 706 q 181 768 205 737 q 156 844 156 800 q 160 858 156 853 q 174 862 164 862 q 188 859 184 862 q 195 846 191 855 q 200 832 198 836 q 248 796 213 808 q 330 785 283 785 q 412 796 378 785 q 459 832 446 808 l 465 846 q 472 859 469 855 q 486 862 476 862 q 500 858 496 862 q 504 844 504 853 q 479 768 504 800 q 415 722 454 737 q 330 706 375 706 m 363 884 q 328 890 344 884 q 302 905 312 895 l 253 961 q 198 1024 209 1011 q 188 1045 188 1038 q 202 1058 188 1055 q 246 1061 216 1061 q 293 1054 275 1061 q 321 1030 311 1047 q 378 929 365 954 q 391 896 391 904 q 384 887 391 890 q 363 884 378 884 z "},"ẳ":{"ha":657,"x_min":59,"x_max":575,"o":"m 59 0 m 265 -7 q 116 39 173 -7 q 59 174 59 84 q 117 316 59 268 q 257 377 174 363 q 459 393 340 391 l 459 450 q 428 523 459 496 q 327 551 397 551 q 233 538 273 551 q 157 508 193 526 q 139 500 142 500 q 121 512 131 500 q 104 539 111 524 q 97 561 97 554 q 129 595 97 576 q 214 625 161 613 q 323 637 266 637 q 498 588 436 637 q 561 449 561 538 l 561 178 q 568 65 561 100 q 575 26 575 30 q 552 5 575 12 q 510 -1 530 -1 q 486 17 494 -1 q 471 70 478 35 l 468 83 q 380 18 431 42 q 265 -7 330 -7 m 271 81 q 372 102 330 81 q 459 164 414 124 l 459 307 q 312 299 370 306 q 211 265 254 292 q 168 180 168 237 q 194 106 168 132 q 271 81 220 81 m 330 706 q 245 722 285 706 q 181 768 205 737 q 156 844 156 800 q 160 858 156 853 q 174 862 164 862 q 188 859 184 862 q 195 846 191 855 q 200 832 198 836 q 248 796 213 808 q 330 785 283 785 q 412 796 378 785 q 459 832 446 808 l 465 846 q 472 859 469 855 q 486 862 476 862 q 500 858 496 862 q 504 844 504 853 q 479 768 504 800 q 415 722 454 737 q 330 706 375 706 m 339 857 q 314 864 329 857 q 299 878 299 870 q 306 896 299 888 q 329 918 313 905 q 362 950 350 935 q 374 989 374 966 q 361 1013 374 1004 q 329 1021 349 1021 q 300 1017 311 1021 q 282 1010 290 1014 q 273 1006 275 1006 q 256 1021 267 1006 q 245 1045 245 1036 q 259 1062 245 1053 q 296 1077 274 1071 q 339 1082 318 1082 q 388 1074 363 1082 q 431 1047 413 1066 q 448 998 448 1028 q 426 930 448 962 q 376 878 404 898 q 339 857 349 857 z "},"ẵ":{"ha":657,"x_min":59,"x_max":575,"o":"m 140 897 q 130 911 130 902 q 134 927 130 920 q 175 991 151 972 q 235 1010 200 1010 q 281 1003 258 1010 q 340 983 305 996 q 389 964 369 970 q 425 958 408 958 q 451 966 440 958 q 473 994 462 974 q 484 1007 479 1003 q 495 1011 489 1011 q 506 1008 499 1011 l 514 1004 q 525 998 522 1002 q 528 989 528 995 q 523 973 528 983 q 481 910 506 929 q 422 891 457 891 q 375 898 399 891 q 313 920 352 905 q 263 938 282 932 q 229 943 245 943 q 204 935 215 943 q 183 907 194 926 q 173 893 178 897 q 163 889 168 889 q 152 892 160 889 l 140 897 m 330 706 q 245 722 285 706 q 181 768 205 737 q 156 844 156 800 q 160 858 156 853 q 174 862 164 862 q 188 859 184 862 q 195 846 191 855 q 200 832 198 836 q 248 796 213 808 q 330 785 283 785 q 412 796 378 785 q 459 832 446 808 l 465 846 q 472 859 469 855 q 486 862 476 862 q 500 858 496 862 q 504 844 504 853 q 479 768 504 800 q 415 722 454 737 q 330 706 375 706 m 265 -7 q 116 39 173 -7 q 59 174 59 84 q 117 316 59 268 q 257 377 174 363 q 459 393 340 391 l 459 450 q 428 523 459 496 q 327 551 397 551 q 233 538 273 551 q 157 508 193 526 q 139 500 142 500 q 121 512 131 500 q 104 539 111 524 q 97 561 97 554 q 129 595 97 576 q 214 625 161 613 q 323 637 266 637 q 498 588 436 637 q 561 449 561 538 l 561 178 q 568 65 561 100 q 575 26 575 30 q 552 5 575 12 q 510 -1 530 -1 q 486 17 494 -1 q 471 70 478 35 l 468 83 q 380 18 431 42 q 265 -7 330 -7 m 271 81 q 372 102 330 81 q 459 164 414 124 l 459 307 q 312 299 370 306 q 211 265 254 292 q 168 180 168 237 q 194 106 168 132 q 271 81 220 81 z "},"â":{"ha":657,"x_min":59,"x_max":575,"o":"m 59 0 m 265 -7 q 116 39 173 -7 q 59 174 59 84 q 117 316 59 268 q 257 377 174 363 q 459 393 340 391 l 459 450 q 428 523 459 496 q 327 551 397 551 q 233 538 273 551 q 157 508 193 526 q 139 500 142 500 q 121 512 131 500 q 104 539 111 524 q 97 561 97 554 q 129 595 97 576 q 214 625 161 613 q 323 637 266 637 q 498 588 436 637 q 561 449 561 538 l 561 178 q 568 65 561 100 q 575 26 575 30 q 552 5 575 12 q 510 -1 530 -1 q 486 17 494 -1 q 471 70 478 35 l 468 83 q 380 18 431 42 q 265 -7 330 -7 m 271 81 q 372 102 330 81 q 459 164 414 124 l 459 307 q 312 299 370 306 q 211 265 254 292 q 168 180 168 237 q 194 106 168 132 q 271 81 220 81 m 211 694 q 183 711 183 694 q 191 733 183 720 l 258 839 q 313 865 275 865 l 343 865 q 399 839 382 865 l 468 733 q 475 713 475 722 q 446 694 475 694 l 444 694 q 422 698 432 694 q 404 711 413 702 l 328 800 l 254 711 q 214 694 238 694 l 211 694 z "},"ấ":{"ha":657,"x_min":59,"x_max":652,"o":"m 477 861 q 450 873 450 861 q 462 904 450 881 q 520 1007 474 927 q 548 1031 530 1023 q 595 1038 566 1038 q 639 1035 625 1038 q 652 1022 652 1031 q 647 1008 652 1016 q 621 976 642 1000 q 568 916 600 952 l 539 882 q 513 867 530 872 q 477 861 497 861 m 216 694 q 188 711 188 694 q 195 733 188 720 l 262 839 q 318 865 280 865 l 348 865 q 392 839 376 865 l 454 733 q 462 713 462 722 q 433 694 462 694 l 430 694 q 407 699 418 694 q 391 711 396 703 l 333 800 l 259 711 q 218 694 243 694 l 216 694 m 265 -7 q 116 39 173 -7 q 59 174 59 84 q 117 316 59 268 q 257 377 174 363 q 459 393 340 391 l 459 450 q 428 523 459 496 q 327 551 397 551 q 233 538 273 551 q 157 508 193 526 q 139 500 142 500 q 121 512 131 500 q 104 539 111 524 q 97 561 97 554 q 129 595 97 576 q 214 625 161 613 q 323 637 266 637 q 498 588 436 637 q 561 449 561 538 l 561 178 q 568 65 561 100 q 575 26 575 30 q 552 5 575 12 q 510 -1 530 -1 q 486 17 494 -1 q 471 70 478 35 l 468 83 q 380 18 431 42 q 265 -7 330 -7 m 271 81 q 372 102 330 81 q 459 164 414 124 l 459 307 q 312 299 370 306 q 211 265 254 292 q 168 180 168 237 q 194 106 168 132 q 271 81 220 81 z "},"ậ":{"ha":657,"x_min":59,"x_max":575,"o":"m 59 0 m 265 -7 q 116 39 173 -7 q 59 174 59 84 q 117 316 59 268 q 257 377 174 363 q 459 393 340 391 l 459 450 q 428 523 459 496 q 327 551 397 551 q 233 538 273 551 q 157 508 193 526 q 139 500 142 500 q 121 512 131 500 q 104 539 111 524 q 97 561 97 554 q 129 595 97 576 q 214 625 161 613 q 323 637 266 637 q 498 588 436 637 q 561 449 561 538 l 561 178 q 568 65 561 100 q 575 26 575 30 q 552 5 575 12 q 510 -1 530 -1 q 486 17 494 -1 q 471 70 478 35 l 468 83 q 380 18 431 42 q 265 -7 330 -7 m 271 81 q 372 102 330 81 q 459 164 414 124 l 459 307 q 312 299 370 306 q 211 265 254 292 q 168 180 168 237 q 194 106 168 132 q 271 81 220 81 m 211 694 q 183 711 183 694 q 191 733 183 720 l 258 839 q 313 865 275 865 l 343 865 q 399 839 382 865 l 468 733 q 475 713 475 722 q 446 694 475 694 l 444 694 q 422 698 432 694 q 404 711 413 702 l 328 800 l 254 711 q 214 694 238 694 l 211 694 z "},"ầ":{"ha":657,"x_min":59,"x_max":575,"o":"m 531 861 q 496 867 512 861 q 470 882 480 872 l 421 938 q 367 1001 377 988 q 356 1022 356 1015 q 370 1035 356 1031 q 414 1038 384 1038 q 461 1031 444 1038 q 489 1007 479 1024 q 546 906 533 930 q 559 873 559 881 q 552 864 559 867 q 531 861 546 861 m 216 694 q 188 711 188 694 q 195 733 188 720 l 262 839 q 318 865 280 865 l 348 865 q 392 839 376 865 l 454 733 q 462 713 462 722 q 433 694 462 694 l 430 694 q 407 699 418 694 q 391 711 396 703 l 333 800 l 259 711 q 218 694 243 694 l 216 694 m 265 -7 q 116 39 173 -7 q 59 174 59 84 q 117 316 59 268 q 257 377 174 363 q 459 393 340 391 l 459 450 q 428 523 459 496 q 327 551 397 551 q 233 538 273 551 q 157 508 193 526 q 139 500 142 500 q 121 512 131 500 q 104 539 111 524 q 97 561 97 554 q 129 595 97 576 q 214 625 161 613 q 323 637 266 637 q 498 588 436 637 q 561 449 561 538 l 561 178 q 568 65 561 100 q 575 26 575 30 q 552 5 575 12 q 510 -1 530 -1 q 486 17 494 -1 q 471 70 478 35 l 468 83 q 380 18 431 42 q 265 -7 330 -7 m 271 81 q 372 102 330 81 q 459 164 414 124 l 459 307 q 312 299 370 306 q 211 265 254 292 q 168 180 168 237 q 194 106 168 132 q 271 81 220 81 z "},"ẩ":{"ha":657,"x_min":59,"x_max":616,"o":"m 507 834 q 482 841 497 834 q 467 854 467 847 q 474 873 467 865 q 497 895 481 882 q 530 927 518 911 q 542 966 542 943 q 529 989 542 981 q 497 998 517 998 q 469 994 479 998 q 451 987 458 991 q 441 983 444 983 q 424 998 435 983 q 413 1022 413 1013 q 428 1039 413 1030 q 464 1054 442 1048 q 507 1059 486 1059 q 556 1051 531 1059 q 599 1024 581 1043 q 616 975 616 1005 q 594 907 616 939 q 544 854 572 875 q 507 834 517 834 m 216 694 q 188 711 188 694 q 195 733 188 720 l 262 839 q 318 865 280 865 l 348 865 q 392 839 376 865 l 454 733 q 462 713 462 722 q 433 694 462 694 l 430 694 q 407 699 418 694 q 391 711 396 703 l 333 800 l 259 711 q 218 694 243 694 l 216 694 m 265 -7 q 116 39 173 -7 q 59 174 59 84 q 117 316 59 268 q 257 377 174 363 q 459 393 340 391 l 459 450 q 428 523 459 496 q 327 551 397 551 q 233 538 273 551 q 157 508 193 526 q 139 500 142 500 q 121 512 131 500 q 104 539 111 524 q 97 561 97 554 q 129 595 97 576 q 214 625 161 613 q 323 637 266 637 q 498 588 436 637 q 561 449 561 538 l 561 178 q 568 65 561 100 q 575 26 575 30 q 552 5 575 12 q 510 -1 530 -1 q 486 17 494 -1 q 471 70 478 35 l 468 83 q 380 18 431 42 q 265 -7 330 -7 m 271 81 q 372 102 330 81 q 459 164 414 124 l 459 307 q 312 299 370 306 q 211 265 254 292 q 168 180 168 237 q 194 106 168 132 q 271 81 220 81 z "},"ẫ":{"ha":657,"x_min":59,"x_max":575,"o":"m 144 948 q 134 962 134 953 q 138 978 134 970 q 179 1042 155 1023 q 239 1061 204 1061 q 286 1054 262 1061 q 344 1034 309 1047 q 393 1015 373 1021 q 429 1009 412 1009 q 455 1017 444 1009 q 477 1044 466 1025 q 488 1058 483 1054 q 499 1062 493 1062 q 510 1059 503 1062 l 518 1055 q 529 1049 526 1053 q 532 1040 532 1046 q 527 1024 532 1034 q 486 961 510 980 q 427 942 461 942 q 379 949 403 942 q 317 970 356 956 q 268 988 286 983 q 233 994 249 994 q 209 986 219 994 q 187 958 198 977 q 177 944 182 948 q 167 940 172 940 q 156 943 164 940 l 144 948 m 211 694 q 183 711 183 694 q 191 733 183 720 l 258 839 q 313 865 275 865 l 343 865 q 399 839 382 865 l 468 733 q 475 713 475 722 q 446 694 475 694 l 444 694 q 422 698 432 694 q 404 711 413 702 l 328 800 l 254 711 q 214 694 238 694 l 211 694 m 265 -7 q 116 39 173 -7 q 59 174 59 84 q 117 316 59 268 q 257 377 174 363 q 459 393 340 391 l 459 450 q 428 523 459 496 q 327 551 397 551 q 233 538 273 551 q 157 508 193 526 q 139 500 142 500 q 121 512 131 500 q 104 539 111 524 q 97 561 97 554 q 129 595 97 576 q 214 625 161 613 q 323 637 266 637 q 498 588 436 637 q 561 449 561 538 l 561 178 q 568 65 561 100 q 575 26 575 30 q 552 5 575 12 q 510 -1 530 -1 q 486 17 494 -1 q 471 70 478 35 l 468 83 q 380 18 431 42 q 265 -7 330 -7 m 271 81 q 372 102 330 81 q 459 164 414 124 l 459 307 q 312 299 370 306 q 211 265 254 292 q 168 180 168 237 q 194 106 168 132 q 271 81 220 81 z "},"ä":{"ha":657,"x_min":59,"x_max":575,"o":"m 59 0 m 265 -7 q 116 39 173 -7 q 59 174 59 84 q 117 316 59 268 q 257 377 174 363 q 459 393 340 391 l 459 450 q 428 523 459 496 q 327 551 397 551 q 233 538 273 551 q 157 508 193 526 q 139 500 142 500 q 121 512 131 500 q 104 539 111 524 q 97 561 97 554 q 129 595 97 576 q 214 625 161 613 q 323 637 266 637 q 498 588 436 637 q 561 449 561 538 l 561 178 q 568 65 561 100 q 575 26 575 30 q 552 5 575 12 q 510 -1 530 -1 q 486 17 494 -1 q 471 70 478 35 l 468 83 q 380 18 431 42 q 265 -7 330 -7 m 271 81 q 372 102 330 81 q 459 164 414 124 l 459 307 q 312 299 370 306 q 211 265 254 292 q 168 180 168 237 q 194 106 168 132 q 271 81 220 81 m 241 732 q 193 758 193 732 l 193 820 q 245 847 193 847 q 294 820 294 847 l 294 758 q 241 732 294 732 m 414 732 q 366 758 366 732 l 366 820 q 419 847 366 847 q 467 820 467 847 l 467 758 q 414 732 467 732 z "},"ạ":{"ha":657,"x_min":59,"x_max":575,"o":"m 59 0 m 265 -7 q 116 39 173 -7 q 59 174 59 84 q 117 316 59 268 q 257 377 174 363 q 459 393 340 391 l 459 450 q 428 523 459 496 q 327 551 397 551 q 233 538 273 551 q 157 508 193 526 q 139 500 142 500 q 121 512 131 500 q 104 539 111 524 q 97 561 97 554 q 129 595 97 576 q 214 625 161 613 q 323 637 266 637 q 498 588 436 637 q 561 449 561 538 l 561 178 q 568 65 561 100 q 575 26 575 30 q 552 5 575 12 q 510 -1 530 -1 q 486 17 494 -1 q 471 70 478 35 l 468 83 q 380 18 431 42 q 265 -7 330 -7 m 271 81 q 372 102 330 81 q 459 164 414 124 l 459 307 q 312 299 370 306 q 211 265 254 292 q 168 180 168 237 q 194 106 168 132 q 271 81 220 81 z "},"à":{"ha":657,"x_min":59,"x_max":575,"o":"m 59 0 m 265 -7 q 116 39 173 -7 q 59 174 59 84 q 117 316 59 268 q 257 377 174 363 q 459 393 340 391 l 459 450 q 428 523 459 496 q 327 551 397 551 q 233 538 273 551 q 157 508 193 526 q 139 500 142 500 q 121 512 131 500 q 104 539 111 524 q 97 561 97 554 q 129 595 97 576 q 214 625 161 613 q 323 637 266 637 q 498 588 436 637 q 561 449 561 538 l 561 178 q 568 65 561 100 q 575 26 575 30 q 552 5 575 12 q 510 -1 530 -1 q 486 17 494 -1 q 471 70 478 35 l 468 83 q 380 18 431 42 q 265 -7 330 -7 m 271 81 q 372 102 330 81 q 459 164 414 124 l 459 307 q 312 299 370 306 q 211 265 254 292 q 168 180 168 237 q 194 106 168 132 q 271 81 220 81 m 362 706 q 327 711 343 706 q 301 727 311 717 l 252 783 q 198 846 208 833 q 187 867 187 859 q 201 880 187 876 q 245 883 215 883 q 292 876 275 883 q 320 852 310 869 q 377 750 364 775 q 390 718 390 726 q 384 709 390 711 q 362 706 377 706 z "},"ả":{"ha":657,"x_min":59,"x_max":575,"o":"m 59 0 m 265 -7 q 116 39 173 -7 q 59 174 59 84 q 117 316 59 268 q 257 377 174 363 q 459 393 340 391 l 459 450 q 428 523 459 496 q 327 551 397 551 q 233 538 273 551 q 157 508 193 526 q 139 500 142 500 q 121 512 131 500 q 104 539 111 524 q 97 561 97 554 q 129 595 97 576 q 214 625 161 613 q 323 637 266 637 q 498 588 436 637 q 561 449 561 538 l 561 178 q 568 65 561 100 q 575 26 575 30 q 552 5 575 12 q 510 -1 530 -1 q 486 17 494 -1 q 471 70 478 35 l 468 83 q 380 18 431 42 q 265 -7 330 -7 m 271 81 q 372 102 330 81 q 459 164 414 124 l 459 307 q 312 299 370 306 q 211 265 254 292 q 168 180 168 237 q 194 106 168 132 q 271 81 220 81 m 338 679 q 313 685 328 679 q 298 699 298 692 q 306 718 298 709 q 328 739 313 726 q 361 772 349 756 q 373 810 373 788 q 360 834 373 826 q 328 842 348 842 q 300 839 311 842 q 282 831 289 836 q 273 827 275 827 q 255 843 266 827 q 244 867 244 858 q 259 884 244 875 q 295 898 273 892 q 338 904 317 904 q 387 896 362 904 q 430 869 412 888 q 448 819 448 850 q 425 751 448 783 q 375 699 403 720 q 338 679 348 679 z "},"ā":{"ha":657,"x_min":59,"x_max":575,"o":"m 59 0 m 265 -7 q 116 39 173 -7 q 59 174 59 84 q 117 316 59 268 q 257 377 174 363 q 459 393 340 391 l 459 450 q 428 523 459 496 q 327 551 397 551 q 233 538 273 551 q 157 508 193 526 q 139 500 142 500 q 121 512 131 500 q 104 539 111 524 q 97 561 97 554 q 129 595 97 576 q 214 625 161 613 q 323 637 266 637 q 498 588 436 637 q 561 449 561 538 l 561 178 q 568 65 561 100 q 575 26 575 30 q 552 5 575 12 q 510 -1 530 -1 q 486 17 494 -1 q 471 70 478 35 l 468 83 q 380 18 431 42 q 265 -7 330 -7 m 271 81 q 372 102 330 81 q 459 164 414 124 l 459 307 q 312 299 370 306 q 211 265 254 292 q 168 180 168 237 q 194 106 168 132 q 271 81 220 81 m 195 738 q 177 747 182 738 q 171 774 171 755 l 171 786 q 177 814 171 805 q 195 823 182 823 l 465 823 q 482 814 477 823 q 488 786 488 805 l 488 774 q 482 746 488 755 q 465 738 477 738 l 195 738 z "},"ą":{"ha":657,"x_min":59,"x_max":720,"o":"m 696 -104 q 720 -134 720 -104 q 694 -186 720 -172 q 621 -200 669 -200 q 508 -160 537 -200 q 479 -77 479 -121 q 496 4 479 -26 q 480 30 486 12 q 472 63 475 47 q 468 83 469 79 q 380 18 431 42 q 265 -7 330 -7 q 116 39 173 -7 q 59 174 59 84 q 117 316 59 268 q 257 377 174 363 q 459 393 340 391 l 459 450 q 428 523 459 496 q 327 551 397 551 q 233 538 273 551 q 157 508 193 526 q 139 500 142 500 q 121 512 131 500 q 104 539 111 524 q 97 561 97 554 q 129 595 97 576 q 214 625 161 613 q 323 637 266 637 q 498 588 436 637 q 561 449 561 538 l 561 178 q 568 65 561 100 q 575 26 575 30 q 574 20 575 24 l 574 20 q 568 -7 574 12 q 559 -54 559 -38 q 581 -104 559 -92 q 634 -115 603 -115 q 664 -110 644 -115 q 696 -104 685 -104 m 459 307 q 312 299 370 306 q 211 265 254 292 q 168 180 168 237 q 194 106 168 132 q 271 81 220 81 q 372 102 330 81 q 459 164 414 124 l 459 307 z "},"å":{"ha":657,"x_min":59,"x_max":575,"o":"m 59 0 m 265 -7 q 116 39 173 -7 q 59 174 59 84 q 117 316 59 268 q 257 377 174 363 q 459 393 340 391 l 459 450 q 428 523 459 496 q 327 551 397 551 q 233 538 273 551 q 157 508 193 526 q 139 500 142 500 q 121 512 131 500 q 104 539 111 524 q 97 561 97 554 q 129 595 97 576 q 214 625 161 613 q 323 637 266 637 q 498 588 436 637 q 561 449 561 538 l 561 178 q 568 65 561 100 q 575 26 575 30 q 552 5 575 12 q 510 -1 530 -1 q 486 17 494 -1 q 471 70 478 35 l 468 83 q 380 18 431 42 q 265 -7 330 -7 m 271 81 q 372 102 330 81 q 459 164 414 124 l 459 307 q 312 299 370 306 q 211 265 254 292 q 168 180 168 237 q 194 106 168 132 q 271 81 220 81 m 329 680 q 278 693 301 680 q 241 730 254 707 q 227 781 227 753 q 241 833 227 809 q 278 870 254 857 q 329 884 301 884 q 380 870 357 884 q 417 833 404 857 q 431 781 431 809 q 417 730 431 753 q 380 693 404 707 q 329 680 357 680 m 329 722 q 372 739 354 722 q 389 781 389 756 q 372 824 389 806 q 329 842 354 842 q 287 824 304 842 q 270 781 270 807 q 287 739 270 756 q 329 722 304 722 z "},"ǻ":{"ha":657,"x_min":59,"x_max":575,"o":"m 59 0 m 265 -7 q 116 39 173 -7 q 59 174 59 84 q 117 316 59 268 q 257 377 174 363 q 459 393 340 391 l 459 450 q 428 523 459 496 q 327 551 397 551 q 233 538 273 551 q 157 508 193 526 q 139 500 142 500 q 121 512 131 500 q 104 539 111 524 q 97 561 97 554 q 129 595 97 576 q 214 625 161 613 q 323 637 266 637 q 498 588 436 637 q 561 449 561 538 l 561 178 q 568 65 561 100 q 575 26 575 30 q 552 5 575 12 q 510 -1 530 -1 q 486 17 494 -1 q 471 70 478 35 l 468 83 q 380 18 431 42 q 265 -7 330 -7 m 271 81 q 372 102 330 81 q 459 164 414 124 l 459 307 q 312 299 370 306 q 211 265 254 292 q 168 180 168 237 q 194 106 168 132 q 271 81 220 81 m 329 680 q 278 693 301 680 q 241 730 254 707 q 227 781 227 753 q 241 833 227 809 q 278 870 254 857 q 329 884 301 884 q 380 870 357 884 q 417 833 404 857 q 431 781 431 809 q 417 730 431 753 q 380 693 404 707 q 329 680 357 680 m 329 722 q 372 739 354 722 q 389 781 389 756 q 372 824 389 806 q 329 842 354 842 q 287 824 304 842 q 270 781 270 807 q 287 739 270 756 q 329 722 304 722 m 319 935 q 292 947 292 935 q 304 978 292 955 q 362 1081 316 1001 q 390 1105 372 1097 q 437 1112 408 1112 q 481 1109 467 1112 q 494 1096 494 1105 q 489 1082 494 1090 q 463 1050 484 1074 q 410 989 442 1026 l 381 956 q 355 941 372 946 q 319 935 339 935 z "},"ã":{"ha":657,"x_min":59,"x_max":575,"o":"m 59 0 m 265 -7 q 116 39 173 -7 q 59 174 59 84 q 117 316 59 268 q 257 377 174 363 q 459 393 340 391 l 459 450 q 428 523 459 496 q 327 551 397 551 q 233 538 273 551 q 157 508 193 526 q 139 500 142 500 q 121 512 131 500 q 104 539 111 524 q 97 561 97 554 q 129 595 97 576 q 214 625 161 613 q 323 637 266 637 q 498 588 436 637 q 561 449 561 538 l 561 178 q 568 65 561 100 q 575 26 575 30 q 552 5 575 12 q 510 -1 530 -1 q 486 17 494 -1 q 471 70 478 35 l 468 83 q 380 18 431 42 q 265 -7 330 -7 m 271 81 q 372 102 330 81 q 459 164 414 124 l 459 307 q 312 299 370 306 q 211 265 254 292 q 168 180 168 237 q 194 106 168 132 q 271 81 220 81 m 132 719 q 121 733 121 724 q 125 749 121 741 q 171 813 144 793 q 236 832 197 832 q 286 825 260 832 q 351 804 312 818 q 405 786 382 792 q 446 780 427 780 q 474 788 462 780 q 498 815 486 795 q 522 833 510 833 q 534 829 526 833 l 543 826 q 554 820 551 823 q 557 811 557 817 q 552 795 557 804 q 506 732 533 751 q 442 713 479 713 q 390 720 416 713 q 322 741 364 727 q 268 759 289 753 q 229 765 247 765 q 203 756 214 765 q 178 728 191 748 q 168 715 172 719 q 157 711 163 711 q 144 714 153 711 l 132 719 z "},"æ":{"ha":1000,"x_min":54,"x_max":934,"o":"m 260 -7 q 111 39 168 -7 q 54 174 54 84 q 103 298 54 254 q 229 358 153 342 q 408 376 304 374 q 441 502 416 452 q 322 551 411 551 q 228 538 269 551 q 153 508 188 526 q 134 500 138 500 q 116 512 126 500 q 99 539 106 524 q 92 561 92 554 q 124 595 92 576 q 209 625 156 613 q 318 637 261 637 q 502 580 439 637 q 685 637 568 637 q 871 562 808 637 q 934 340 934 486 q 927 321 934 334 q 910 300 920 309 q 893 290 900 290 l 513 290 q 564 131 520 181 q 698 80 608 80 q 785 92 749 80 q 856 122 822 104 q 874 130 871 130 q 892 119 882 130 q 909 92 902 107 q 916 71 916 77 q 886 37 916 56 q 807 6 857 19 q 699 -7 757 -7 q 479 69 551 -7 q 382 14 438 35 q 260 -7 326 -7 m 826 377 q 790 507 826 463 q 682 551 753 551 q 513 377 525 551 l 826 377 m 265 81 q 356 97 317 81 q 431 144 395 114 q 404 290 405 208 q 282 280 334 288 q 197 248 231 271 q 163 180 163 224 q 189 106 163 132 q 265 81 215 81 z "},"ǽ":{"ha":1000,"x_min":54,"x_max":934,"o":"m 54 0 m 260 -7 q 111 39 168 -7 q 54 174 54 84 q 103 298 54 254 q 229 358 153 342 q 408 376 304 374 q 441 502 416 452 q 322 551 411 551 q 228 538 269 551 q 153 508 188 526 q 134 500 138 500 q 116 512 126 500 q 99 539 106 524 q 92 561 92 554 q 124 595 92 576 q 209 625 156 613 q 318 637 261 637 q 502 580 439 637 q 685 637 568 637 q 871 562 808 637 q 934 340 934 486 q 927 321 934 334 q 910 300 920 309 q 893 290 900 290 l 513 290 q 564 131 520 181 q 698 80 608 80 q 785 92 749 80 q 856 122 822 104 q 874 130 871 130 q 892 119 882 130 q 909 92 902 107 q 916 71 916 77 q 886 37 916 56 q 807 6 857 19 q 699 -7 757 -7 q 479 69 551 -7 q 382 14 438 35 q 260 -7 326 -7 m 826 377 q 790 507 826 463 q 682 551 753 551 q 513 377 525 551 l 826 377 m 265 81 q 356 97 317 81 q 431 144 395 114 q 404 290 405 208 q 282 280 334 288 q 197 248 231 271 q 163 180 163 224 q 189 106 163 132 q 265 81 215 81 m 479 706 q 452 718 452 706 q 464 749 452 726 q 522 852 476 772 q 550 876 532 868 q 597 883 568 883 q 641 880 627 883 q 654 867 654 876 q 649 852 654 861 q 623 821 644 844 q 570 760 602 797 l 541 727 q 515 711 532 717 q 479 706 499 706 z "},"b":{"ha":686,"x_min":103,"x_max":621,"o":"m 387 -7 q 195 83 281 -7 q 176 12 190 46 q 165 1 173 4 q 144 -2 157 -2 l 139 -2 q 112 4 120 -2 q 103 24 103 11 l 103 880 q 151 907 103 907 l 156 907 q 203 880 203 907 l 203 576 q 283 622 243 606 q 376 637 324 637 q 504 600 448 637 q 590 490 559 563 q 621 316 621 418 q 593 149 621 222 q 511 34 564 75 q 387 -7 458 -7 m 367 81 q 476 144 438 81 q 515 324 515 208 q 474 490 515 433 q 353 549 433 547 q 275 535 313 549 q 203 494 236 522 l 203 164 q 283 102 241 124 q 367 81 326 81 z "},"c":{"ha":585,"x_min":62,"x_max":549,"o":"m 359 -7 q 136 70 210 -7 q 62 318 62 147 q 144 564 62 491 q 349 637 227 637 q 436 630 394 637 q 504 609 478 622 q 530 582 530 596 q 523 557 530 572 q 508 529 517 541 q 491 517 498 517 q 485 519 489 517 q 477 522 481 521 q 346 551 416 551 q 217 496 262 551 q 172 321 172 441 q 190 183 172 235 q 249 105 208 130 q 359 80 290 80 q 494 111 434 80 q 504 114 500 113 q 508 116 507 116 q 525 104 515 116 q 542 78 534 93 q 549 54 549 63 q 523 26 549 40 q 453 2 497 12 q 359 -7 410 -7 z "},"ć":{"ha":585,"x_min":62,"x_max":549,"o":"m 62 0 m 359 -7 q 136 70 210 -7 q 62 318 62 147 q 144 564 62 491 q 349 637 227 637 q 436 630 394 637 q 504 609 478 622 q 530 582 530 596 q 523 557 530 572 q 508 529 517 541 q 491 517 498 517 q 485 519 489 517 q 477 522 481 521 q 346 551 416 551 q 217 496 262 551 q 172 321 172 441 q 190 183 172 235 q 249 105 208 130 q 359 80 290 80 q 494 111 434 80 q 504 114 500 113 q 508 116 507 116 q 525 104 515 116 q 542 78 534 93 q 549 54 549 63 q 523 26 549 40 q 453 2 497 12 q 359 -7 410 -7 m 313 706 q 286 718 286 706 q 298 749 286 726 q 356 852 310 772 q 384 876 366 868 q 431 883 401 883 q 475 880 461 883 q 488 867 488 876 q 483 852 488 861 q 457 821 477 844 q 404 760 436 797 l 375 727 q 349 711 366 717 q 313 706 333 706 z "},"č":{"ha":585,"x_min":62,"x_max":549,"o":"m 62 0 m 359 -7 q 136 70 210 -7 q 62 318 62 147 q 144 564 62 491 q 349 637 227 637 q 436 630 394 637 q 504 609 478 622 q 530 582 530 596 q 523 557 530 572 q 508 529 517 541 q 491 517 498 517 q 485 519 489 517 q 477 522 481 521 q 346 551 416 551 q 217 496 262 551 q 172 321 172 441 q 190 183 172 235 q 249 105 208 130 q 359 80 290 80 q 494 111 434 80 q 504 114 500 113 q 508 116 507 116 q 525 104 515 116 q 542 78 534 93 q 549 54 549 63 q 523 26 549 40 q 453 2 497 12 q 359 -7 410 -7 m 318 701 q 262 728 282 701 l 195 834 q 189 857 189 846 q 196 868 189 864 q 216 873 203 873 l 218 873 q 259 857 243 873 l 333 768 l 408 857 q 427 869 418 865 q 449 873 437 873 l 451 873 q 472 868 465 873 q 480 855 480 863 q 473 834 480 846 l 404 728 q 349 701 385 701 l 318 701 z "},"ç":{"ha":585,"x_min":62,"x_max":549,"o":"m 549 54 q 525 27 549 41 q 460 4 500 14 q 372 -7 419 -5 l 357 -59 l 361 -59 q 430 -77 396 -59 q 464 -146 464 -96 q 424 -231 464 -209 q 326 -254 385 -254 q 264 -247 297 -254 q 209 -229 231 -241 q 186 -201 186 -217 q 192 -179 186 -189 q 210 -170 197 -170 q 225 -174 216 -170 q 240 -178 235 -177 q 276 -190 260 -186 q 309 -194 292 -194 q 358 -186 338 -194 q 378 -153 378 -178 q 366 -123 378 -132 q 331 -106 354 -114 q 307 -96 315 -101 q 299 -82 299 -92 q 304 -58 299 -75 q 320 -5 309 -41 q 126 81 191 4 q 62 318 62 159 q 144 564 62 491 q 349 637 227 637 q 436 630 394 637 q 504 609 478 622 q 530 582 530 596 q 523 557 530 572 q 508 529 517 541 q 491 517 498 517 q 485 519 489 517 q 477 522 481 521 q 346 551 416 551 q 217 496 262 551 q 172 321 172 441 q 190 183 172 235 q 249 105 208 130 q 359 80 290 80 q 494 111 434 80 q 504 114 500 113 q 508 116 507 116 q 525 104 515 116 q 542 78 534 93 q 549 54 549 63 z "},"ĉ":{"ha":585,"x_min":62,"x_max":549,"o":"m 62 0 m 359 -7 q 136 70 210 -7 q 62 318 62 147 q 144 564 62 491 q 349 637 227 637 q 436 630 394 637 q 504 609 478 622 q 530 582 530 596 q 523 557 530 572 q 508 529 517 541 q 491 517 498 517 q 485 519 489 517 q 477 522 481 521 q 346 551 416 551 q 217 496 262 551 q 172 321 172 441 q 190 183 172 235 q 249 105 208 130 q 359 80 290 80 q 494 111 434 80 q 504 114 500 113 q 508 116 507 116 q 525 104 515 116 q 542 78 534 93 q 549 54 549 63 q 523 26 549 40 q 453 2 497 12 q 359 -7 410 -7 m 216 694 q 188 711 188 694 q 195 733 188 720 l 262 839 q 318 865 280 865 l 348 865 q 404 839 387 865 l 473 733 q 480 713 480 722 q 451 694 480 694 l 448 694 q 427 698 437 694 q 408 711 418 702 l 333 800 l 259 711 q 218 694 243 694 l 216 694 z "},"ċ":{"ha":585,"x_min":62,"x_max":549,"o":"m 62 0 m 359 -7 q 136 70 210 -7 q 62 318 62 147 q 144 564 62 491 q 349 637 227 637 q 436 630 394 637 q 504 609 478 622 q 530 582 530 596 q 523 557 530 572 q 508 529 517 541 q 491 517 498 517 q 485 519 489 517 q 477 522 481 521 q 346 551 416 551 q 217 496 262 551 q 172 321 172 441 q 190 183 172 235 q 249 105 208 130 q 359 80 290 80 q 494 111 434 80 q 504 114 500 113 q 508 116 507 116 q 525 104 515 116 q 542 78 534 93 q 549 54 549 63 q 523 26 549 40 q 453 2 497 12 q 359 -7 410 -7 m 332 732 q 283 758 283 732 l 283 820 q 296 840 283 832 q 337 847 309 847 q 385 820 385 847 l 385 758 q 332 732 385 732 z "},"d":{"ha":682,"x_min":62,"x_max":596,"o":"m 296 -7 q 173 34 226 -7 q 91 149 120 75 q 62 315 62 222 q 93 490 62 417 q 180 600 124 563 q 308 637 235 637 q 400 622 360 637 q 480 576 441 606 l 480 880 q 528 907 480 907 l 533 907 q 581 880 581 907 l 581 178 q 589 65 581 100 q 596 26 596 30 q 573 5 596 12 q 531 -1 551 -1 q 509 12 517 -1 q 498 38 501 24 q 488 83 495 51 q 296 -7 402 -7 m 317 81 q 400 102 357 81 q 480 164 444 124 l 480 494 q 332 549 415 549 q 210 490 251 547 q 169 324 169 433 q 207 144 169 208 q 317 81 245 81 z "},"ð":{"ha":686,"x_min":66,"x_max":620,"o":"m 346 -7 q 138 75 210 -7 q 66 313 66 157 q 139 553 66 469 q 346 637 212 637 q 443 624 398 637 q 387 732 419 674 q 283 718 278 718 q 262 730 271 718 q 252 755 252 743 q 271 772 252 769 l 357 783 q 333 821 340 808 q 326 842 326 833 q 345 859 326 856 q 377 861 362 861 q 409 847 396 861 q 449 796 420 833 l 543 809 q 560 801 553 809 q 570 784 567 793 q 573 770 573 775 q 568 760 573 764 q 555 755 564 755 l 482 745 q 583 535 547 646 q 620 313 620 425 q 550 75 620 156 q 346 -7 481 -7 m 342 80 q 473 137 431 80 q 515 315 515 195 q 473 493 515 435 q 342 551 431 551 q 213 493 255 551 q 170 315 170 436 q 212 137 170 195 q 342 80 254 80 z "},"ď":{"ha":682,"x_min":62,"x_max":762,"o":"m 62 0 m 296 -7 q 173 34 226 -7 q 91 149 120 75 q 62 315 62 222 q 93 490 62 417 q 180 600 124 563 q 308 637 235 637 q 400 622 360 637 q 480 576 441 606 l 480 880 q 528 907 480 907 l 533 907 q 581 880 581 907 l 581 178 q 589 65 581 100 q 596 26 596 30 q 573 5 596 12 q 531 -1 551 -1 q 509 12 517 -1 q 498 38 501 24 q 488 83 495 51 q 296 -7 402 -7 m 317 81 q 400 102 357 81 q 480 164 444 124 l 480 494 q 332 549 415 549 q 210 490 251 547 q 169 324 169 433 q 207 144 169 208 q 317 81 245 81 m 675 634 q 650 638 661 634 q 640 652 640 642 q 644 687 640 662 q 652 745 650 721 q 655 806 655 770 q 667 833 655 823 q 703 844 680 844 l 714 844 q 749 835 736 844 q 762 810 762 826 q 747 720 762 760 q 711 657 732 680 q 675 634 690 634 z "},"đ":{"ha":682,"x_min":62,"x_max":659,"o":"m 636 807 q 654 798 648 807 q 659 770 659 789 l 659 759 q 654 731 659 739 q 636 722 648 722 l 581 722 l 581 178 q 589 65 581 100 q 596 26 596 30 q 573 5 596 12 q 531 -1 551 -1 q 509 12 517 -1 q 498 38 501 24 q 488 83 495 51 q 296 -7 402 -7 q 173 34 226 -7 q 91 149 120 75 q 62 315 62 222 q 93 490 62 417 q 180 600 124 563 q 308 637 235 637 q 400 622 360 637 q 480 576 441 606 l 480 722 l 367 722 q 348 731 354 722 q 342 759 342 740 l 342 770 q 348 798 342 789 q 367 807 354 807 l 480 807 l 480 880 q 528 907 480 907 l 533 907 q 581 880 581 907 l 581 807 l 636 807 m 480 494 q 332 549 415 549 q 210 490 251 547 q 169 324 169 433 q 207 144 169 208 q 317 81 245 81 q 400 102 357 81 q 480 164 444 124 l 480 494 z "},"ḍ":{"ha":682,"x_min":62,"x_max":596,"o":"m 62 0 m 296 -7 q 173 34 226 -7 q 91 149 120 75 q 62 315 62 222 q 93 490 62 417 q 180 600 124 563 q 308 637 235 637 q 400 622 360 637 q 480 576 441 606 l 480 880 q 528 907 480 907 l 533 907 q 581 880 581 907 l 581 178 q 589 65 581 100 q 596 26 596 30 q 573 5 596 12 q 531 -1 551 -1 q 509 12 517 -1 q 498 38 501 24 q 488 83 495 51 q 296 -7 402 -7 m 317 81 q 400 102 357 81 q 480 164 444 124 l 480 494 q 332 549 415 549 q 210 490 251 547 q 169 324 169 433 q 207 144 169 208 q 317 81 245 81 z "},"ǳ":{"ha":1271,"x_min":62,"x_max":1223,"o":"m 62 0 m 296 -7 q 173 34 226 -7 q 91 149 120 75 q 62 315 62 222 q 93 490 62 417 q 180 600 124 563 q 308 637 235 637 q 400 622 360 637 q 480 576 441 606 l 480 880 q 528 907 480 907 l 533 907 q 581 880 581 907 l 581 178 q 589 65 581 100 q 596 26 596 30 q 573 5 596 12 q 531 -1 551 -1 q 509 12 517 -1 q 498 38 501 24 q 488 83 495 51 q 296 -7 402 -7 m 317 81 q 400 102 357 81 q 480 164 444 124 l 480 494 q 332 549 415 549 q 210 490 251 547 q 169 324 169 433 q 207 144 169 208 q 317 81 245 81 m 753 0 q 736 22 745 0 q 726 62 726 44 q 730 75 726 68 l 1083 544 l 774 544 q 756 552 762 544 q 751 580 751 561 l 751 595 q 756 622 751 614 q 774 631 762 631 l 1198 631 q 1214 608 1206 631 q 1222 568 1222 586 q 1219 555 1222 562 l 867 87 l 1199 87 q 1217 78 1212 87 q 1223 51 1223 70 l 1223 36 q 1217 9 1223 18 q 1199 0 1212 0 l 753 0 z "},"ǆ":{"ha":1271,"x_min":62,"x_max":1223,"o":"m 62 0 m 296 -7 q 173 34 226 -7 q 91 149 120 75 q 62 315 62 222 q 93 490 62 417 q 180 600 124 563 q 308 637 235 637 q 400 622 360 637 q 480 576 441 606 l 480 880 q 528 907 480 907 l 533 907 q 581 880 581 907 l 581 178 q 589 65 581 100 q 596 26 596 30 q 573 5 596 12 q 531 -1 551 -1 q 509 12 517 -1 q 498 38 501 24 q 488 83 495 51 q 296 -7 402 -7 m 317 81 q 400 102 357 81 q 480 164 444 124 l 480 494 q 332 549 415 549 q 210 490 251 547 q 169 324 169 433 q 207 144 169 208 q 317 81 245 81 m 753 0 q 736 22 745 0 q 726 62 726 44 q 730 75 726 68 l 1083 544 l 774 544 q 756 552 762 544 q 751 580 751 561 l 751 595 q 756 622 751 614 q 774 631 762 631 l 1198 631 q 1214 608 1206 631 q 1222 568 1222 586 q 1219 555 1222 562 l 867 87 l 1199 87 q 1217 78 1212 87 q 1223 51 1223 70 l 1223 36 q 1217 9 1223 18 q 1199 0 1212 0 l 753 0 m 961 701 q 905 728 925 701 l 838 834 q 831 857 831 846 q 839 868 831 864 q 859 873 846 873 l 861 873 q 902 857 886 873 l 976 768 l 1051 857 q 1070 869 1061 865 q 1092 873 1080 873 l 1094 873 q 1115 868 1107 873 q 1123 855 1123 863 q 1116 834 1123 846 l 1047 728 q 991 701 1028 701 l 961 701 z "},"e":{"ha":650,"x_min":66,"x_max":596,"o":"m 362 -7 q 139 72 212 -7 q 66 311 66 150 q 138 554 66 471 q 347 637 209 637 q 533 557 471 637 q 596 323 596 477 q 589 304 596 316 q 572 283 582 292 q 555 274 562 274 l 175 274 q 227 126 182 173 q 361 80 271 80 q 447 92 411 80 q 517 122 484 104 q 528 127 521 123 q 537 130 534 130 q 554 118 545 130 q 571 92 564 106 q 578 71 578 77 q 549 37 578 56 q 469 6 519 19 q 362 -7 419 -7 m 488 361 q 344 551 488 551 q 175 361 189 551 l 488 361 z "},"é":{"ha":650,"x_min":66,"x_max":596,"o":"m 66 0 m 362 -7 q 139 72 212 -7 q 66 311 66 150 q 138 554 66 471 q 347 637 209 637 q 533 557 471 637 q 596 323 596 477 q 589 304 596 316 q 572 283 582 292 q 555 274 562 274 l 175 274 q 227 126 182 173 q 361 80 271 80 q 447 92 411 80 q 517 122 484 104 q 528 127 521 123 q 537 130 534 130 q 554 118 545 130 q 571 92 564 106 q 578 71 578 77 q 549 37 578 56 q 469 6 519 19 q 362 -7 419 -7 m 488 361 q 344 551 488 551 q 175 361 189 551 l 488 361 m 305 706 q 277 718 277 706 q 290 749 277 726 q 348 852 302 772 q 375 876 357 868 q 422 883 393 883 q 467 880 453 883 q 480 867 480 876 q 475 852 480 861 q 449 821 469 844 q 396 760 428 797 l 367 727 q 341 711 357 717 q 305 706 325 706 z "},"ĕ":{"ha":650,"x_min":66,"x_max":596,"o":"m 66 0 m 362 -7 q 139 72 212 -7 q 66 311 66 150 q 138 554 66 471 q 347 637 209 637 q 533 557 471 637 q 596 323 596 477 q 589 304 596 316 q 572 283 582 292 q 555 274 562 274 l 175 274 q 227 126 182 173 q 361 80 271 80 q 447 92 411 80 q 517 122 484 104 q 528 127 521 123 q 537 130 534 130 q 554 118 545 130 q 571 92 564 106 q 578 71 578 77 q 549 37 578 56 q 469 6 519 19 q 362 -7 419 -7 m 488 361 q 344 551 488 551 q 175 361 189 551 l 488 361 m 327 706 q 242 722 281 706 q 177 768 202 737 q 153 844 153 800 q 157 858 153 853 q 170 862 161 862 q 184 859 180 862 q 191 846 188 855 q 197 832 195 836 q 244 796 210 808 q 327 785 279 785 q 409 796 374 785 q 456 832 443 808 l 462 846 q 469 859 465 855 q 482 862 473 862 q 496 858 492 862 q 500 844 500 853 q 476 768 500 800 q 411 722 451 737 q 327 706 372 706 z "},"ě":{"ha":650,"x_min":66,"x_max":596,"o":"m 66 0 m 362 -7 q 139 72 212 -7 q 66 311 66 150 q 138 554 66 471 q 347 637 209 637 q 533 557 471 637 q 596 323 596 477 q 589 304 596 316 q 572 283 582 292 q 555 274 562 274 l 175 274 q 227 126 182 173 q 361 80 271 80 q 447 92 411 80 q 517 122 484 104 q 528 127 521 123 q 537 130 534 130 q 554 118 545 130 q 571 92 564 106 q 578 71 578 77 q 549 37 578 56 q 469 6 519 19 q 362 -7 419 -7 m 488 361 q 344 551 488 551 q 175 361 189 551 l 488 361 m 310 701 q 254 728 274 701 l 187 834 q 180 857 180 846 q 188 868 180 864 q 208 873 195 873 l 210 873 q 251 857 235 873 l 325 768 l 400 857 q 419 869 410 865 q 441 873 429 873 l 443 873 q 464 868 456 873 q 472 855 472 863 q 465 834 472 846 l 396 728 q 340 701 377 701 l 310 701 z "},"ê":{"ha":650,"x_min":66,"x_max":596,"o":"m 66 0 m 362 -7 q 139 72 212 -7 q 66 311 66 150 q 138 554 66 471 q 347 637 209 637 q 533 557 471 637 q 596 323 596 477 q 589 304 596 316 q 572 283 582 292 q 555 274 562 274 l 175 274 q 227 126 182 173 q 361 80 271 80 q 447 92 411 80 q 517 122 484 104 q 528 127 521 123 q 537 130 534 130 q 554 118 545 130 q 571 92 564 106 q 578 71 578 77 q 549 37 578 56 q 469 6 519 19 q 362 -7 419 -7 m 488 361 q 344 551 488 551 q 175 361 189 551 l 488 361 m 208 694 q 180 711 180 694 q 187 733 180 720 l 254 839 q 310 865 272 865 l 340 865 q 395 839 378 865 l 465 733 q 472 713 472 722 q 443 694 472 694 l 440 694 q 419 698 429 694 q 400 711 410 702 l 325 800 l 251 711 q 210 694 235 694 l 208 694 z "},"ế":{"ha":650,"x_min":66,"x_max":649,"o":"m 474 861 q 446 873 446 861 q 458 904 446 881 q 517 1007 471 927 q 544 1031 526 1023 q 591 1038 562 1038 q 635 1035 622 1038 q 649 1022 649 1031 q 644 1008 649 1016 q 617 976 638 1000 q 565 916 597 952 l 536 882 q 510 867 526 872 q 474 861 494 861 m 212 694 q 184 711 184 694 q 192 733 184 720 l 259 839 q 315 865 277 865 l 345 865 q 389 839 372 865 l 451 733 q 458 713 458 722 q 429 694 458 694 l 427 694 q 404 699 414 694 q 387 711 393 703 l 330 800 l 256 711 q 215 694 239 694 l 212 694 m 362 -7 q 139 72 212 -7 q 66 311 66 150 q 138 554 66 471 q 347 637 209 637 q 533 557 471 637 q 596 323 596 477 q 589 304 596 316 q 572 283 582 292 q 555 274 562 274 l 175 274 q 227 126 182 173 q 361 80 271 80 q 447 92 411 80 q 517 122 484 104 q 528 127 521 123 q 537 130 534 130 q 554 118 545 130 q 571 92 564 106 q 578 71 578 77 q 549 37 578 56 q 469 6 519 19 q 362 -7 419 -7 m 488 361 q 344 551 488 551 q 175 361 189 551 l 488 361 z "},"ệ":{"ha":650,"x_min":66,"x_max":596,"o":"m 66 0 m 362 -7 q 139 72 212 -7 q 66 311 66 150 q 138 554 66 471 q 347 637 209 637 q 533 557 471 637 q 596 323 596 477 q 589 304 596 316 q 572 283 582 292 q 555 274 562 274 l 175 274 q 227 126 182 173 q 361 80 271 80 q 447 92 411 80 q 517 122 484 104 q 528 127 521 123 q 537 130 534 130 q 554 118 545 130 q 571 92 564 106 q 578 71 578 77 q 549 37 578 56 q 469 6 519 19 q 362 -7 419 -7 m 488 361 q 344 551 488 551 q 175 361 189 551 l 488 361 m 208 694 q 180 711 180 694 q 187 733 180 720 l 254 839 q 310 865 272 865 l 340 865 q 395 839 378 865 l 465 733 q 472 713 472 722 q 443 694 472 694 l 440 694 q 419 698 429 694 q 400 711 410 702 l 325 800 l 251 711 q 210 694 235 694 l 208 694 z "},"ề":{"ha":650,"x_min":66,"x_max":596,"o":"m 528 861 q 493 867 509 861 q 467 882 477 872 l 418 938 q 363 1001 374 988 q 353 1022 353 1015 q 367 1035 353 1031 q 411 1038 380 1038 q 458 1031 440 1038 q 486 1007 475 1024 q 543 906 530 930 q 555 873 555 881 q 549 864 555 867 q 528 861 543 861 m 212 694 q 184 711 184 694 q 192 733 184 720 l 259 839 q 315 865 277 865 l 345 865 q 389 839 372 865 l 451 733 q 458 713 458 722 q 429 694 458 694 l 427 694 q 404 699 414 694 q 387 711 393 703 l 330 800 l 256 711 q 215 694 239 694 l 212 694 m 362 -7 q 139 72 212 -7 q 66 311 66 150 q 138 554 66 471 q 347 637 209 637 q 533 557 471 637 q 596 323 596 477 q 589 304 596 316 q 572 283 582 292 q 555 274 562 274 l 175 274 q 227 126 182 173 q 361 80 271 80 q 447 92 411 80 q 517 122 484 104 q 528 127 521 123 q 537 130 534 130 q 554 118 545 130 q 571 92 564 106 q 578 71 578 77 q 549 37 578 56 q 469 6 519 19 q 362 -7 419 -7 m 488 361 q 344 551 488 551 q 175 361 189 551 l 488 361 z "},"ể":{"ha":650,"x_min":66,"x_max":613,"o":"m 504 834 q 479 841 494 834 q 464 854 464 847 q 471 873 464 865 q 494 895 478 882 q 527 927 515 911 q 538 966 538 943 q 526 989 538 981 q 494 998 513 998 q 466 994 476 998 q 448 987 455 991 q 438 983 440 983 q 420 998 431 983 q 410 1022 410 1013 q 424 1039 410 1030 q 461 1054 439 1048 q 504 1059 483 1059 q 553 1051 528 1059 q 595 1024 578 1043 q 613 975 613 1005 q 591 907 613 939 q 541 854 568 875 q 504 834 513 834 m 212 694 q 184 711 184 694 q 192 733 184 720 l 259 839 q 315 865 277 865 l 345 865 q 389 839 372 865 l 451 733 q 458 713 458 722 q 429 694 458 694 l 427 694 q 404 699 414 694 q 387 711 393 703 l 330 800 l 256 711 q 215 694 239 694 l 212 694 m 362 -7 q 139 72 212 -7 q 66 311 66 150 q 138 554 66 471 q 347 637 209 637 q 533 557 471 637 q 596 323 596 477 q 589 304 596 316 q 572 283 582 292 q 555 274 562 274 l 175 274 q 227 126 182 173 q 361 80 271 80 q 447 92 411 80 q 517 122 484 104 q 528 127 521 123 q 537 130 534 130 q 554 118 545 130 q 571 92 564 106 q 578 71 578 77 q 549 37 578 56 q 469 6 519 19 q 362 -7 419 -7 m 488 361 q 344 551 488 551 q 175 361 189 551 l 488 361 z "},"ễ":{"ha":650,"x_min":66,"x_max":596,"o":"m 141 948 q 131 962 131 953 q 134 978 131 970 q 176 1042 151 1023 q 236 1061 201 1061 q 282 1054 258 1061 q 340 1034 306 1047 q 389 1015 370 1021 q 426 1009 409 1009 q 452 1017 441 1009 q 474 1044 463 1025 q 485 1058 479 1054 q 496 1062 490 1062 q 507 1059 500 1062 l 515 1055 q 525 1049 522 1053 q 528 1040 528 1046 q 524 1024 528 1034 q 482 961 507 980 q 423 942 458 942 q 376 949 399 942 q 314 970 353 956 q 264 988 283 983 q 229 994 245 994 q 205 986 216 994 q 184 958 195 977 q 174 944 178 948 q 163 940 169 940 q 153 943 161 940 l 141 948 m 208 694 q 180 711 180 694 q 187 733 180 720 l 254 839 q 310 865 272 865 l 340 865 q 395 839 378 865 l 465 733 q 472 713 472 722 q 443 694 472 694 l 440 694 q 419 698 429 694 q 400 711 410 702 l 325 800 l 251 711 q 210 694 235 694 l 208 694 m 362 -7 q 139 72 212 -7 q 66 311 66 150 q 138 554 66 471 q 347 637 209 637 q 533 557 471 637 q 596 323 596 477 q 589 304 596 316 q 572 283 582 292 q 555 274 562 274 l 175 274 q 227 126 182 173 q 361 80 271 80 q 447 92 411 80 q 517 122 484 104 q 528 127 521 123 q 537 130 534 130 q 554 118 545 130 q 571 92 564 106 q 578 71 578 77 q 549 37 578 56 q 469 6 519 19 q 362 -7 419 -7 m 488 361 q 344 551 488 551 q 175 361 189 551 l 488 361 z "},"ë":{"ha":650,"x_min":66,"x_max":596,"o":"m 66 0 m 362 -7 q 139 72 212 -7 q 66 311 66 150 q 138 554 66 471 q 347 637 209 637 q 533 557 471 637 q 596 323 596 477 q 589 304 596 316 q 572 283 582 292 q 555 274 562 274 l 175 274 q 227 126 182 173 q 361 80 271 80 q 447 92 411 80 q 517 122 484 104 q 528 127 521 123 q 537 130 534 130 q 554 118 545 130 q 571 92 564 106 q 578 71 578 77 q 549 37 578 56 q 469 6 519 19 q 362 -7 419 -7 m 488 361 q 344 551 488 551 q 175 361 189 551 l 488 361 m 237 732 q 189 758 189 732 l 189 820 q 242 847 189 847 q 290 820 290 847 l 290 758 q 237 732 290 732 m 411 732 q 363 758 363 732 l 363 820 q 416 847 363 847 q 464 820 464 847 l 464 758 q 411 732 464 732 z "},"ė":{"ha":650,"x_min":66,"x_max":596,"o":"m 66 0 m 362 -7 q 139 72 212 -7 q 66 311 66 150 q 138 554 66 471 q 347 637 209 637 q 533 557 471 637 q 596 323 596 477 q 589 304 596 316 q 572 283 582 292 q 555 274 562 274 l 175 274 q 227 126 182 173 q 361 80 271 80 q 447 92 411 80 q 517 122 484 104 q 528 127 521 123 q 537 130 534 130 q 554 118 545 130 q 571 92 564 106 q 578 71 578 77 q 549 37 578 56 q 469 6 519 19 q 362 -7 419 -7 m 488 361 q 344 551 488 551 q 175 361 189 551 l 488 361 m 324 732 q 275 758 275 732 l 275 820 q 288 840 275 832 q 329 847 301 847 q 377 820 377 847 l 377 758 q 324 732 377 732 z "},"ẹ":{"ha":650,"x_min":66,"x_max":596,"o":"m 66 0 m 362 -7 q 139 72 212 -7 q 66 311 66 150 q 138 554 66 471 q 347 637 209 637 q 533 557 471 637 q 596 323 596 477 q 589 304 596 316 q 572 283 582 292 q 555 274 562 274 l 175 274 q 227 126 182 173 q 361 80 271 80 q 447 92 411 80 q 517 122 484 104 q 528 127 521 123 q 537 130 534 130 q 554 118 545 130 q 571 92 564 106 q 578 71 578 77 q 549 37 578 56 q 469 6 519 19 q 362 -7 419 -7 m 488 361 q 344 551 488 551 q 175 361 189 551 l 488 361 z "},"è":{"ha":650,"x_min":66,"x_max":596,"o":"m 66 0 m 362 -7 q 139 72 212 -7 q 66 311 66 150 q 138 554 66 471 q 347 637 209 637 q 533 557 471 637 q 596 323 596 477 q 589 304 596 316 q 572 283 582 292 q 555 274 562 274 l 175 274 q 227 126 182 173 q 361 80 271 80 q 447 92 411 80 q 517 122 484 104 q 528 127 521 123 q 537 130 534 130 q 554 118 545 130 q 571 92 564 106 q 578 71 578 77 q 549 37 578 56 q 469 6 519 19 q 362 -7 419 -7 m 488 361 q 344 551 488 551 q 175 361 189 551 l 488 361 m 359 706 q 324 711 340 706 q 298 727 308 717 l 249 783 q 194 846 205 833 q 184 867 184 859 q 198 880 184 876 q 242 883 212 883 q 289 876 271 883 q 317 852 307 869 q 374 750 361 775 q 387 718 387 726 q 380 709 387 711 q 359 706 374 706 z "},"ẻ":{"ha":650,"x_min":66,"x_max":596,"o":"m 66 0 m 362 -7 q 139 72 212 -7 q 66 311 66 150 q 138 554 66 471 q 347 637 209 637 q 533 557 471 637 q 596 323 596 477 q 589 304 596 316 q 572 283 582 292 q 555 274 562 274 l 175 274 q 227 126 182 173 q 361 80 271 80 q 447 92 411 80 q 517 122 484 104 q 528 127 521 123 q 537 130 534 130 q 554 118 545 130 q 571 92 564 106 q 578 71 578 77 q 549 37 578 56 q 469 6 519 19 q 362 -7 419 -7 m 488 361 q 344 551 488 551 q 175 361 189 551 l 488 361 m 335 679 q 310 685 325 679 q 295 699 295 692 q 302 718 295 709 q 325 739 309 726 q 358 772 346 756 q 370 810 370 788 q 357 834 370 826 q 325 842 345 842 q 296 839 307 842 q 278 831 286 836 q 269 827 271 827 q 252 843 262 827 q 241 867 241 858 q 255 884 241 875 q 292 898 270 892 q 335 904 314 904 q 384 896 359 904 q 427 869 409 888 q 444 819 444 850 q 422 751 444 783 q 372 699 399 720 q 335 679 345 679 z "},"ē":{"ha":650,"x_min":66,"x_max":596,"o":"m 66 0 m 362 -7 q 139 72 212 -7 q 66 311 66 150 q 138 554 66 471 q 347 637 209 637 q 533 557 471 637 q 596 323 596 477 q 589 304 596 316 q 572 283 582 292 q 555 274 562 274 l 175 274 q 227 126 182 173 q 361 80 271 80 q 447 92 411 80 q 517 122 484 104 q 528 127 521 123 q 537 130 534 130 q 554 118 545 130 q 571 92 564 106 q 578 71 578 77 q 549 37 578 56 q 469 6 519 19 q 362 -7 419 -7 m 488 361 q 344 551 488 551 q 175 361 189 551 l 488 361 m 192 738 q 173 747 179 738 q 168 774 168 755 l 168 786 q 173 814 168 805 q 192 823 179 823 l 461 823 q 479 814 473 823 q 484 786 484 805 l 484 774 q 479 746 484 755 q 461 738 473 738 l 192 738 z "},"ę":{"ha":650,"x_min":66,"x_max":669,"o":"m 646 -113 q 669 -142 669 -113 q 644 -195 669 -180 q 570 -209 618 -209 q 457 -169 486 -209 q 428 -86 428 -130 q 448 1 428 -29 q 362 -7 403 -7 q 139 72 212 -7 q 66 311 66 150 q 138 554 66 471 q 347 637 209 637 q 533 557 471 637 q 596 323 596 477 q 589 304 596 316 q 572 283 582 292 q 555 274 562 274 l 175 274 q 227 126 182 173 q 361 80 271 80 q 447 92 411 80 q 517 122 484 104 q 528 127 521 123 q 537 130 534 130 q 554 118 545 130 q 571 92 564 106 q 578 71 578 77 q 563 47 578 60 q 520 22 547 34 q 523 11 523 19 q 517 -16 523 2 q 508 -63 508 -47 q 530 -113 508 -101 q 583 -124 552 -124 q 613 -119 593 -124 q 646 -113 634 -113 m 344 551 q 175 361 189 551 l 488 361 q 344 551 488 551 z "},"ẽ":{"ha":650,"x_min":66,"x_max":596,"o":"m 66 0 m 362 -7 q 139 72 212 -7 q 66 311 66 150 q 138 554 66 471 q 347 637 209 637 q 533 557 471 637 q 596 323 596 477 q 589 304 596 316 q 572 283 582 292 q 555 274 562 274 l 175 274 q 227 126 182 173 q 361 80 271 80 q 447 92 411 80 q 517 122 484 104 q 528 127 521 123 q 537 130 534 130 q 554 118 545 130 q 571 92 564 106 q 578 71 578 77 q 549 37 578 56 q 469 6 519 19 q 362 -7 419 -7 m 488 361 q 344 551 488 551 q 175 361 189 551 l 488 361 m 129 719 q 117 733 117 724 q 121 749 117 741 q 167 813 140 793 q 233 832 194 832 q 283 825 257 832 q 347 804 309 818 q 401 786 379 792 q 442 780 424 780 q 470 788 458 780 q 494 815 482 795 q 518 833 507 833 q 530 829 522 833 l 540 826 q 551 820 547 823 q 554 811 554 817 q 549 795 554 804 q 503 732 530 751 q 439 713 476 713 q 387 720 413 713 q 319 741 361 727 q 264 759 286 753 q 226 765 243 765 q 199 756 211 765 q 175 728 188 748 q 164 715 169 719 q 153 711 159 711 q 141 714 149 711 l 129 719 z "},"f":{"ha":392,"x_min":58,"x_max":374,"o":"m 178 -2 q 142 4 153 -2 q 130 24 130 11 l 130 544 l 82 544 q 58 580 58 544 l 58 595 q 82 631 58 631 l 130 631 l 130 745 q 177 876 130 840 q 286 911 224 911 q 374 875 374 911 q 371 855 374 869 q 362 830 368 841 q 349 819 356 819 q 332 822 345 819 q 296 825 319 825 q 262 819 276 825 q 240 793 248 812 q 231 736 231 773 l 231 631 l 336 631 q 355 622 349 631 q 361 595 361 614 l 361 580 q 355 552 361 561 q 336 544 349 544 l 231 544 l 231 24 q 220 4 231 11 q 184 -2 208 -2 l 178 -2 z "},"g":{"ha":659,"x_min":56,"x_max":634,"o":"m 305 -256 q 123 -220 190 -256 q 56 -106 56 -184 q 86 -14 56 -54 q 165 45 117 25 l 167 47 q 131 90 143 66 q 118 146 118 113 q 186 272 118 224 q 109 341 135 296 q 82 441 82 385 q 110 541 82 496 q 191 612 137 586 q 319 637 244 637 q 391 631 359 637 l 610 631 q 628 622 623 631 q 634 595 634 614 l 634 580 q 628 552 634 561 q 610 544 623 544 q 526 547 564 544 l 524 545 q 548 497 540 524 q 555 441 555 470 q 528 340 555 385 q 447 270 500 296 q 318 244 394 244 q 232 223 261 242 q 203 161 203 204 q 224 112 203 129 q 276 88 245 95 q 363 75 307 81 l 398 71 q 492 51 454 64 q 555 8 530 38 q 580 -74 580 -22 q 510 -209 580 -161 q 305 -256 440 -256 m 318 324 q 424 351 385 324 q 463 440 463 378 q 318 557 463 557 q 175 440 175 557 q 214 351 175 378 q 318 324 253 324 m 318 -174 q 443 -152 402 -174 q 484 -85 484 -130 q 462 -40 484 -56 q 409 -17 440 -24 q 326 -5 377 -11 q 268 2 290 -1 q 226 12 245 5 q 146 -87 146 -22 q 318 -174 146 -174 z "},"ğ":{"ha":659,"x_min":56,"x_max":634,"o":"m 56 0 m 305 -256 q 123 -220 190 -256 q 56 -106 56 -184 q 86 -14 56 -54 q 165 45 117 25 l 167 47 q 131 90 143 66 q 118 146 118 113 q 186 272 118 224 q 109 341 135 296 q 82 441 82 385 q 110 541 82 496 q 191 612 137 586 q 319 637 244 637 q 391 631 359 637 l 610 631 q 628 622 623 631 q 634 595 634 614 l 634 580 q 628 552 634 561 q 610 544 623 544 q 526 547 564 544 l 524 545 q 548 497 540 524 q 555 441 555 470 q 528 340 555 385 q 447 270 500 296 q 318 244 394 244 q 232 223 261 242 q 203 161 203 204 q 224 112 203 129 q 276 88 245 95 q 363 75 307 81 l 398 71 q 492 51 454 64 q 555 8 530 38 q 580 -74 580 -22 q 510 -209 580 -161 q 305 -256 440 -256 m 318 324 q 424 351 385 324 q 463 440 463 378 q 318 557 463 557 q 175 440 175 557 q 214 351 175 378 q 318 324 253 324 m 318 -174 q 443 -152 402 -174 q 484 -85 484 -130 q 462 -40 484 -56 q 409 -17 440 -24 q 326 -5 377 -11 q 268 2 290 -1 q 226 12 245 5 q 146 -87 146 -22 q 318 -174 146 -174 m 330 706 q 245 722 285 706 q 181 768 205 737 q 156 844 156 800 q 160 858 156 853 q 174 862 164 862 q 188 859 184 862 q 195 846 191 855 q 200 832 198 836 q 248 796 213 808 q 330 785 283 785 q 412 796 378 785 q 459 832 446 808 l 465 846 q 472 859 469 855 q 486 862 476 862 q 500 858 496 862 q 504 844 504 853 q 479 768 504 800 q 415 722 454 737 q 330 706 375 706 z "},"ĝ":{"ha":659,"x_min":56,"x_max":634,"o":"m 56 0 m 305 -256 q 123 -220 190 -256 q 56 -106 56 -184 q 86 -14 56 -54 q 165 45 117 25 l 167 47 q 131 90 143 66 q 118 146 118 113 q 186 272 118 224 q 109 341 135 296 q 82 441 82 385 q 110 541 82 496 q 191 612 137 586 q 319 637 244 637 q 391 631 359 637 l 610 631 q 628 622 623 631 q 634 595 634 614 l 634 580 q 628 552 634 561 q 610 544 623 544 q 526 547 564 544 l 524 545 q 548 497 540 524 q 555 441 555 470 q 528 340 555 385 q 447 270 500 296 q 318 244 394 244 q 232 223 261 242 q 203 161 203 204 q 224 112 203 129 q 276 88 245 95 q 363 75 307 81 l 398 71 q 492 51 454 64 q 555 8 530 38 q 580 -74 580 -22 q 510 -209 580 -161 q 305 -256 440 -256 m 318 324 q 424 351 385 324 q 463 440 463 378 q 318 557 463 557 q 175 440 175 557 q 214 351 175 378 q 318 324 253 324 m 318 -174 q 443 -152 402 -174 q 484 -85 484 -130 q 462 -40 484 -56 q 409 -17 440 -24 q 326 -5 377 -11 q 268 2 290 -1 q 226 12 245 5 q 146 -87 146 -22 q 318 -174 146 -174 m 211 694 q 183 711 183 694 q 191 733 183 720 l 258 839 q 313 865 275 865 l 343 865 q 399 839 382 865 l 468 733 q 475 713 475 722 q 446 694 475 694 l 444 694 q 422 698 432 694 q 404 711 413 702 l 328 800 l 254 711 q 214 694 238 694 l 211 694 z "},"ģ":{"ha":659,"x_min":56,"x_max":634,"o":"m 403 927 q 427 923 416 927 q 437 909 437 919 q 434 894 437 903 q 427 880 430 886 q 422 871 424 874 q 396 811 406 839 q 386 744 386 783 q 374 716 386 726 q 337 705 361 705 l 326 705 q 291 714 304 705 q 278 739 278 724 q 300 836 278 793 q 351 903 321 879 q 403 927 381 927 m 305 -256 q 123 -220 190 -256 q 56 -106 56 -184 q 86 -14 56 -54 q 165 45 117 25 l 167 47 q 131 90 143 66 q 118 146 118 113 q 186 272 118 224 q 109 341 135 296 q 82 441 82 385 q 110 541 82 496 q 191 612 137 586 q 319 637 244 637 q 391 631 359 637 l 610 631 q 628 622 623 631 q 634 595 634 614 l 634 580 q 628 552 634 561 q 610 544 623 544 q 526 547 564 544 l 524 545 q 548 497 540 524 q 555 441 555 470 q 528 340 555 385 q 447 270 500 296 q 318 244 394 244 q 232 223 261 242 q 203 161 203 204 q 224 112 203 129 q 276 88 245 95 q 363 75 307 81 l 398 71 q 492 51 454 64 q 555 8 530 38 q 580 -74 580 -22 q 510 -209 580 -161 q 305 -256 440 -256 m 318 324 q 424 351 385 324 q 463 440 463 378 q 318 557 463 557 q 175 440 175 557 q 214 351 175 378 q 318 324 253 324 m 318 -174 q 443 -152 402 -174 q 484 -85 484 -130 q 462 -40 484 -56 q 409 -17 440 -24 q 326 -5 377 -11 q 268 2 290 -1 q 226 12 245 5 q 146 -87 146 -22 q 318 -174 146 -174 z "},"ġ":{"ha":659,"x_min":56,"x_max":634,"o":"m 56 0 m 305 -256 q 123 -220 190 -256 q 56 -106 56 -184 q 86 -14 56 -54 q 165 45 117 25 l 167 47 q 131 90 143 66 q 118 146 118 113 q 186 272 118 224 q 109 341 135 296 q 82 441 82 385 q 110 541 82 496 q 191 612 137 586 q 319 637 244 637 q 391 631 359 637 l 610 631 q 628 622 623 631 q 634 595 634 614 l 634 580 q 628 552 634 561 q 610 544 623 544 q 526 547 564 544 l 524 545 q 548 497 540 524 q 555 441 555 470 q 528 340 555 385 q 447 270 500 296 q 318 244 394 244 q 232 223 261 242 q 203 161 203 204 q 224 112 203 129 q 276 88 245 95 q 363 75 307 81 l 398 71 q 492 51 454 64 q 555 8 530 38 q 580 -74 580 -22 q 510 -209 580 -161 q 305 -256 440 -256 m 318 324 q 424 351 385 324 q 463 440 463 378 q 318 557 463 557 q 175 440 175 557 q 214 351 175 378 q 318 324 253 324 m 318 -174 q 443 -152 402 -174 q 484 -85 484 -130 q 462 -40 484 -56 q 409 -17 440 -24 q 326 -5 377 -11 q 268 2 290 -1 q 226 12 245 5 q 146 -87 146 -22 q 318 -174 146 -174 m 328 732 q 279 758 279 732 l 279 820 q 292 840 279 832 q 332 847 304 847 q 380 820 380 847 l 380 758 q 328 732 380 732 z "},"h":{"ha":682,"x_min":111,"x_max":589,"o":"m 159 -2 q 111 24 111 -2 l 111 880 q 159 907 111 907 l 164 907 q 213 880 213 907 l 213 555 q 296 614 248 591 q 397 637 343 637 q 531 595 473 637 q 589 443 589 552 l 589 24 q 541 -2 589 -2 l 536 -2 q 487 24 487 -2 l 487 433 q 456 519 487 488 q 364 550 425 550 q 291 531 324 550 q 235 490 257 512 q 213 465 213 468 l 213 24 q 164 -2 213 -2 l 159 -2 z "},"ħ":{"ha":682,"x_min":42,"x_max":589,"o":"m 397 637 q 531 595 473 637 q 589 443 589 552 l 589 24 q 541 -2 589 -2 l 536 -2 q 487 24 487 -2 l 487 433 q 456 519 487 488 q 364 550 425 550 q 291 531 324 550 q 235 490 257 512 q 213 465 213 468 l 213 24 q 164 -2 213 -2 l 159 -2 q 111 24 111 -2 l 111 722 l 66 722 q 48 731 54 722 q 42 759 42 740 l 42 770 q 48 798 42 789 q 66 807 54 807 l 111 807 l 111 880 q 159 907 111 907 l 164 907 q 213 880 213 907 l 213 807 l 336 807 q 353 798 348 807 q 359 770 359 789 l 359 759 q 353 731 359 739 q 336 722 348 722 l 213 722 l 213 555 q 296 614 248 591 q 397 637 343 637 z "},"ĥ":{"ha":682,"x_min":16,"x_max":589,"o":"m 16 0 m 159 -2 q 111 24 111 -2 l 111 880 q 159 907 111 907 l 164 907 q 213 880 213 907 l 213 555 q 296 614 248 591 q 397 637 343 637 q 531 595 473 637 q 589 443 589 552 l 589 24 q 541 -2 589 -2 l 536 -2 q 487 24 487 -2 l 487 433 q 456 519 487 488 q 364 550 425 550 q 291 531 324 550 q 235 490 257 512 q 213 465 213 468 l 213 24 q 164 -2 213 -2 l 159 -2 m 43 944 q 16 961 16 944 q 23 983 16 969 l 90 1088 q 146 1115 108 1115 l 176 1115 q 231 1088 214 1115 l 300 983 q 308 962 308 971 q 279 944 308 944 l 276 944 q 255 948 264 944 q 236 960 245 951 l 161 1049 l 87 960 q 46 944 71 944 l 43 944 z "},"ḥ":{"ha":682,"x_min":111,"x_max":589,"o":"m 111 0 m 159 -2 q 111 24 111 -2 l 111 880 q 159 907 111 907 l 164 907 q 213 880 213 907 l 213 555 q 296 614 248 591 q 397 637 343 637 q 531 595 473 637 q 589 443 589 552 l 589 24 q 541 -2 589 -2 l 536 -2 q 487 24 487 -2 l 487 433 q 456 519 487 488 q 364 550 425 550 q 291 531 324 550 q 235 490 257 512 q 213 465 213 468 l 213 24 q 164 -2 213 -2 l 159 -2 z "},"i":{"ha":319,"x_min":105,"x_max":216,"o":"m 153 783 q 105 809 105 783 l 105 880 q 153 907 105 907 l 168 907 q 216 880 216 907 l 216 809 q 168 783 216 783 l 153 783 m 158 -2 q 110 24 110 -2 l 110 606 q 158 633 110 633 l 163 633 q 212 606 212 633 l 212 24 q 163 -2 212 -2 l 158 -2 z "},"ı":{"ha":319,"x_min":110,"x_max":212,"o":"m 158 -2 q 110 24 110 -2 l 110 606 q 158 633 110 633 l 163 633 q 212 606 212 633 l 212 24 q 163 -2 212 -2 l 158 -2 z "},"í":{"ha":319,"x_min":110,"x_max":315,"o":"m 110 0 m 158 -2 q 110 24 110 -2 l 110 606 q 158 633 110 633 l 163 633 q 212 606 212 633 l 212 24 q 163 -2 212 -2 l 158 -2 m 140 706 q 112 718 112 706 q 124 749 112 726 q 182 852 136 772 q 210 876 192 868 q 257 883 228 883 q 301 880 288 883 q 315 867 315 876 q 309 852 315 861 q 283 821 304 844 q 231 760 262 797 l 201 727 q 176 711 192 717 q 140 706 159 706 z "},"ĭ":{"ha":319,"x_min":-13,"x_max":335,"o":"m 0 0 m 158 -2 q 110 24 110 -2 l 110 606 q 158 633 110 633 l 163 633 q 212 606 212 633 l 212 24 q 163 -2 212 -2 l 158 -2 m 161 706 q 76 722 116 706 q 12 768 37 737 q -13 844 -13 800 q -9 858 -13 853 q 5 862 -5 862 q 19 859 15 862 q 26 846 22 855 q 31 832 29 836 q 79 796 44 808 q 161 785 114 785 q 243 796 209 785 q 290 832 277 808 l 296 846 q 303 859 300 855 q 317 862 307 862 q 331 858 327 862 q 335 844 335 853 q 310 768 335 800 q 246 722 286 737 q 161 706 206 706 z "},"î":{"ha":319,"x_min":14,"x_max":307,"o":"m 14 0 m 158 -2 q 110 24 110 -2 l 110 606 q 158 633 110 633 l 163 633 q 212 606 212 633 l 212 24 q 163 -2 212 -2 l 158 -2 m 42 694 q 14 711 14 694 q 22 733 14 720 l 89 839 q 144 865 106 865 l 174 865 q 230 839 213 865 l 299 733 q 307 713 307 722 q 277 694 307 694 l 275 694 q 254 698 263 694 q 235 711 244 702 l 159 800 l 85 711 q 45 694 69 694 l 42 694 z "},"ï":{"ha":319,"x_min":24,"x_max":298,"o":"m 24 0 m 158 -2 q 110 24 110 -2 l 110 606 q 158 633 110 633 l 163 633 q 212 606 212 633 l 212 24 q 163 -2 212 -2 l 158 -2 m 72 732 q 24 758 24 732 l 24 820 q 77 847 24 847 q 125 820 125 847 l 125 758 q 72 732 125 732 m 245 732 q 197 758 197 732 l 197 820 q 250 847 197 847 q 298 820 298 847 l 298 758 q 245 732 298 732 z "},"ị":{"ha":319,"x_min":105,"x_max":216,"o":"m 105 0 m 153 783 q 105 809 105 783 l 105 880 q 153 907 105 907 l 168 907 q 216 880 216 907 l 216 809 q 168 783 216 783 l 153 783 m 158 -2 q 110 24 110 -2 l 110 606 q 158 633 110 633 l 163 633 q 212 606 212 633 l 212 24 q 163 -2 212 -2 l 158 -2 z "},"ì":{"ha":319,"x_min":18,"x_max":220,"o":"m 18 0 m 158 -2 q 110 24 110 -2 l 110 606 q 158 633 110 633 l 163 633 q 212 606 212 633 l 212 24 q 163 -2 212 -2 l 158 -2 m 193 706 q 158 711 174 706 q 132 727 142 717 l 83 783 q 28 846 39 833 q 18 867 18 859 q 32 880 18 876 q 76 883 45 883 q 123 876 105 883 q 151 852 140 869 q 208 750 195 775 q 220 718 220 726 q 214 709 220 711 q 193 706 208 706 z "},"ỉ":{"ha":319,"x_min":75,"x_max":279,"o":"m 75 0 m 158 -2 q 110 24 110 -2 l 110 606 q 158 633 110 633 l 163 633 q 212 606 212 633 l 212 24 q 163 -2 212 -2 l 158 -2 m 170 679 q 144 685 159 679 q 130 699 130 692 q 137 718 130 709 q 159 739 144 726 q 192 772 180 756 q 204 810 204 788 q 192 834 204 826 q 159 842 179 842 q 131 839 142 842 q 113 831 120 836 q 104 827 106 827 q 86 843 97 827 q 75 867 75 858 q 90 884 75 875 q 126 898 104 892 q 170 904 149 904 q 218 896 193 904 q 261 869 243 888 q 279 819 279 850 q 256 751 279 783 q 207 699 234 720 q 170 679 179 679 z "},"ĳ":{"ha":652,"x_min":105,"x_max":547,"o":"m 105 0 m 153 783 q 105 809 105 783 l 105 880 q 153 907 105 907 l 168 907 q 216 880 216 907 l 216 809 q 168 783 216 783 l 153 783 m 158 -2 q 110 24 110 -2 l 110 606 q 158 633 110 633 l 163 633 q 212 606 212 633 l 212 24 q 163 -2 212 -2 l 158 -2 m 485 783 q 436 809 436 783 l 436 880 q 485 907 436 907 l 499 907 q 547 880 547 907 l 547 809 q 499 783 547 783 l 485 783 m 387 -256 q 298 -220 298 -256 q 301 -199 298 -213 q 311 -174 304 -185 q 324 -163 317 -163 q 341 -166 328 -163 q 376 -169 354 -169 q 424 -150 406 -169 q 441 -80 441 -130 l 441 606 q 490 633 441 633 l 494 633 q 543 606 543 633 l 543 -89 q 495 -219 543 -182 q 387 -256 448 -256 z "},"ī":{"ha":319,"x_min":2,"x_max":319,"o":"m 2 0 m 158 -2 q 110 24 110 -2 l 110 606 q 158 633 110 633 l 163 633 q 212 606 212 633 l 212 24 q 163 -2 212 -2 l 158 -2 m 26 738 q 8 747 14 738 q 2 774 2 755 l 2 786 q 8 814 2 805 q 26 823 14 823 l 296 823 q 313 814 308 823 q 319 786 319 805 l 319 774 q 313 746 319 755 q 296 738 308 738 l 26 738 z "},"į":{"ha":319,"x_min":96,"x_max":336,"o":"m 153 783 q 105 809 105 783 l 105 880 q 153 907 105 907 l 168 907 q 216 880 216 907 l 216 809 q 168 783 216 783 l 153 783 m 313 -125 q 336 -155 336 -125 q 311 -207 336 -193 q 237 -221 286 -221 q 125 -181 154 -221 q 96 -98 96 -142 q 102 -42 96 -71 q 127 2 109 -14 q 110 24 110 8 l 110 606 q 158 633 110 633 l 163 633 q 212 606 212 633 l 212 24 q 191 1 212 7 l 191 -1 q 184 -28 191 -10 q 176 -75 176 -60 q 198 -125 176 -113 q 251 -136 220 -136 q 281 -131 260 -136 q 313 -125 302 -125 z "},"ĩ":{"ha":319,"x_min":110,"x_max":212,"o":"m 163 633 q 212 606 212 633 l 212 24 q 163 -2 212 -2 l 158 -2 q 110 24 110 -2 l 110 606 q 158 633 110 633 l 163 633 z "}}}
